G04 #@! TF.GenerationSoftware,KiCad,Pcbnew,5.1.2-f72e74a~84~ubuntu18.04.1*
G04 #@! TF.CreationDate,2019-12-19T12:51:00+00:00*
G04 #@! TF.ProjectId,mbus_guru,6d627573-5f67-4757-9275-2e6b69636164,rev?*
G04 #@! TF.SameCoordinates,Original*
G04 #@! TF.FileFunction,Legend,Top*
G04 #@! TF.FilePolarity,Positive*
%FSLAX46Y46*%
G04 Gerber Fmt 4.6, Leading zero omitted, Abs format (unit mm)*
G04 Created by KiCad (PCBNEW 5.1.2-f72e74a~84~ubuntu18.04.1) date 2019-12-19 12:51:00*
%MOMM*%
%LPD*%
G04 APERTURE LIST*
%ADD10C,0.120000*%
%ADD11C,0.150000*%
G04 APERTURE END LIST*
D10*
X141539500Y-91658221D02*
X141539500Y-91983779D01*
X142559500Y-91658221D02*
X142559500Y-91983779D01*
X131824000Y-92737721D02*
X131824000Y-93063279D01*
X132844000Y-92737721D02*
X132844000Y-93063279D01*
X143664721Y-99633500D02*
X143990279Y-99633500D01*
X143664721Y-98613500D02*
X143990279Y-98613500D01*
X137386279Y-85469000D02*
X137060721Y-85469000D01*
X137386279Y-86489000D02*
X137060721Y-86489000D01*
X124652500Y-100238779D02*
X124652500Y-99913221D01*
X123632500Y-100238779D02*
X123632500Y-99913221D01*
X123737000Y-92746500D02*
X126022000Y-92746500D01*
X123737000Y-91276500D02*
X123737000Y-92746500D01*
X126022000Y-91276500D02*
X123737000Y-91276500D01*
D11*
X148293000Y-101658500D02*
X146093000Y-101658500D01*
X148293000Y-97858500D02*
X148293000Y-101658500D01*
X146093000Y-97858500D02*
X148293000Y-97858500D01*
X146093000Y-101658500D02*
X146093000Y-97858500D01*
D10*
X141108000Y-98593000D02*
X138658000Y-98593000D01*
X139308000Y-101813000D02*
X141108000Y-101813000D01*
X149824221Y-87505000D02*
X150149779Y-87505000D01*
X149824221Y-86485000D02*
X150149779Y-86485000D01*
X149159500Y-83149221D02*
X149159500Y-83474779D01*
X150179500Y-83149221D02*
X150179500Y-83474779D01*
X136171721Y-99760500D02*
X136497279Y-99760500D01*
X136171721Y-98740500D02*
X136497279Y-98740500D01*
X136171721Y-101792500D02*
X136497279Y-101792500D01*
X136171721Y-100772500D02*
X136497279Y-100772500D01*
X136497279Y-96708500D02*
X136171721Y-96708500D01*
X136497279Y-97728500D02*
X136171721Y-97728500D01*
X133600500Y-99000000D02*
X133600500Y-100330000D01*
X132270500Y-99000000D02*
X133600500Y-99000000D01*
X131000500Y-99000000D02*
X131000500Y-101660000D01*
X131000500Y-101660000D02*
X125860500Y-101660000D01*
X131000500Y-99000000D02*
X125860500Y-99000000D01*
X125860500Y-99000000D02*
X125860500Y-101660000D01*
D11*
X136720500Y-93873500D02*
X136720500Y-91673500D01*
X140520500Y-93873500D02*
X136720500Y-93873500D01*
X140520500Y-91673500D02*
X140520500Y-93873500D01*
X136720500Y-91673500D02*
X140520500Y-91673500D01*
X129769500Y-98194500D02*
X131119500Y-98194500D01*
X129769500Y-93069500D02*
X125119500Y-93069500D01*
X129769500Y-98319500D02*
X125119500Y-98319500D01*
X129769500Y-93069500D02*
X129769500Y-93294500D01*
X125119500Y-93069500D02*
X125119500Y-93294500D01*
X125119500Y-98319500D02*
X125119500Y-98094500D01*
X129769500Y-98319500D02*
X129769500Y-98194500D01*
D10*
X126299500Y-90099000D02*
X124839500Y-90099000D01*
X126299500Y-86939000D02*
X124139500Y-86939000D01*
X126299500Y-86939000D02*
X126299500Y-87869000D01*
X126299500Y-90099000D02*
X126299500Y-89169000D01*
X133156000Y-79950000D02*
X133156000Y-81280000D01*
X131826000Y-79950000D02*
X133156000Y-79950000D01*
X130556000Y-79950000D02*
X130556000Y-82610000D01*
X130556000Y-82610000D02*
X127956000Y-82610000D01*
X130556000Y-79950000D02*
X127956000Y-79950000D01*
X127956000Y-79950000D02*
X127956000Y-82610000D01*
X137856500Y-83022221D02*
X137856500Y-83347779D01*
X138876500Y-83022221D02*
X138876500Y-83347779D01*
X136243279Y-94613000D02*
X135917721Y-94613000D01*
X136243279Y-95633000D02*
X135917721Y-95633000D01*
X144333500Y-95277721D02*
X144333500Y-95603279D01*
X145353500Y-95277721D02*
X145353500Y-95603279D01*
X147508500Y-89816721D02*
X147508500Y-90142279D01*
X148528500Y-89816721D02*
X148528500Y-90142279D01*
X139507500Y-89118221D02*
X139507500Y-89443779D01*
X140527500Y-89118221D02*
X140527500Y-89443779D01*
X131443000Y-89626221D02*
X131443000Y-89951779D01*
X132463000Y-89626221D02*
X132463000Y-89951779D01*
X126083279Y-84834000D02*
X125757721Y-84834000D01*
X126083279Y-85854000D02*
X125757721Y-85854000D01*
X133822221Y-87314500D02*
X134147779Y-87314500D01*
X133822221Y-86294500D02*
X134147779Y-86294500D01*
X147254500Y-83149221D02*
X147254500Y-83474779D01*
X148274500Y-83149221D02*
X148274500Y-83474779D01*
X140015500Y-83022221D02*
X140015500Y-83347779D01*
X141035500Y-83022221D02*
X141035500Y-83347779D01*
X131818500Y-85600000D02*
X131818500Y-87060000D01*
X128658500Y-85600000D02*
X128658500Y-87760000D01*
X128658500Y-85600000D02*
X129588500Y-85600000D01*
X131818500Y-85600000D02*
X130888500Y-85600000D01*
X140406000Y-96899000D02*
X140406000Y-95439000D01*
X143566000Y-96899000D02*
X143566000Y-94739000D01*
X143566000Y-96899000D02*
X142636000Y-96899000D01*
X140406000Y-96899000D02*
X141336000Y-96899000D01*
X145794000Y-92639000D02*
X144334000Y-92639000D01*
X145794000Y-89479000D02*
X143634000Y-89479000D01*
X145794000Y-89479000D02*
X145794000Y-90409000D01*
X145794000Y-92639000D02*
X145794000Y-91709000D01*
X145921000Y-87368500D02*
X144461000Y-87368500D01*
X145921000Y-84208500D02*
X143761000Y-84208500D01*
X145921000Y-84208500D02*
X145921000Y-85138500D01*
X145921000Y-87368500D02*
X145921000Y-86438500D01*
X151070000Y-80521500D02*
X152400000Y-80521500D01*
X151070000Y-81851500D02*
X151070000Y-80521500D01*
X151070000Y-83121500D02*
X153730000Y-83121500D01*
X153730000Y-83121500D02*
X153730000Y-85721500D01*
X151070000Y-83121500D02*
X151070000Y-85721500D01*
X151070000Y-85721500D02*
X153730000Y-85721500D01*
X151070000Y-91697500D02*
X152400000Y-91697500D01*
X151070000Y-93027500D02*
X151070000Y-91697500D01*
X151070000Y-94297500D02*
X153730000Y-94297500D01*
X153730000Y-94297500D02*
X153730000Y-96897500D01*
X151070000Y-94297500D02*
X151070000Y-96897500D01*
X151070000Y-96897500D02*
X153730000Y-96897500D01*
X136269000Y-84447500D02*
X134809000Y-84447500D01*
X136269000Y-81287500D02*
X134109000Y-81287500D01*
X136269000Y-81287500D02*
X136269000Y-82217500D01*
X136269000Y-84447500D02*
X136269000Y-83517500D01*
D11*
X148740880Y-101655404D02*
X148740880Y-101083976D01*
X149740880Y-101369690D02*
X148740880Y-101369690D01*
X149740880Y-100750642D02*
X148740880Y-100750642D01*
X148740880Y-100369690D01*
X148788500Y-100274452D01*
X148836119Y-100226833D01*
X148931357Y-100179214D01*
X149074214Y-100179214D01*
X149169452Y-100226833D01*
X149217071Y-100274452D01*
X149264690Y-100369690D01*
X149264690Y-100750642D01*
X148836119Y-99798261D02*
X148788500Y-99750642D01*
X148740880Y-99655404D01*
X148740880Y-99417309D01*
X148788500Y-99322071D01*
X148836119Y-99274452D01*
X148931357Y-99226833D01*
X149026595Y-99226833D01*
X149169452Y-99274452D01*
X149740880Y-99845880D01*
X149740880Y-99226833D01*
X142367095Y-101052380D02*
X142367095Y-101861904D01*
X142414714Y-101957142D01*
X142462333Y-102004761D01*
X142557571Y-102052380D01*
X142748047Y-102052380D01*
X142843285Y-102004761D01*
X142890904Y-101957142D01*
X142938523Y-101861904D01*
X142938523Y-101052380D01*
X143367095Y-101147619D02*
X143414714Y-101100000D01*
X143509952Y-101052380D01*
X143748047Y-101052380D01*
X143843285Y-101100000D01*
X143890904Y-101147619D01*
X143938523Y-101242857D01*
X143938523Y-101338095D01*
X143890904Y-101480952D01*
X143319476Y-102052380D01*
X143938523Y-102052380D01*
X123277380Y-100536333D02*
X123991666Y-100536333D01*
X124134523Y-100583952D01*
X124229761Y-100679190D01*
X124277380Y-100822047D01*
X124277380Y-100917285D01*
X123610714Y-99631571D02*
X124277380Y-99631571D01*
X123229761Y-99869666D02*
X123944047Y-100107761D01*
X123944047Y-99488714D01*
X126682595Y-98696880D02*
X126682595Y-99506404D01*
X126730214Y-99601642D01*
X126777833Y-99649261D01*
X126873071Y-99696880D01*
X127063547Y-99696880D01*
X127158785Y-99649261D01*
X127206404Y-99601642D01*
X127254023Y-99506404D01*
X127254023Y-98696880D01*
X128254023Y-99696880D02*
X127682595Y-99696880D01*
X127968309Y-99696880D02*
X127968309Y-98696880D01*
X127873071Y-98839738D01*
X127777833Y-98934976D01*
X127682595Y-98982595D01*
X126396761Y-86566619D02*
X126301523Y-86519000D01*
X126206285Y-86423761D01*
X126063428Y-86280904D01*
X125968190Y-86233285D01*
X125872952Y-86233285D01*
X125920571Y-86471380D02*
X125825333Y-86423761D01*
X125730095Y-86328523D01*
X125682476Y-86138047D01*
X125682476Y-85804714D01*
X125730095Y-85614238D01*
X125825333Y-85519000D01*
X125920571Y-85471380D01*
X126111047Y-85471380D01*
X126206285Y-85519000D01*
X126301523Y-85614238D01*
X126349142Y-85804714D01*
X126349142Y-86138047D01*
X126301523Y-86328523D01*
X126206285Y-86423761D01*
X126111047Y-86471380D01*
X125920571Y-86471380D01*
X127253904Y-85471380D02*
X126777714Y-85471380D01*
X126730095Y-85947571D01*
X126777714Y-85899952D01*
X126872952Y-85852333D01*
X127111047Y-85852333D01*
X127206285Y-85899952D01*
X127253904Y-85947571D01*
X127301523Y-86042809D01*
X127301523Y-86280904D01*
X127253904Y-86376142D01*
X127206285Y-86423761D01*
X127111047Y-86471380D01*
X126872952Y-86471380D01*
X126777714Y-86423761D01*
X126730095Y-86376142D01*
X129968666Y-83208880D02*
X129968666Y-83923166D01*
X129921047Y-84066023D01*
X129825809Y-84161261D01*
X129682952Y-84208880D01*
X129587714Y-84208880D01*
X130349619Y-83208880D02*
X130968666Y-83208880D01*
X130635333Y-83589833D01*
X130778190Y-83589833D01*
X130873428Y-83637452D01*
X130921047Y-83685071D01*
X130968666Y-83780309D01*
X130968666Y-84018404D01*
X130921047Y-84113642D01*
X130873428Y-84161261D01*
X130778190Y-84208880D01*
X130492476Y-84208880D01*
X130397238Y-84161261D01*
X130349619Y-84113642D01*
X146725880Y-96083357D02*
X146249690Y-96416690D01*
X146725880Y-96654785D02*
X145725880Y-96654785D01*
X145725880Y-96273833D01*
X145773500Y-96178595D01*
X145821119Y-96130976D01*
X145916357Y-96083357D01*
X146059214Y-96083357D01*
X146154452Y-96130976D01*
X146202071Y-96178595D01*
X146249690Y-96273833D01*
X146249690Y-96654785D01*
X146725880Y-95130976D02*
X146725880Y-95702404D01*
X146725880Y-95416690D02*
X145725880Y-95416690D01*
X145868738Y-95511928D01*
X145963976Y-95607166D01*
X146011595Y-95702404D01*
X145725880Y-94511928D02*
X145725880Y-94416690D01*
X145773500Y-94321452D01*
X145821119Y-94273833D01*
X145916357Y-94226214D01*
X146106833Y-94178595D01*
X146344928Y-94178595D01*
X146535404Y-94226214D01*
X146630642Y-94273833D01*
X146678261Y-94321452D01*
X146725880Y-94416690D01*
X146725880Y-94511928D01*
X146678261Y-94607166D01*
X146630642Y-94654785D01*
X146535404Y-94702404D01*
X146344928Y-94750023D01*
X146106833Y-94750023D01*
X145916357Y-94702404D01*
X145821119Y-94654785D01*
X145773500Y-94607166D01*
X145725880Y-94511928D01*
X131008380Y-89701666D02*
X130532190Y-90035000D01*
X131008380Y-90273095D02*
X130008380Y-90273095D01*
X130008380Y-89892142D01*
X130056000Y-89796904D01*
X130103619Y-89749285D01*
X130198857Y-89701666D01*
X130341714Y-89701666D01*
X130436952Y-89749285D01*
X130484571Y-89796904D01*
X130532190Y-89892142D01*
X130532190Y-90273095D01*
X130008380Y-88796904D02*
X130008380Y-89273095D01*
X130484571Y-89320714D01*
X130436952Y-89273095D01*
X130389333Y-89177857D01*
X130389333Y-88939761D01*
X130436952Y-88844523D01*
X130484571Y-88796904D01*
X130579809Y-88749285D01*
X130817904Y-88749285D01*
X130913142Y-88796904D01*
X130960761Y-88844523D01*
X131008380Y-88939761D01*
X131008380Y-89177857D01*
X130960761Y-89273095D01*
X130913142Y-89320714D01*
X125690333Y-87320380D02*
X125357000Y-86844190D01*
X125118904Y-87320380D02*
X125118904Y-86320380D01*
X125499857Y-86320380D01*
X125595095Y-86368000D01*
X125642714Y-86415619D01*
X125690333Y-86510857D01*
X125690333Y-86653714D01*
X125642714Y-86748952D01*
X125595095Y-86796571D01*
X125499857Y-86844190D01*
X125118904Y-86844190D01*
X126547476Y-86653714D02*
X126547476Y-87320380D01*
X126309380Y-86272761D02*
X126071285Y-86987047D01*
X126690333Y-86987047D01*
X133818333Y-85826880D02*
X133485000Y-85350690D01*
X133246904Y-85826880D02*
X133246904Y-84826880D01*
X133627857Y-84826880D01*
X133723095Y-84874500D01*
X133770714Y-84922119D01*
X133818333Y-85017357D01*
X133818333Y-85160214D01*
X133770714Y-85255452D01*
X133723095Y-85303071D01*
X133627857Y-85350690D01*
X133246904Y-85350690D01*
X134151666Y-84826880D02*
X134770714Y-84826880D01*
X134437380Y-85207833D01*
X134580238Y-85207833D01*
X134675476Y-85255452D01*
X134723095Y-85303071D01*
X134770714Y-85398309D01*
X134770714Y-85636404D01*
X134723095Y-85731642D01*
X134675476Y-85779261D01*
X134580238Y-85826880D01*
X134294523Y-85826880D01*
X134199285Y-85779261D01*
X134151666Y-85731642D01*
X142407880Y-83351666D02*
X141931690Y-83685000D01*
X142407880Y-83923095D02*
X141407880Y-83923095D01*
X141407880Y-83542142D01*
X141455500Y-83446904D01*
X141503119Y-83399285D01*
X141598357Y-83351666D01*
X141741214Y-83351666D01*
X141836452Y-83399285D01*
X141884071Y-83446904D01*
X141931690Y-83542142D01*
X141931690Y-83923095D01*
X142407880Y-82399285D02*
X142407880Y-82970714D01*
X142407880Y-82685000D02*
X141407880Y-82685000D01*
X141550738Y-82780238D01*
X141645976Y-82875476D01*
X141693595Y-82970714D01*
X128286119Y-86455238D02*
X128238500Y-86550476D01*
X128143261Y-86645714D01*
X128000404Y-86788571D01*
X127952785Y-86883809D01*
X127952785Y-86979047D01*
X128190880Y-86931428D02*
X128143261Y-87026666D01*
X128048023Y-87121904D01*
X127857547Y-87169523D01*
X127524214Y-87169523D01*
X127333738Y-87121904D01*
X127238500Y-87026666D01*
X127190880Y-86931428D01*
X127190880Y-86740952D01*
X127238500Y-86645714D01*
X127333738Y-86550476D01*
X127524214Y-86502857D01*
X127857547Y-86502857D01*
X128048023Y-86550476D01*
X128143261Y-86645714D01*
X128190880Y-86740952D01*
X128190880Y-86931428D01*
X127524214Y-85645714D02*
X128190880Y-85645714D01*
X127143261Y-85883809D02*
X127857547Y-86121904D01*
X127857547Y-85502857D01*
X139223761Y-97893119D02*
X139128523Y-97845500D01*
X139033285Y-97750261D01*
X138890428Y-97607404D01*
X138795190Y-97559785D01*
X138699952Y-97559785D01*
X138747571Y-97797880D02*
X138652333Y-97750261D01*
X138557095Y-97655023D01*
X138509476Y-97464547D01*
X138509476Y-97131214D01*
X138557095Y-96940738D01*
X138652333Y-96845500D01*
X138747571Y-96797880D01*
X138938047Y-96797880D01*
X139033285Y-96845500D01*
X139128523Y-96940738D01*
X139176142Y-97131214D01*
X139176142Y-97464547D01*
X139128523Y-97655023D01*
X139033285Y-97750261D01*
X138938047Y-97797880D01*
X138747571Y-97797880D01*
X139509476Y-96797880D02*
X140128523Y-96797880D01*
X139795190Y-97178833D01*
X139938047Y-97178833D01*
X140033285Y-97226452D01*
X140080904Y-97274071D01*
X140128523Y-97369309D01*
X140128523Y-97607404D01*
X140080904Y-97702642D01*
X140033285Y-97750261D01*
X139938047Y-97797880D01*
X139652333Y-97797880D01*
X139557095Y-97750261D01*
X139509476Y-97702642D01*
X144938761Y-89106619D02*
X144843523Y-89059000D01*
X144748285Y-88963761D01*
X144605428Y-88820904D01*
X144510190Y-88773285D01*
X144414952Y-88773285D01*
X144462571Y-89011380D02*
X144367333Y-88963761D01*
X144272095Y-88868523D01*
X144224476Y-88678047D01*
X144224476Y-88344714D01*
X144272095Y-88154238D01*
X144367333Y-88059000D01*
X144462571Y-88011380D01*
X144653047Y-88011380D01*
X144748285Y-88059000D01*
X144843523Y-88154238D01*
X144891142Y-88344714D01*
X144891142Y-88678047D01*
X144843523Y-88868523D01*
X144748285Y-88963761D01*
X144653047Y-89011380D01*
X144462571Y-89011380D01*
X145272095Y-88106619D02*
X145319714Y-88059000D01*
X145414952Y-88011380D01*
X145653047Y-88011380D01*
X145748285Y-88059000D01*
X145795904Y-88106619D01*
X145843523Y-88201857D01*
X145843523Y-88297095D01*
X145795904Y-88439952D01*
X145224476Y-89011380D01*
X145843523Y-89011380D01*
X145065761Y-83836119D02*
X144970523Y-83788500D01*
X144875285Y-83693261D01*
X144732428Y-83550404D01*
X144637190Y-83502785D01*
X144541952Y-83502785D01*
X144589571Y-83740880D02*
X144494333Y-83693261D01*
X144399095Y-83598023D01*
X144351476Y-83407547D01*
X144351476Y-83074214D01*
X144399095Y-82883738D01*
X144494333Y-82788500D01*
X144589571Y-82740880D01*
X144780047Y-82740880D01*
X144875285Y-82788500D01*
X144970523Y-82883738D01*
X145018142Y-83074214D01*
X145018142Y-83407547D01*
X144970523Y-83598023D01*
X144875285Y-83693261D01*
X144780047Y-83740880D01*
X144589571Y-83740880D01*
X145970523Y-83740880D02*
X145399095Y-83740880D01*
X145684809Y-83740880D02*
X145684809Y-82740880D01*
X145589571Y-82883738D01*
X145494333Y-82978976D01*
X145399095Y-83026595D01*
X149336166Y-79779880D02*
X149336166Y-80494166D01*
X149288547Y-80637023D01*
X149193309Y-80732261D01*
X149050452Y-80779880D01*
X148955214Y-80779880D01*
X149764738Y-79875119D02*
X149812357Y-79827500D01*
X149907595Y-79779880D01*
X150145690Y-79779880D01*
X150240928Y-79827500D01*
X150288547Y-79875119D01*
X150336166Y-79970357D01*
X150336166Y-80065595D01*
X150288547Y-80208452D01*
X149717119Y-80779880D01*
X150336166Y-80779880D01*
X149590166Y-92479880D02*
X149590166Y-93194166D01*
X149542547Y-93337023D01*
X149447309Y-93432261D01*
X149304452Y-93479880D01*
X149209214Y-93479880D01*
X150590166Y-93479880D02*
X150018738Y-93479880D01*
X150304452Y-93479880D02*
X150304452Y-92479880D01*
X150209214Y-92622738D01*
X150113976Y-92717976D01*
X150018738Y-92765595D01*
X147693166Y-97301071D02*
X147359833Y-97301071D01*
X147359833Y-97824880D02*
X147359833Y-96824880D01*
X147836023Y-96824880D01*
X148550309Y-97301071D02*
X148693166Y-97348690D01*
X148740785Y-97396309D01*
X148788404Y-97491547D01*
X148788404Y-97634404D01*
X148740785Y-97729642D01*
X148693166Y-97777261D01*
X148597928Y-97824880D01*
X148216976Y-97824880D01*
X148216976Y-96824880D01*
X148550309Y-96824880D01*
X148645547Y-96872500D01*
X148693166Y-96920119D01*
X148740785Y-97015357D01*
X148740785Y-97110595D01*
X148693166Y-97205833D01*
X148645547Y-97253452D01*
X148550309Y-97301071D01*
X148216976Y-97301071D01*
X149169357Y-96920119D02*
X149216976Y-96872500D01*
X149312214Y-96824880D01*
X149550309Y-96824880D01*
X149645547Y-96872500D01*
X149693166Y-96920119D01*
X149740785Y-97015357D01*
X149740785Y-97110595D01*
X149693166Y-97253452D01*
X149121738Y-97824880D01*
X149740785Y-97824880D01*
X150995166Y-88511071D02*
X150661833Y-88511071D01*
X150661833Y-89034880D02*
X150661833Y-88034880D01*
X151138023Y-88034880D01*
X151852309Y-88511071D02*
X151995166Y-88558690D01*
X152042785Y-88606309D01*
X152090404Y-88701547D01*
X152090404Y-88844404D01*
X152042785Y-88939642D01*
X151995166Y-88987261D01*
X151899928Y-89034880D01*
X151518976Y-89034880D01*
X151518976Y-88034880D01*
X151852309Y-88034880D01*
X151947547Y-88082500D01*
X151995166Y-88130119D01*
X152042785Y-88225357D01*
X152042785Y-88320595D01*
X151995166Y-88415833D01*
X151947547Y-88463452D01*
X151852309Y-88511071D01*
X151518976Y-88511071D01*
X153042785Y-89034880D02*
X152471357Y-89034880D01*
X152757071Y-89034880D02*
X152757071Y-88034880D01*
X152661833Y-88177738D01*
X152566595Y-88272976D01*
X152471357Y-88320595D01*
X134770904Y-80819880D02*
X134770904Y-79819880D01*
X135009000Y-79819880D01*
X135151857Y-79867500D01*
X135247095Y-79962738D01*
X135294714Y-80057976D01*
X135342333Y-80248452D01*
X135342333Y-80391309D01*
X135294714Y-80581785D01*
X135247095Y-80677023D01*
X135151857Y-80772261D01*
X135009000Y-80819880D01*
X134770904Y-80819880D01*
X135723285Y-79915119D02*
X135770904Y-79867500D01*
X135866142Y-79819880D01*
X136104238Y-79819880D01*
X136199476Y-79867500D01*
X136247095Y-79915119D01*
X136294714Y-80010357D01*
X136294714Y-80105595D01*
X136247095Y-80248452D01*
X135675666Y-80819880D01*
X136294714Y-80819880D01*
X133754833Y-90590642D02*
X133707214Y-90638261D01*
X133564357Y-90685880D01*
X133469119Y-90685880D01*
X133326261Y-90638261D01*
X133231023Y-90543023D01*
X133183404Y-90447785D01*
X133135785Y-90257309D01*
X133135785Y-90114452D01*
X133183404Y-89923976D01*
X133231023Y-89828738D01*
X133326261Y-89733500D01*
X133469119Y-89685880D01*
X133564357Y-89685880D01*
X133707214Y-89733500D01*
X133754833Y-89781119D01*
X134611976Y-90019214D02*
X134611976Y-90685880D01*
X134373880Y-89638261D02*
X134135785Y-90352547D01*
X134754833Y-90352547D01*
X150153642Y-88431666D02*
X150201261Y-88479285D01*
X150248880Y-88622142D01*
X150248880Y-88717380D01*
X150201261Y-88860238D01*
X150106023Y-88955476D01*
X150010785Y-89003095D01*
X149820309Y-89050714D01*
X149677452Y-89050714D01*
X149486976Y-89003095D01*
X149391738Y-88955476D01*
X149296500Y-88860238D01*
X149248880Y-88717380D01*
X149248880Y-88622142D01*
X149296500Y-88479285D01*
X149344119Y-88431666D01*
X150248880Y-87479285D02*
X150248880Y-88050714D01*
X150248880Y-87765000D02*
X149248880Y-87765000D01*
X149391738Y-87860238D01*
X149486976Y-87955476D01*
X149534595Y-88050714D01*
M02*
