G04 #@! TF.GenerationSoftware,KiCad,Pcbnew,5.1.2-f72e74a~84~ubuntu18.04.1*
G04 #@! TF.CreationDate,2019-12-19T12:51:00+00:00*
G04 #@! TF.ProjectId,mbus_guru,6d627573-5f67-4757-9275-2e6b69636164,rev?*
G04 #@! TF.SameCoordinates,Original*
G04 #@! TF.FileFunction,Copper,L1,Top*
G04 #@! TF.FilePolarity,Positive*
%FSLAX46Y46*%
G04 Gerber Fmt 4.6, Leading zero omitted, Abs format (unit mm)*
G04 Created by KiCad (PCBNEW 5.1.2-f72e74a~84~ubuntu18.04.1) date 2019-12-19 12:51:00*
%MOMM*%
%LPD*%
G04 APERTURE LIST*
%ADD10C,0.500000*%
%ADD11C,0.100000*%
%ADD12C,0.875000*%
%ADD13R,1.800000X3.400000*%
%ADD14R,1.060000X0.650000*%
%ADD15O,1.700000X1.700000*%
%ADD16R,1.700000X1.700000*%
%ADD17R,3.400000X1.800000*%
%ADD18R,1.450000X0.450000*%
%ADD19R,0.900000X0.800000*%
%ADD20R,0.800000X0.900000*%
%ADD21C,0.590000*%
%ADD22C,0.800000*%
%ADD23C,0.500000*%
%ADD24C,0.400000*%
G04 APERTURE END LIST*
D10*
X142430500Y-80835500D03*
X152844500Y-88074500D03*
X146367500Y-80835500D03*
D11*
G36*
X142327191Y-92172053D02*
G01*
X142348426Y-92175203D01*
X142369250Y-92180419D01*
X142389462Y-92187651D01*
X142408868Y-92196830D01*
X142427281Y-92207866D01*
X142444524Y-92220654D01*
X142460430Y-92235070D01*
X142474846Y-92250976D01*
X142487634Y-92268219D01*
X142498670Y-92286632D01*
X142507849Y-92306038D01*
X142515081Y-92326250D01*
X142520297Y-92347074D01*
X142523447Y-92368309D01*
X142524500Y-92389750D01*
X142524500Y-92827250D01*
X142523447Y-92848691D01*
X142520297Y-92869926D01*
X142515081Y-92890750D01*
X142507849Y-92910962D01*
X142498670Y-92930368D01*
X142487634Y-92948781D01*
X142474846Y-92966024D01*
X142460430Y-92981930D01*
X142444524Y-92996346D01*
X142427281Y-93009134D01*
X142408868Y-93020170D01*
X142389462Y-93029349D01*
X142369250Y-93036581D01*
X142348426Y-93041797D01*
X142327191Y-93044947D01*
X142305750Y-93046000D01*
X141793250Y-93046000D01*
X141771809Y-93044947D01*
X141750574Y-93041797D01*
X141729750Y-93036581D01*
X141709538Y-93029349D01*
X141690132Y-93020170D01*
X141671719Y-93009134D01*
X141654476Y-92996346D01*
X141638570Y-92981930D01*
X141624154Y-92966024D01*
X141611366Y-92948781D01*
X141600330Y-92930368D01*
X141591151Y-92910962D01*
X141583919Y-92890750D01*
X141578703Y-92869926D01*
X141575553Y-92848691D01*
X141574500Y-92827250D01*
X141574500Y-92389750D01*
X141575553Y-92368309D01*
X141578703Y-92347074D01*
X141583919Y-92326250D01*
X141591151Y-92306038D01*
X141600330Y-92286632D01*
X141611366Y-92268219D01*
X141624154Y-92250976D01*
X141638570Y-92235070D01*
X141654476Y-92220654D01*
X141671719Y-92207866D01*
X141690132Y-92196830D01*
X141709538Y-92187651D01*
X141729750Y-92180419D01*
X141750574Y-92175203D01*
X141771809Y-92172053D01*
X141793250Y-92171000D01*
X142305750Y-92171000D01*
X142327191Y-92172053D01*
X142327191Y-92172053D01*
G37*
D12*
X142049500Y-92608500D03*
D11*
G36*
X142327191Y-90597053D02*
G01*
X142348426Y-90600203D01*
X142369250Y-90605419D01*
X142389462Y-90612651D01*
X142408868Y-90621830D01*
X142427281Y-90632866D01*
X142444524Y-90645654D01*
X142460430Y-90660070D01*
X142474846Y-90675976D01*
X142487634Y-90693219D01*
X142498670Y-90711632D01*
X142507849Y-90731038D01*
X142515081Y-90751250D01*
X142520297Y-90772074D01*
X142523447Y-90793309D01*
X142524500Y-90814750D01*
X142524500Y-91252250D01*
X142523447Y-91273691D01*
X142520297Y-91294926D01*
X142515081Y-91315750D01*
X142507849Y-91335962D01*
X142498670Y-91355368D01*
X142487634Y-91373781D01*
X142474846Y-91391024D01*
X142460430Y-91406930D01*
X142444524Y-91421346D01*
X142427281Y-91434134D01*
X142408868Y-91445170D01*
X142389462Y-91454349D01*
X142369250Y-91461581D01*
X142348426Y-91466797D01*
X142327191Y-91469947D01*
X142305750Y-91471000D01*
X141793250Y-91471000D01*
X141771809Y-91469947D01*
X141750574Y-91466797D01*
X141729750Y-91461581D01*
X141709538Y-91454349D01*
X141690132Y-91445170D01*
X141671719Y-91434134D01*
X141654476Y-91421346D01*
X141638570Y-91406930D01*
X141624154Y-91391024D01*
X141611366Y-91373781D01*
X141600330Y-91355368D01*
X141591151Y-91335962D01*
X141583919Y-91315750D01*
X141578703Y-91294926D01*
X141575553Y-91273691D01*
X141574500Y-91252250D01*
X141574500Y-90814750D01*
X141575553Y-90793309D01*
X141578703Y-90772074D01*
X141583919Y-90751250D01*
X141591151Y-90731038D01*
X141600330Y-90711632D01*
X141611366Y-90693219D01*
X141624154Y-90675976D01*
X141638570Y-90660070D01*
X141654476Y-90645654D01*
X141671719Y-90632866D01*
X141690132Y-90621830D01*
X141709538Y-90612651D01*
X141729750Y-90605419D01*
X141750574Y-90600203D01*
X141771809Y-90597053D01*
X141793250Y-90596000D01*
X142305750Y-90596000D01*
X142327191Y-90597053D01*
X142327191Y-90597053D01*
G37*
D12*
X142049500Y-91033500D03*
D11*
G36*
X132611691Y-93251553D02*
G01*
X132632926Y-93254703D01*
X132653750Y-93259919D01*
X132673962Y-93267151D01*
X132693368Y-93276330D01*
X132711781Y-93287366D01*
X132729024Y-93300154D01*
X132744930Y-93314570D01*
X132759346Y-93330476D01*
X132772134Y-93347719D01*
X132783170Y-93366132D01*
X132792349Y-93385538D01*
X132799581Y-93405750D01*
X132804797Y-93426574D01*
X132807947Y-93447809D01*
X132809000Y-93469250D01*
X132809000Y-93906750D01*
X132807947Y-93928191D01*
X132804797Y-93949426D01*
X132799581Y-93970250D01*
X132792349Y-93990462D01*
X132783170Y-94009868D01*
X132772134Y-94028281D01*
X132759346Y-94045524D01*
X132744930Y-94061430D01*
X132729024Y-94075846D01*
X132711781Y-94088634D01*
X132693368Y-94099670D01*
X132673962Y-94108849D01*
X132653750Y-94116081D01*
X132632926Y-94121297D01*
X132611691Y-94124447D01*
X132590250Y-94125500D01*
X132077750Y-94125500D01*
X132056309Y-94124447D01*
X132035074Y-94121297D01*
X132014250Y-94116081D01*
X131994038Y-94108849D01*
X131974632Y-94099670D01*
X131956219Y-94088634D01*
X131938976Y-94075846D01*
X131923070Y-94061430D01*
X131908654Y-94045524D01*
X131895866Y-94028281D01*
X131884830Y-94009868D01*
X131875651Y-93990462D01*
X131868419Y-93970250D01*
X131863203Y-93949426D01*
X131860053Y-93928191D01*
X131859000Y-93906750D01*
X131859000Y-93469250D01*
X131860053Y-93447809D01*
X131863203Y-93426574D01*
X131868419Y-93405750D01*
X131875651Y-93385538D01*
X131884830Y-93366132D01*
X131895866Y-93347719D01*
X131908654Y-93330476D01*
X131923070Y-93314570D01*
X131938976Y-93300154D01*
X131956219Y-93287366D01*
X131974632Y-93276330D01*
X131994038Y-93267151D01*
X132014250Y-93259919D01*
X132035074Y-93254703D01*
X132056309Y-93251553D01*
X132077750Y-93250500D01*
X132590250Y-93250500D01*
X132611691Y-93251553D01*
X132611691Y-93251553D01*
G37*
D12*
X132334000Y-93688000D03*
D11*
G36*
X132611691Y-91676553D02*
G01*
X132632926Y-91679703D01*
X132653750Y-91684919D01*
X132673962Y-91692151D01*
X132693368Y-91701330D01*
X132711781Y-91712366D01*
X132729024Y-91725154D01*
X132744930Y-91739570D01*
X132759346Y-91755476D01*
X132772134Y-91772719D01*
X132783170Y-91791132D01*
X132792349Y-91810538D01*
X132799581Y-91830750D01*
X132804797Y-91851574D01*
X132807947Y-91872809D01*
X132809000Y-91894250D01*
X132809000Y-92331750D01*
X132807947Y-92353191D01*
X132804797Y-92374426D01*
X132799581Y-92395250D01*
X132792349Y-92415462D01*
X132783170Y-92434868D01*
X132772134Y-92453281D01*
X132759346Y-92470524D01*
X132744930Y-92486430D01*
X132729024Y-92500846D01*
X132711781Y-92513634D01*
X132693368Y-92524670D01*
X132673962Y-92533849D01*
X132653750Y-92541081D01*
X132632926Y-92546297D01*
X132611691Y-92549447D01*
X132590250Y-92550500D01*
X132077750Y-92550500D01*
X132056309Y-92549447D01*
X132035074Y-92546297D01*
X132014250Y-92541081D01*
X131994038Y-92533849D01*
X131974632Y-92524670D01*
X131956219Y-92513634D01*
X131938976Y-92500846D01*
X131923070Y-92486430D01*
X131908654Y-92470524D01*
X131895866Y-92453281D01*
X131884830Y-92434868D01*
X131875651Y-92415462D01*
X131868419Y-92395250D01*
X131863203Y-92374426D01*
X131860053Y-92353191D01*
X131859000Y-92331750D01*
X131859000Y-91894250D01*
X131860053Y-91872809D01*
X131863203Y-91851574D01*
X131868419Y-91830750D01*
X131875651Y-91810538D01*
X131884830Y-91791132D01*
X131895866Y-91772719D01*
X131908654Y-91755476D01*
X131923070Y-91739570D01*
X131938976Y-91725154D01*
X131956219Y-91712366D01*
X131974632Y-91701330D01*
X131994038Y-91692151D01*
X132014250Y-91684919D01*
X132035074Y-91679703D01*
X132056309Y-91676553D01*
X132077750Y-91675500D01*
X132590250Y-91675500D01*
X132611691Y-91676553D01*
X132611691Y-91676553D01*
G37*
D12*
X132334000Y-92113000D03*
D11*
G36*
X144855191Y-98649553D02*
G01*
X144876426Y-98652703D01*
X144897250Y-98657919D01*
X144917462Y-98665151D01*
X144936868Y-98674330D01*
X144955281Y-98685366D01*
X144972524Y-98698154D01*
X144988430Y-98712570D01*
X145002846Y-98728476D01*
X145015634Y-98745719D01*
X145026670Y-98764132D01*
X145035849Y-98783538D01*
X145043081Y-98803750D01*
X145048297Y-98824574D01*
X145051447Y-98845809D01*
X145052500Y-98867250D01*
X145052500Y-99379750D01*
X145051447Y-99401191D01*
X145048297Y-99422426D01*
X145043081Y-99443250D01*
X145035849Y-99463462D01*
X145026670Y-99482868D01*
X145015634Y-99501281D01*
X145002846Y-99518524D01*
X144988430Y-99534430D01*
X144972524Y-99548846D01*
X144955281Y-99561634D01*
X144936868Y-99572670D01*
X144917462Y-99581849D01*
X144897250Y-99589081D01*
X144876426Y-99594297D01*
X144855191Y-99597447D01*
X144833750Y-99598500D01*
X144396250Y-99598500D01*
X144374809Y-99597447D01*
X144353574Y-99594297D01*
X144332750Y-99589081D01*
X144312538Y-99581849D01*
X144293132Y-99572670D01*
X144274719Y-99561634D01*
X144257476Y-99548846D01*
X144241570Y-99534430D01*
X144227154Y-99518524D01*
X144214366Y-99501281D01*
X144203330Y-99482868D01*
X144194151Y-99463462D01*
X144186919Y-99443250D01*
X144181703Y-99422426D01*
X144178553Y-99401191D01*
X144177500Y-99379750D01*
X144177500Y-98867250D01*
X144178553Y-98845809D01*
X144181703Y-98824574D01*
X144186919Y-98803750D01*
X144194151Y-98783538D01*
X144203330Y-98764132D01*
X144214366Y-98745719D01*
X144227154Y-98728476D01*
X144241570Y-98712570D01*
X144257476Y-98698154D01*
X144274719Y-98685366D01*
X144293132Y-98674330D01*
X144312538Y-98665151D01*
X144332750Y-98657919D01*
X144353574Y-98652703D01*
X144374809Y-98649553D01*
X144396250Y-98648500D01*
X144833750Y-98648500D01*
X144855191Y-98649553D01*
X144855191Y-98649553D01*
G37*
D12*
X144615000Y-99123500D03*
D11*
G36*
X143280191Y-98649553D02*
G01*
X143301426Y-98652703D01*
X143322250Y-98657919D01*
X143342462Y-98665151D01*
X143361868Y-98674330D01*
X143380281Y-98685366D01*
X143397524Y-98698154D01*
X143413430Y-98712570D01*
X143427846Y-98728476D01*
X143440634Y-98745719D01*
X143451670Y-98764132D01*
X143460849Y-98783538D01*
X143468081Y-98803750D01*
X143473297Y-98824574D01*
X143476447Y-98845809D01*
X143477500Y-98867250D01*
X143477500Y-99379750D01*
X143476447Y-99401191D01*
X143473297Y-99422426D01*
X143468081Y-99443250D01*
X143460849Y-99463462D01*
X143451670Y-99482868D01*
X143440634Y-99501281D01*
X143427846Y-99518524D01*
X143413430Y-99534430D01*
X143397524Y-99548846D01*
X143380281Y-99561634D01*
X143361868Y-99572670D01*
X143342462Y-99581849D01*
X143322250Y-99589081D01*
X143301426Y-99594297D01*
X143280191Y-99597447D01*
X143258750Y-99598500D01*
X142821250Y-99598500D01*
X142799809Y-99597447D01*
X142778574Y-99594297D01*
X142757750Y-99589081D01*
X142737538Y-99581849D01*
X142718132Y-99572670D01*
X142699719Y-99561634D01*
X142682476Y-99548846D01*
X142666570Y-99534430D01*
X142652154Y-99518524D01*
X142639366Y-99501281D01*
X142628330Y-99482868D01*
X142619151Y-99463462D01*
X142611919Y-99443250D01*
X142606703Y-99422426D01*
X142603553Y-99401191D01*
X142602500Y-99379750D01*
X142602500Y-98867250D01*
X142603553Y-98845809D01*
X142606703Y-98824574D01*
X142611919Y-98803750D01*
X142619151Y-98783538D01*
X142628330Y-98764132D01*
X142639366Y-98745719D01*
X142652154Y-98728476D01*
X142666570Y-98712570D01*
X142682476Y-98698154D01*
X142699719Y-98685366D01*
X142718132Y-98674330D01*
X142737538Y-98665151D01*
X142757750Y-98657919D01*
X142778574Y-98652703D01*
X142799809Y-98649553D01*
X142821250Y-98648500D01*
X143258750Y-98648500D01*
X143280191Y-98649553D01*
X143280191Y-98649553D01*
G37*
D12*
X143040000Y-99123500D03*
D11*
G36*
X136676191Y-85505053D02*
G01*
X136697426Y-85508203D01*
X136718250Y-85513419D01*
X136738462Y-85520651D01*
X136757868Y-85529830D01*
X136776281Y-85540866D01*
X136793524Y-85553654D01*
X136809430Y-85568070D01*
X136823846Y-85583976D01*
X136836634Y-85601219D01*
X136847670Y-85619632D01*
X136856849Y-85639038D01*
X136864081Y-85659250D01*
X136869297Y-85680074D01*
X136872447Y-85701309D01*
X136873500Y-85722750D01*
X136873500Y-86235250D01*
X136872447Y-86256691D01*
X136869297Y-86277926D01*
X136864081Y-86298750D01*
X136856849Y-86318962D01*
X136847670Y-86338368D01*
X136836634Y-86356781D01*
X136823846Y-86374024D01*
X136809430Y-86389930D01*
X136793524Y-86404346D01*
X136776281Y-86417134D01*
X136757868Y-86428170D01*
X136738462Y-86437349D01*
X136718250Y-86444581D01*
X136697426Y-86449797D01*
X136676191Y-86452947D01*
X136654750Y-86454000D01*
X136217250Y-86454000D01*
X136195809Y-86452947D01*
X136174574Y-86449797D01*
X136153750Y-86444581D01*
X136133538Y-86437349D01*
X136114132Y-86428170D01*
X136095719Y-86417134D01*
X136078476Y-86404346D01*
X136062570Y-86389930D01*
X136048154Y-86374024D01*
X136035366Y-86356781D01*
X136024330Y-86338368D01*
X136015151Y-86318962D01*
X136007919Y-86298750D01*
X136002703Y-86277926D01*
X135999553Y-86256691D01*
X135998500Y-86235250D01*
X135998500Y-85722750D01*
X135999553Y-85701309D01*
X136002703Y-85680074D01*
X136007919Y-85659250D01*
X136015151Y-85639038D01*
X136024330Y-85619632D01*
X136035366Y-85601219D01*
X136048154Y-85583976D01*
X136062570Y-85568070D01*
X136078476Y-85553654D01*
X136095719Y-85540866D01*
X136114132Y-85529830D01*
X136133538Y-85520651D01*
X136153750Y-85513419D01*
X136174574Y-85508203D01*
X136195809Y-85505053D01*
X136217250Y-85504000D01*
X136654750Y-85504000D01*
X136676191Y-85505053D01*
X136676191Y-85505053D01*
G37*
D12*
X136436000Y-85979000D03*
D11*
G36*
X138251191Y-85505053D02*
G01*
X138272426Y-85508203D01*
X138293250Y-85513419D01*
X138313462Y-85520651D01*
X138332868Y-85529830D01*
X138351281Y-85540866D01*
X138368524Y-85553654D01*
X138384430Y-85568070D01*
X138398846Y-85583976D01*
X138411634Y-85601219D01*
X138422670Y-85619632D01*
X138431849Y-85639038D01*
X138439081Y-85659250D01*
X138444297Y-85680074D01*
X138447447Y-85701309D01*
X138448500Y-85722750D01*
X138448500Y-86235250D01*
X138447447Y-86256691D01*
X138444297Y-86277926D01*
X138439081Y-86298750D01*
X138431849Y-86318962D01*
X138422670Y-86338368D01*
X138411634Y-86356781D01*
X138398846Y-86374024D01*
X138384430Y-86389930D01*
X138368524Y-86404346D01*
X138351281Y-86417134D01*
X138332868Y-86428170D01*
X138313462Y-86437349D01*
X138293250Y-86444581D01*
X138272426Y-86449797D01*
X138251191Y-86452947D01*
X138229750Y-86454000D01*
X137792250Y-86454000D01*
X137770809Y-86452947D01*
X137749574Y-86449797D01*
X137728750Y-86444581D01*
X137708538Y-86437349D01*
X137689132Y-86428170D01*
X137670719Y-86417134D01*
X137653476Y-86404346D01*
X137637570Y-86389930D01*
X137623154Y-86374024D01*
X137610366Y-86356781D01*
X137599330Y-86338368D01*
X137590151Y-86318962D01*
X137582919Y-86298750D01*
X137577703Y-86277926D01*
X137574553Y-86256691D01*
X137573500Y-86235250D01*
X137573500Y-85722750D01*
X137574553Y-85701309D01*
X137577703Y-85680074D01*
X137582919Y-85659250D01*
X137590151Y-85639038D01*
X137599330Y-85619632D01*
X137610366Y-85601219D01*
X137623154Y-85583976D01*
X137637570Y-85568070D01*
X137653476Y-85553654D01*
X137670719Y-85540866D01*
X137689132Y-85529830D01*
X137708538Y-85520651D01*
X137728750Y-85513419D01*
X137749574Y-85508203D01*
X137770809Y-85505053D01*
X137792250Y-85504000D01*
X138229750Y-85504000D01*
X138251191Y-85505053D01*
X138251191Y-85505053D01*
G37*
D12*
X138011000Y-85979000D03*
D11*
G36*
X124420191Y-98852053D02*
G01*
X124441426Y-98855203D01*
X124462250Y-98860419D01*
X124482462Y-98867651D01*
X124501868Y-98876830D01*
X124520281Y-98887866D01*
X124537524Y-98900654D01*
X124553430Y-98915070D01*
X124567846Y-98930976D01*
X124580634Y-98948219D01*
X124591670Y-98966632D01*
X124600849Y-98986038D01*
X124608081Y-99006250D01*
X124613297Y-99027074D01*
X124616447Y-99048309D01*
X124617500Y-99069750D01*
X124617500Y-99507250D01*
X124616447Y-99528691D01*
X124613297Y-99549926D01*
X124608081Y-99570750D01*
X124600849Y-99590962D01*
X124591670Y-99610368D01*
X124580634Y-99628781D01*
X124567846Y-99646024D01*
X124553430Y-99661930D01*
X124537524Y-99676346D01*
X124520281Y-99689134D01*
X124501868Y-99700170D01*
X124482462Y-99709349D01*
X124462250Y-99716581D01*
X124441426Y-99721797D01*
X124420191Y-99724947D01*
X124398750Y-99726000D01*
X123886250Y-99726000D01*
X123864809Y-99724947D01*
X123843574Y-99721797D01*
X123822750Y-99716581D01*
X123802538Y-99709349D01*
X123783132Y-99700170D01*
X123764719Y-99689134D01*
X123747476Y-99676346D01*
X123731570Y-99661930D01*
X123717154Y-99646024D01*
X123704366Y-99628781D01*
X123693330Y-99610368D01*
X123684151Y-99590962D01*
X123676919Y-99570750D01*
X123671703Y-99549926D01*
X123668553Y-99528691D01*
X123667500Y-99507250D01*
X123667500Y-99069750D01*
X123668553Y-99048309D01*
X123671703Y-99027074D01*
X123676919Y-99006250D01*
X123684151Y-98986038D01*
X123693330Y-98966632D01*
X123704366Y-98948219D01*
X123717154Y-98930976D01*
X123731570Y-98915070D01*
X123747476Y-98900654D01*
X123764719Y-98887866D01*
X123783132Y-98876830D01*
X123802538Y-98867651D01*
X123822750Y-98860419D01*
X123843574Y-98855203D01*
X123864809Y-98852053D01*
X123886250Y-98851000D01*
X124398750Y-98851000D01*
X124420191Y-98852053D01*
X124420191Y-98852053D01*
G37*
D12*
X124142500Y-99288500D03*
D11*
G36*
X124420191Y-100427053D02*
G01*
X124441426Y-100430203D01*
X124462250Y-100435419D01*
X124482462Y-100442651D01*
X124501868Y-100451830D01*
X124520281Y-100462866D01*
X124537524Y-100475654D01*
X124553430Y-100490070D01*
X124567846Y-100505976D01*
X124580634Y-100523219D01*
X124591670Y-100541632D01*
X124600849Y-100561038D01*
X124608081Y-100581250D01*
X124613297Y-100602074D01*
X124616447Y-100623309D01*
X124617500Y-100644750D01*
X124617500Y-101082250D01*
X124616447Y-101103691D01*
X124613297Y-101124926D01*
X124608081Y-101145750D01*
X124600849Y-101165962D01*
X124591670Y-101185368D01*
X124580634Y-101203781D01*
X124567846Y-101221024D01*
X124553430Y-101236930D01*
X124537524Y-101251346D01*
X124520281Y-101264134D01*
X124501868Y-101275170D01*
X124482462Y-101284349D01*
X124462250Y-101291581D01*
X124441426Y-101296797D01*
X124420191Y-101299947D01*
X124398750Y-101301000D01*
X123886250Y-101301000D01*
X123864809Y-101299947D01*
X123843574Y-101296797D01*
X123822750Y-101291581D01*
X123802538Y-101284349D01*
X123783132Y-101275170D01*
X123764719Y-101264134D01*
X123747476Y-101251346D01*
X123731570Y-101236930D01*
X123717154Y-101221024D01*
X123704366Y-101203781D01*
X123693330Y-101185368D01*
X123684151Y-101165962D01*
X123676919Y-101145750D01*
X123671703Y-101124926D01*
X123668553Y-101103691D01*
X123667500Y-101082250D01*
X123667500Y-100644750D01*
X123668553Y-100623309D01*
X123671703Y-100602074D01*
X123676919Y-100581250D01*
X123684151Y-100561038D01*
X123693330Y-100541632D01*
X123704366Y-100523219D01*
X123717154Y-100505976D01*
X123731570Y-100490070D01*
X123747476Y-100475654D01*
X123764719Y-100462866D01*
X123783132Y-100451830D01*
X123802538Y-100442651D01*
X123822750Y-100435419D01*
X123843574Y-100430203D01*
X123864809Y-100427053D01*
X123886250Y-100426000D01*
X124398750Y-100426000D01*
X124420191Y-100427053D01*
X124420191Y-100427053D01*
G37*
D12*
X124142500Y-100863500D03*
D11*
G36*
X126249691Y-91537553D02*
G01*
X126270926Y-91540703D01*
X126291750Y-91545919D01*
X126311962Y-91553151D01*
X126331368Y-91562330D01*
X126349781Y-91573366D01*
X126367024Y-91586154D01*
X126382930Y-91600570D01*
X126397346Y-91616476D01*
X126410134Y-91633719D01*
X126421170Y-91652132D01*
X126430349Y-91671538D01*
X126437581Y-91691750D01*
X126442797Y-91712574D01*
X126445947Y-91733809D01*
X126447000Y-91755250D01*
X126447000Y-92267750D01*
X126445947Y-92289191D01*
X126442797Y-92310426D01*
X126437581Y-92331250D01*
X126430349Y-92351462D01*
X126421170Y-92370868D01*
X126410134Y-92389281D01*
X126397346Y-92406524D01*
X126382930Y-92422430D01*
X126367024Y-92436846D01*
X126349781Y-92449634D01*
X126331368Y-92460670D01*
X126311962Y-92469849D01*
X126291750Y-92477081D01*
X126270926Y-92482297D01*
X126249691Y-92485447D01*
X126228250Y-92486500D01*
X125790750Y-92486500D01*
X125769309Y-92485447D01*
X125748074Y-92482297D01*
X125727250Y-92477081D01*
X125707038Y-92469849D01*
X125687632Y-92460670D01*
X125669219Y-92449634D01*
X125651976Y-92436846D01*
X125636070Y-92422430D01*
X125621654Y-92406524D01*
X125608866Y-92389281D01*
X125597830Y-92370868D01*
X125588651Y-92351462D01*
X125581419Y-92331250D01*
X125576203Y-92310426D01*
X125573053Y-92289191D01*
X125572000Y-92267750D01*
X125572000Y-91755250D01*
X125573053Y-91733809D01*
X125576203Y-91712574D01*
X125581419Y-91691750D01*
X125588651Y-91671538D01*
X125597830Y-91652132D01*
X125608866Y-91633719D01*
X125621654Y-91616476D01*
X125636070Y-91600570D01*
X125651976Y-91586154D01*
X125669219Y-91573366D01*
X125687632Y-91562330D01*
X125707038Y-91553151D01*
X125727250Y-91545919D01*
X125748074Y-91540703D01*
X125769309Y-91537553D01*
X125790750Y-91536500D01*
X126228250Y-91536500D01*
X126249691Y-91537553D01*
X126249691Y-91537553D01*
G37*
D12*
X126009500Y-92011500D03*
D11*
G36*
X124674691Y-91537553D02*
G01*
X124695926Y-91540703D01*
X124716750Y-91545919D01*
X124736962Y-91553151D01*
X124756368Y-91562330D01*
X124774781Y-91573366D01*
X124792024Y-91586154D01*
X124807930Y-91600570D01*
X124822346Y-91616476D01*
X124835134Y-91633719D01*
X124846170Y-91652132D01*
X124855349Y-91671538D01*
X124862581Y-91691750D01*
X124867797Y-91712574D01*
X124870947Y-91733809D01*
X124872000Y-91755250D01*
X124872000Y-92267750D01*
X124870947Y-92289191D01*
X124867797Y-92310426D01*
X124862581Y-92331250D01*
X124855349Y-92351462D01*
X124846170Y-92370868D01*
X124835134Y-92389281D01*
X124822346Y-92406524D01*
X124807930Y-92422430D01*
X124792024Y-92436846D01*
X124774781Y-92449634D01*
X124756368Y-92460670D01*
X124736962Y-92469849D01*
X124716750Y-92477081D01*
X124695926Y-92482297D01*
X124674691Y-92485447D01*
X124653250Y-92486500D01*
X124215750Y-92486500D01*
X124194309Y-92485447D01*
X124173074Y-92482297D01*
X124152250Y-92477081D01*
X124132038Y-92469849D01*
X124112632Y-92460670D01*
X124094219Y-92449634D01*
X124076976Y-92436846D01*
X124061070Y-92422430D01*
X124046654Y-92406524D01*
X124033866Y-92389281D01*
X124022830Y-92370868D01*
X124013651Y-92351462D01*
X124006419Y-92331250D01*
X124001203Y-92310426D01*
X123998053Y-92289191D01*
X123997000Y-92267750D01*
X123997000Y-91755250D01*
X123998053Y-91733809D01*
X124001203Y-91712574D01*
X124006419Y-91691750D01*
X124013651Y-91671538D01*
X124022830Y-91652132D01*
X124033866Y-91633719D01*
X124046654Y-91616476D01*
X124061070Y-91600570D01*
X124076976Y-91586154D01*
X124094219Y-91573366D01*
X124112632Y-91562330D01*
X124132038Y-91553151D01*
X124152250Y-91545919D01*
X124173074Y-91540703D01*
X124194309Y-91537553D01*
X124215750Y-91536500D01*
X124653250Y-91536500D01*
X124674691Y-91537553D01*
X124674691Y-91537553D01*
G37*
D12*
X124434500Y-92011500D03*
D13*
X147193000Y-99758500D03*
D14*
X141308000Y-99253000D03*
X141308000Y-101153000D03*
X139108000Y-101153000D03*
X139108000Y-100203000D03*
X139108000Y-99253000D03*
D11*
G36*
X151014691Y-86521053D02*
G01*
X151035926Y-86524203D01*
X151056750Y-86529419D01*
X151076962Y-86536651D01*
X151096368Y-86545830D01*
X151114781Y-86556866D01*
X151132024Y-86569654D01*
X151147930Y-86584070D01*
X151162346Y-86599976D01*
X151175134Y-86617219D01*
X151186170Y-86635632D01*
X151195349Y-86655038D01*
X151202581Y-86675250D01*
X151207797Y-86696074D01*
X151210947Y-86717309D01*
X151212000Y-86738750D01*
X151212000Y-87251250D01*
X151210947Y-87272691D01*
X151207797Y-87293926D01*
X151202581Y-87314750D01*
X151195349Y-87334962D01*
X151186170Y-87354368D01*
X151175134Y-87372781D01*
X151162346Y-87390024D01*
X151147930Y-87405930D01*
X151132024Y-87420346D01*
X151114781Y-87433134D01*
X151096368Y-87444170D01*
X151076962Y-87453349D01*
X151056750Y-87460581D01*
X151035926Y-87465797D01*
X151014691Y-87468947D01*
X150993250Y-87470000D01*
X150555750Y-87470000D01*
X150534309Y-87468947D01*
X150513074Y-87465797D01*
X150492250Y-87460581D01*
X150472038Y-87453349D01*
X150452632Y-87444170D01*
X150434219Y-87433134D01*
X150416976Y-87420346D01*
X150401070Y-87405930D01*
X150386654Y-87390024D01*
X150373866Y-87372781D01*
X150362830Y-87354368D01*
X150353651Y-87334962D01*
X150346419Y-87314750D01*
X150341203Y-87293926D01*
X150338053Y-87272691D01*
X150337000Y-87251250D01*
X150337000Y-86738750D01*
X150338053Y-86717309D01*
X150341203Y-86696074D01*
X150346419Y-86675250D01*
X150353651Y-86655038D01*
X150362830Y-86635632D01*
X150373866Y-86617219D01*
X150386654Y-86599976D01*
X150401070Y-86584070D01*
X150416976Y-86569654D01*
X150434219Y-86556866D01*
X150452632Y-86545830D01*
X150472038Y-86536651D01*
X150492250Y-86529419D01*
X150513074Y-86524203D01*
X150534309Y-86521053D01*
X150555750Y-86520000D01*
X150993250Y-86520000D01*
X151014691Y-86521053D01*
X151014691Y-86521053D01*
G37*
D12*
X150774500Y-86995000D03*
D11*
G36*
X149439691Y-86521053D02*
G01*
X149460926Y-86524203D01*
X149481750Y-86529419D01*
X149501962Y-86536651D01*
X149521368Y-86545830D01*
X149539781Y-86556866D01*
X149557024Y-86569654D01*
X149572930Y-86584070D01*
X149587346Y-86599976D01*
X149600134Y-86617219D01*
X149611170Y-86635632D01*
X149620349Y-86655038D01*
X149627581Y-86675250D01*
X149632797Y-86696074D01*
X149635947Y-86717309D01*
X149637000Y-86738750D01*
X149637000Y-87251250D01*
X149635947Y-87272691D01*
X149632797Y-87293926D01*
X149627581Y-87314750D01*
X149620349Y-87334962D01*
X149611170Y-87354368D01*
X149600134Y-87372781D01*
X149587346Y-87390024D01*
X149572930Y-87405930D01*
X149557024Y-87420346D01*
X149539781Y-87433134D01*
X149521368Y-87444170D01*
X149501962Y-87453349D01*
X149481750Y-87460581D01*
X149460926Y-87465797D01*
X149439691Y-87468947D01*
X149418250Y-87470000D01*
X148980750Y-87470000D01*
X148959309Y-87468947D01*
X148938074Y-87465797D01*
X148917250Y-87460581D01*
X148897038Y-87453349D01*
X148877632Y-87444170D01*
X148859219Y-87433134D01*
X148841976Y-87420346D01*
X148826070Y-87405930D01*
X148811654Y-87390024D01*
X148798866Y-87372781D01*
X148787830Y-87354368D01*
X148778651Y-87334962D01*
X148771419Y-87314750D01*
X148766203Y-87293926D01*
X148763053Y-87272691D01*
X148762000Y-87251250D01*
X148762000Y-86738750D01*
X148763053Y-86717309D01*
X148766203Y-86696074D01*
X148771419Y-86675250D01*
X148778651Y-86655038D01*
X148787830Y-86635632D01*
X148798866Y-86617219D01*
X148811654Y-86599976D01*
X148826070Y-86584070D01*
X148841976Y-86569654D01*
X148859219Y-86556866D01*
X148877632Y-86545830D01*
X148897038Y-86536651D01*
X148917250Y-86529419D01*
X148938074Y-86524203D01*
X148959309Y-86521053D01*
X148980750Y-86520000D01*
X149418250Y-86520000D01*
X149439691Y-86521053D01*
X149439691Y-86521053D01*
G37*
D12*
X149199500Y-86995000D03*
D11*
G36*
X149947191Y-83663053D02*
G01*
X149968426Y-83666203D01*
X149989250Y-83671419D01*
X150009462Y-83678651D01*
X150028868Y-83687830D01*
X150047281Y-83698866D01*
X150064524Y-83711654D01*
X150080430Y-83726070D01*
X150094846Y-83741976D01*
X150107634Y-83759219D01*
X150118670Y-83777632D01*
X150127849Y-83797038D01*
X150135081Y-83817250D01*
X150140297Y-83838074D01*
X150143447Y-83859309D01*
X150144500Y-83880750D01*
X150144500Y-84318250D01*
X150143447Y-84339691D01*
X150140297Y-84360926D01*
X150135081Y-84381750D01*
X150127849Y-84401962D01*
X150118670Y-84421368D01*
X150107634Y-84439781D01*
X150094846Y-84457024D01*
X150080430Y-84472930D01*
X150064524Y-84487346D01*
X150047281Y-84500134D01*
X150028868Y-84511170D01*
X150009462Y-84520349D01*
X149989250Y-84527581D01*
X149968426Y-84532797D01*
X149947191Y-84535947D01*
X149925750Y-84537000D01*
X149413250Y-84537000D01*
X149391809Y-84535947D01*
X149370574Y-84532797D01*
X149349750Y-84527581D01*
X149329538Y-84520349D01*
X149310132Y-84511170D01*
X149291719Y-84500134D01*
X149274476Y-84487346D01*
X149258570Y-84472930D01*
X149244154Y-84457024D01*
X149231366Y-84439781D01*
X149220330Y-84421368D01*
X149211151Y-84401962D01*
X149203919Y-84381750D01*
X149198703Y-84360926D01*
X149195553Y-84339691D01*
X149194500Y-84318250D01*
X149194500Y-83880750D01*
X149195553Y-83859309D01*
X149198703Y-83838074D01*
X149203919Y-83817250D01*
X149211151Y-83797038D01*
X149220330Y-83777632D01*
X149231366Y-83759219D01*
X149244154Y-83741976D01*
X149258570Y-83726070D01*
X149274476Y-83711654D01*
X149291719Y-83698866D01*
X149310132Y-83687830D01*
X149329538Y-83678651D01*
X149349750Y-83671419D01*
X149370574Y-83666203D01*
X149391809Y-83663053D01*
X149413250Y-83662000D01*
X149925750Y-83662000D01*
X149947191Y-83663053D01*
X149947191Y-83663053D01*
G37*
D12*
X149669500Y-84099500D03*
D11*
G36*
X149947191Y-82088053D02*
G01*
X149968426Y-82091203D01*
X149989250Y-82096419D01*
X150009462Y-82103651D01*
X150028868Y-82112830D01*
X150047281Y-82123866D01*
X150064524Y-82136654D01*
X150080430Y-82151070D01*
X150094846Y-82166976D01*
X150107634Y-82184219D01*
X150118670Y-82202632D01*
X150127849Y-82222038D01*
X150135081Y-82242250D01*
X150140297Y-82263074D01*
X150143447Y-82284309D01*
X150144500Y-82305750D01*
X150144500Y-82743250D01*
X150143447Y-82764691D01*
X150140297Y-82785926D01*
X150135081Y-82806750D01*
X150127849Y-82826962D01*
X150118670Y-82846368D01*
X150107634Y-82864781D01*
X150094846Y-82882024D01*
X150080430Y-82897930D01*
X150064524Y-82912346D01*
X150047281Y-82925134D01*
X150028868Y-82936170D01*
X150009462Y-82945349D01*
X149989250Y-82952581D01*
X149968426Y-82957797D01*
X149947191Y-82960947D01*
X149925750Y-82962000D01*
X149413250Y-82962000D01*
X149391809Y-82960947D01*
X149370574Y-82957797D01*
X149349750Y-82952581D01*
X149329538Y-82945349D01*
X149310132Y-82936170D01*
X149291719Y-82925134D01*
X149274476Y-82912346D01*
X149258570Y-82897930D01*
X149244154Y-82882024D01*
X149231366Y-82864781D01*
X149220330Y-82846368D01*
X149211151Y-82826962D01*
X149203919Y-82806750D01*
X149198703Y-82785926D01*
X149195553Y-82764691D01*
X149194500Y-82743250D01*
X149194500Y-82305750D01*
X149195553Y-82284309D01*
X149198703Y-82263074D01*
X149203919Y-82242250D01*
X149211151Y-82222038D01*
X149220330Y-82202632D01*
X149231366Y-82184219D01*
X149244154Y-82166976D01*
X149258570Y-82151070D01*
X149274476Y-82136654D01*
X149291719Y-82123866D01*
X149310132Y-82112830D01*
X149329538Y-82103651D01*
X149349750Y-82096419D01*
X149370574Y-82091203D01*
X149391809Y-82088053D01*
X149413250Y-82087000D01*
X149925750Y-82087000D01*
X149947191Y-82088053D01*
X149947191Y-82088053D01*
G37*
D12*
X149669500Y-82524500D03*
D11*
G36*
X137362191Y-98776553D02*
G01*
X137383426Y-98779703D01*
X137404250Y-98784919D01*
X137424462Y-98792151D01*
X137443868Y-98801330D01*
X137462281Y-98812366D01*
X137479524Y-98825154D01*
X137495430Y-98839570D01*
X137509846Y-98855476D01*
X137522634Y-98872719D01*
X137533670Y-98891132D01*
X137542849Y-98910538D01*
X137550081Y-98930750D01*
X137555297Y-98951574D01*
X137558447Y-98972809D01*
X137559500Y-98994250D01*
X137559500Y-99506750D01*
X137558447Y-99528191D01*
X137555297Y-99549426D01*
X137550081Y-99570250D01*
X137542849Y-99590462D01*
X137533670Y-99609868D01*
X137522634Y-99628281D01*
X137509846Y-99645524D01*
X137495430Y-99661430D01*
X137479524Y-99675846D01*
X137462281Y-99688634D01*
X137443868Y-99699670D01*
X137424462Y-99708849D01*
X137404250Y-99716081D01*
X137383426Y-99721297D01*
X137362191Y-99724447D01*
X137340750Y-99725500D01*
X136903250Y-99725500D01*
X136881809Y-99724447D01*
X136860574Y-99721297D01*
X136839750Y-99716081D01*
X136819538Y-99708849D01*
X136800132Y-99699670D01*
X136781719Y-99688634D01*
X136764476Y-99675846D01*
X136748570Y-99661430D01*
X136734154Y-99645524D01*
X136721366Y-99628281D01*
X136710330Y-99609868D01*
X136701151Y-99590462D01*
X136693919Y-99570250D01*
X136688703Y-99549426D01*
X136685553Y-99528191D01*
X136684500Y-99506750D01*
X136684500Y-98994250D01*
X136685553Y-98972809D01*
X136688703Y-98951574D01*
X136693919Y-98930750D01*
X136701151Y-98910538D01*
X136710330Y-98891132D01*
X136721366Y-98872719D01*
X136734154Y-98855476D01*
X136748570Y-98839570D01*
X136764476Y-98825154D01*
X136781719Y-98812366D01*
X136800132Y-98801330D01*
X136819538Y-98792151D01*
X136839750Y-98784919D01*
X136860574Y-98779703D01*
X136881809Y-98776553D01*
X136903250Y-98775500D01*
X137340750Y-98775500D01*
X137362191Y-98776553D01*
X137362191Y-98776553D01*
G37*
D12*
X137122000Y-99250500D03*
D11*
G36*
X135787191Y-98776553D02*
G01*
X135808426Y-98779703D01*
X135829250Y-98784919D01*
X135849462Y-98792151D01*
X135868868Y-98801330D01*
X135887281Y-98812366D01*
X135904524Y-98825154D01*
X135920430Y-98839570D01*
X135934846Y-98855476D01*
X135947634Y-98872719D01*
X135958670Y-98891132D01*
X135967849Y-98910538D01*
X135975081Y-98930750D01*
X135980297Y-98951574D01*
X135983447Y-98972809D01*
X135984500Y-98994250D01*
X135984500Y-99506750D01*
X135983447Y-99528191D01*
X135980297Y-99549426D01*
X135975081Y-99570250D01*
X135967849Y-99590462D01*
X135958670Y-99609868D01*
X135947634Y-99628281D01*
X135934846Y-99645524D01*
X135920430Y-99661430D01*
X135904524Y-99675846D01*
X135887281Y-99688634D01*
X135868868Y-99699670D01*
X135849462Y-99708849D01*
X135829250Y-99716081D01*
X135808426Y-99721297D01*
X135787191Y-99724447D01*
X135765750Y-99725500D01*
X135328250Y-99725500D01*
X135306809Y-99724447D01*
X135285574Y-99721297D01*
X135264750Y-99716081D01*
X135244538Y-99708849D01*
X135225132Y-99699670D01*
X135206719Y-99688634D01*
X135189476Y-99675846D01*
X135173570Y-99661430D01*
X135159154Y-99645524D01*
X135146366Y-99628281D01*
X135135330Y-99609868D01*
X135126151Y-99590462D01*
X135118919Y-99570250D01*
X135113703Y-99549426D01*
X135110553Y-99528191D01*
X135109500Y-99506750D01*
X135109500Y-98994250D01*
X135110553Y-98972809D01*
X135113703Y-98951574D01*
X135118919Y-98930750D01*
X135126151Y-98910538D01*
X135135330Y-98891132D01*
X135146366Y-98872719D01*
X135159154Y-98855476D01*
X135173570Y-98839570D01*
X135189476Y-98825154D01*
X135206719Y-98812366D01*
X135225132Y-98801330D01*
X135244538Y-98792151D01*
X135264750Y-98784919D01*
X135285574Y-98779703D01*
X135306809Y-98776553D01*
X135328250Y-98775500D01*
X135765750Y-98775500D01*
X135787191Y-98776553D01*
X135787191Y-98776553D01*
G37*
D12*
X135547000Y-99250500D03*
D11*
G36*
X137362191Y-100808553D02*
G01*
X137383426Y-100811703D01*
X137404250Y-100816919D01*
X137424462Y-100824151D01*
X137443868Y-100833330D01*
X137462281Y-100844366D01*
X137479524Y-100857154D01*
X137495430Y-100871570D01*
X137509846Y-100887476D01*
X137522634Y-100904719D01*
X137533670Y-100923132D01*
X137542849Y-100942538D01*
X137550081Y-100962750D01*
X137555297Y-100983574D01*
X137558447Y-101004809D01*
X137559500Y-101026250D01*
X137559500Y-101538750D01*
X137558447Y-101560191D01*
X137555297Y-101581426D01*
X137550081Y-101602250D01*
X137542849Y-101622462D01*
X137533670Y-101641868D01*
X137522634Y-101660281D01*
X137509846Y-101677524D01*
X137495430Y-101693430D01*
X137479524Y-101707846D01*
X137462281Y-101720634D01*
X137443868Y-101731670D01*
X137424462Y-101740849D01*
X137404250Y-101748081D01*
X137383426Y-101753297D01*
X137362191Y-101756447D01*
X137340750Y-101757500D01*
X136903250Y-101757500D01*
X136881809Y-101756447D01*
X136860574Y-101753297D01*
X136839750Y-101748081D01*
X136819538Y-101740849D01*
X136800132Y-101731670D01*
X136781719Y-101720634D01*
X136764476Y-101707846D01*
X136748570Y-101693430D01*
X136734154Y-101677524D01*
X136721366Y-101660281D01*
X136710330Y-101641868D01*
X136701151Y-101622462D01*
X136693919Y-101602250D01*
X136688703Y-101581426D01*
X136685553Y-101560191D01*
X136684500Y-101538750D01*
X136684500Y-101026250D01*
X136685553Y-101004809D01*
X136688703Y-100983574D01*
X136693919Y-100962750D01*
X136701151Y-100942538D01*
X136710330Y-100923132D01*
X136721366Y-100904719D01*
X136734154Y-100887476D01*
X136748570Y-100871570D01*
X136764476Y-100857154D01*
X136781719Y-100844366D01*
X136800132Y-100833330D01*
X136819538Y-100824151D01*
X136839750Y-100816919D01*
X136860574Y-100811703D01*
X136881809Y-100808553D01*
X136903250Y-100807500D01*
X137340750Y-100807500D01*
X137362191Y-100808553D01*
X137362191Y-100808553D01*
G37*
D12*
X137122000Y-101282500D03*
D11*
G36*
X135787191Y-100808553D02*
G01*
X135808426Y-100811703D01*
X135829250Y-100816919D01*
X135849462Y-100824151D01*
X135868868Y-100833330D01*
X135887281Y-100844366D01*
X135904524Y-100857154D01*
X135920430Y-100871570D01*
X135934846Y-100887476D01*
X135947634Y-100904719D01*
X135958670Y-100923132D01*
X135967849Y-100942538D01*
X135975081Y-100962750D01*
X135980297Y-100983574D01*
X135983447Y-101004809D01*
X135984500Y-101026250D01*
X135984500Y-101538750D01*
X135983447Y-101560191D01*
X135980297Y-101581426D01*
X135975081Y-101602250D01*
X135967849Y-101622462D01*
X135958670Y-101641868D01*
X135947634Y-101660281D01*
X135934846Y-101677524D01*
X135920430Y-101693430D01*
X135904524Y-101707846D01*
X135887281Y-101720634D01*
X135868868Y-101731670D01*
X135849462Y-101740849D01*
X135829250Y-101748081D01*
X135808426Y-101753297D01*
X135787191Y-101756447D01*
X135765750Y-101757500D01*
X135328250Y-101757500D01*
X135306809Y-101756447D01*
X135285574Y-101753297D01*
X135264750Y-101748081D01*
X135244538Y-101740849D01*
X135225132Y-101731670D01*
X135206719Y-101720634D01*
X135189476Y-101707846D01*
X135173570Y-101693430D01*
X135159154Y-101677524D01*
X135146366Y-101660281D01*
X135135330Y-101641868D01*
X135126151Y-101622462D01*
X135118919Y-101602250D01*
X135113703Y-101581426D01*
X135110553Y-101560191D01*
X135109500Y-101538750D01*
X135109500Y-101026250D01*
X135110553Y-101004809D01*
X135113703Y-100983574D01*
X135118919Y-100962750D01*
X135126151Y-100942538D01*
X135135330Y-100923132D01*
X135146366Y-100904719D01*
X135159154Y-100887476D01*
X135173570Y-100871570D01*
X135189476Y-100857154D01*
X135206719Y-100844366D01*
X135225132Y-100833330D01*
X135244538Y-100824151D01*
X135264750Y-100816919D01*
X135285574Y-100811703D01*
X135306809Y-100808553D01*
X135328250Y-100807500D01*
X135765750Y-100807500D01*
X135787191Y-100808553D01*
X135787191Y-100808553D01*
G37*
D12*
X135547000Y-101282500D03*
D11*
G36*
X135787191Y-96744553D02*
G01*
X135808426Y-96747703D01*
X135829250Y-96752919D01*
X135849462Y-96760151D01*
X135868868Y-96769330D01*
X135887281Y-96780366D01*
X135904524Y-96793154D01*
X135920430Y-96807570D01*
X135934846Y-96823476D01*
X135947634Y-96840719D01*
X135958670Y-96859132D01*
X135967849Y-96878538D01*
X135975081Y-96898750D01*
X135980297Y-96919574D01*
X135983447Y-96940809D01*
X135984500Y-96962250D01*
X135984500Y-97474750D01*
X135983447Y-97496191D01*
X135980297Y-97517426D01*
X135975081Y-97538250D01*
X135967849Y-97558462D01*
X135958670Y-97577868D01*
X135947634Y-97596281D01*
X135934846Y-97613524D01*
X135920430Y-97629430D01*
X135904524Y-97643846D01*
X135887281Y-97656634D01*
X135868868Y-97667670D01*
X135849462Y-97676849D01*
X135829250Y-97684081D01*
X135808426Y-97689297D01*
X135787191Y-97692447D01*
X135765750Y-97693500D01*
X135328250Y-97693500D01*
X135306809Y-97692447D01*
X135285574Y-97689297D01*
X135264750Y-97684081D01*
X135244538Y-97676849D01*
X135225132Y-97667670D01*
X135206719Y-97656634D01*
X135189476Y-97643846D01*
X135173570Y-97629430D01*
X135159154Y-97613524D01*
X135146366Y-97596281D01*
X135135330Y-97577868D01*
X135126151Y-97558462D01*
X135118919Y-97538250D01*
X135113703Y-97517426D01*
X135110553Y-97496191D01*
X135109500Y-97474750D01*
X135109500Y-96962250D01*
X135110553Y-96940809D01*
X135113703Y-96919574D01*
X135118919Y-96898750D01*
X135126151Y-96878538D01*
X135135330Y-96859132D01*
X135146366Y-96840719D01*
X135159154Y-96823476D01*
X135173570Y-96807570D01*
X135189476Y-96793154D01*
X135206719Y-96780366D01*
X135225132Y-96769330D01*
X135244538Y-96760151D01*
X135264750Y-96752919D01*
X135285574Y-96747703D01*
X135306809Y-96744553D01*
X135328250Y-96743500D01*
X135765750Y-96743500D01*
X135787191Y-96744553D01*
X135787191Y-96744553D01*
G37*
D12*
X135547000Y-97218500D03*
D11*
G36*
X137362191Y-96744553D02*
G01*
X137383426Y-96747703D01*
X137404250Y-96752919D01*
X137424462Y-96760151D01*
X137443868Y-96769330D01*
X137462281Y-96780366D01*
X137479524Y-96793154D01*
X137495430Y-96807570D01*
X137509846Y-96823476D01*
X137522634Y-96840719D01*
X137533670Y-96859132D01*
X137542849Y-96878538D01*
X137550081Y-96898750D01*
X137555297Y-96919574D01*
X137558447Y-96940809D01*
X137559500Y-96962250D01*
X137559500Y-97474750D01*
X137558447Y-97496191D01*
X137555297Y-97517426D01*
X137550081Y-97538250D01*
X137542849Y-97558462D01*
X137533670Y-97577868D01*
X137522634Y-97596281D01*
X137509846Y-97613524D01*
X137495430Y-97629430D01*
X137479524Y-97643846D01*
X137462281Y-97656634D01*
X137443868Y-97667670D01*
X137424462Y-97676849D01*
X137404250Y-97684081D01*
X137383426Y-97689297D01*
X137362191Y-97692447D01*
X137340750Y-97693500D01*
X136903250Y-97693500D01*
X136881809Y-97692447D01*
X136860574Y-97689297D01*
X136839750Y-97684081D01*
X136819538Y-97676849D01*
X136800132Y-97667670D01*
X136781719Y-97656634D01*
X136764476Y-97643846D01*
X136748570Y-97629430D01*
X136734154Y-97613524D01*
X136721366Y-97596281D01*
X136710330Y-97577868D01*
X136701151Y-97558462D01*
X136693919Y-97538250D01*
X136688703Y-97517426D01*
X136685553Y-97496191D01*
X136684500Y-97474750D01*
X136684500Y-96962250D01*
X136685553Y-96940809D01*
X136688703Y-96919574D01*
X136693919Y-96898750D01*
X136701151Y-96878538D01*
X136710330Y-96859132D01*
X136721366Y-96840719D01*
X136734154Y-96823476D01*
X136748570Y-96807570D01*
X136764476Y-96793154D01*
X136781719Y-96780366D01*
X136800132Y-96769330D01*
X136819538Y-96760151D01*
X136839750Y-96752919D01*
X136860574Y-96747703D01*
X136881809Y-96744553D01*
X136903250Y-96743500D01*
X137340750Y-96743500D01*
X137362191Y-96744553D01*
X137362191Y-96744553D01*
G37*
D12*
X137122000Y-97218500D03*
D15*
X127190500Y-100330000D03*
X129730500Y-100330000D03*
D16*
X132270500Y-100330000D03*
D17*
X138620500Y-92773500D03*
D18*
X124494500Y-97644500D03*
X124494500Y-96994500D03*
X124494500Y-96344500D03*
X124494500Y-95694500D03*
X124494500Y-95044500D03*
X124494500Y-94394500D03*
X124494500Y-93744500D03*
X130394500Y-93744500D03*
X130394500Y-94394500D03*
X130394500Y-95044500D03*
X130394500Y-95694500D03*
X130394500Y-96344500D03*
X130394500Y-96994500D03*
X130394500Y-97644500D03*
D19*
X126539500Y-88519000D03*
X124539500Y-89469000D03*
X124539500Y-87569000D03*
D15*
X129286000Y-81280000D03*
D16*
X131826000Y-81280000D03*
D11*
G36*
X138644191Y-83536053D02*
G01*
X138665426Y-83539203D01*
X138686250Y-83544419D01*
X138706462Y-83551651D01*
X138725868Y-83560830D01*
X138744281Y-83571866D01*
X138761524Y-83584654D01*
X138777430Y-83599070D01*
X138791846Y-83614976D01*
X138804634Y-83632219D01*
X138815670Y-83650632D01*
X138824849Y-83670038D01*
X138832081Y-83690250D01*
X138837297Y-83711074D01*
X138840447Y-83732309D01*
X138841500Y-83753750D01*
X138841500Y-84191250D01*
X138840447Y-84212691D01*
X138837297Y-84233926D01*
X138832081Y-84254750D01*
X138824849Y-84274962D01*
X138815670Y-84294368D01*
X138804634Y-84312781D01*
X138791846Y-84330024D01*
X138777430Y-84345930D01*
X138761524Y-84360346D01*
X138744281Y-84373134D01*
X138725868Y-84384170D01*
X138706462Y-84393349D01*
X138686250Y-84400581D01*
X138665426Y-84405797D01*
X138644191Y-84408947D01*
X138622750Y-84410000D01*
X138110250Y-84410000D01*
X138088809Y-84408947D01*
X138067574Y-84405797D01*
X138046750Y-84400581D01*
X138026538Y-84393349D01*
X138007132Y-84384170D01*
X137988719Y-84373134D01*
X137971476Y-84360346D01*
X137955570Y-84345930D01*
X137941154Y-84330024D01*
X137928366Y-84312781D01*
X137917330Y-84294368D01*
X137908151Y-84274962D01*
X137900919Y-84254750D01*
X137895703Y-84233926D01*
X137892553Y-84212691D01*
X137891500Y-84191250D01*
X137891500Y-83753750D01*
X137892553Y-83732309D01*
X137895703Y-83711074D01*
X137900919Y-83690250D01*
X137908151Y-83670038D01*
X137917330Y-83650632D01*
X137928366Y-83632219D01*
X137941154Y-83614976D01*
X137955570Y-83599070D01*
X137971476Y-83584654D01*
X137988719Y-83571866D01*
X138007132Y-83560830D01*
X138026538Y-83551651D01*
X138046750Y-83544419D01*
X138067574Y-83539203D01*
X138088809Y-83536053D01*
X138110250Y-83535000D01*
X138622750Y-83535000D01*
X138644191Y-83536053D01*
X138644191Y-83536053D01*
G37*
D12*
X138366500Y-83972500D03*
D11*
G36*
X138644191Y-81961053D02*
G01*
X138665426Y-81964203D01*
X138686250Y-81969419D01*
X138706462Y-81976651D01*
X138725868Y-81985830D01*
X138744281Y-81996866D01*
X138761524Y-82009654D01*
X138777430Y-82024070D01*
X138791846Y-82039976D01*
X138804634Y-82057219D01*
X138815670Y-82075632D01*
X138824849Y-82095038D01*
X138832081Y-82115250D01*
X138837297Y-82136074D01*
X138840447Y-82157309D01*
X138841500Y-82178750D01*
X138841500Y-82616250D01*
X138840447Y-82637691D01*
X138837297Y-82658926D01*
X138832081Y-82679750D01*
X138824849Y-82699962D01*
X138815670Y-82719368D01*
X138804634Y-82737781D01*
X138791846Y-82755024D01*
X138777430Y-82770930D01*
X138761524Y-82785346D01*
X138744281Y-82798134D01*
X138725868Y-82809170D01*
X138706462Y-82818349D01*
X138686250Y-82825581D01*
X138665426Y-82830797D01*
X138644191Y-82833947D01*
X138622750Y-82835000D01*
X138110250Y-82835000D01*
X138088809Y-82833947D01*
X138067574Y-82830797D01*
X138046750Y-82825581D01*
X138026538Y-82818349D01*
X138007132Y-82809170D01*
X137988719Y-82798134D01*
X137971476Y-82785346D01*
X137955570Y-82770930D01*
X137941154Y-82755024D01*
X137928366Y-82737781D01*
X137917330Y-82719368D01*
X137908151Y-82699962D01*
X137900919Y-82679750D01*
X137895703Y-82658926D01*
X137892553Y-82637691D01*
X137891500Y-82616250D01*
X137891500Y-82178750D01*
X137892553Y-82157309D01*
X137895703Y-82136074D01*
X137900919Y-82115250D01*
X137908151Y-82095038D01*
X137917330Y-82075632D01*
X137928366Y-82057219D01*
X137941154Y-82039976D01*
X137955570Y-82024070D01*
X137971476Y-82009654D01*
X137988719Y-81996866D01*
X138007132Y-81985830D01*
X138026538Y-81976651D01*
X138046750Y-81969419D01*
X138067574Y-81964203D01*
X138088809Y-81961053D01*
X138110250Y-81960000D01*
X138622750Y-81960000D01*
X138644191Y-81961053D01*
X138644191Y-81961053D01*
G37*
D12*
X138366500Y-82397500D03*
D11*
G36*
X135533191Y-94649053D02*
G01*
X135554426Y-94652203D01*
X135575250Y-94657419D01*
X135595462Y-94664651D01*
X135614868Y-94673830D01*
X135633281Y-94684866D01*
X135650524Y-94697654D01*
X135666430Y-94712070D01*
X135680846Y-94727976D01*
X135693634Y-94745219D01*
X135704670Y-94763632D01*
X135713849Y-94783038D01*
X135721081Y-94803250D01*
X135726297Y-94824074D01*
X135729447Y-94845309D01*
X135730500Y-94866750D01*
X135730500Y-95379250D01*
X135729447Y-95400691D01*
X135726297Y-95421926D01*
X135721081Y-95442750D01*
X135713849Y-95462962D01*
X135704670Y-95482368D01*
X135693634Y-95500781D01*
X135680846Y-95518024D01*
X135666430Y-95533930D01*
X135650524Y-95548346D01*
X135633281Y-95561134D01*
X135614868Y-95572170D01*
X135595462Y-95581349D01*
X135575250Y-95588581D01*
X135554426Y-95593797D01*
X135533191Y-95596947D01*
X135511750Y-95598000D01*
X135074250Y-95598000D01*
X135052809Y-95596947D01*
X135031574Y-95593797D01*
X135010750Y-95588581D01*
X134990538Y-95581349D01*
X134971132Y-95572170D01*
X134952719Y-95561134D01*
X134935476Y-95548346D01*
X134919570Y-95533930D01*
X134905154Y-95518024D01*
X134892366Y-95500781D01*
X134881330Y-95482368D01*
X134872151Y-95462962D01*
X134864919Y-95442750D01*
X134859703Y-95421926D01*
X134856553Y-95400691D01*
X134855500Y-95379250D01*
X134855500Y-94866750D01*
X134856553Y-94845309D01*
X134859703Y-94824074D01*
X134864919Y-94803250D01*
X134872151Y-94783038D01*
X134881330Y-94763632D01*
X134892366Y-94745219D01*
X134905154Y-94727976D01*
X134919570Y-94712070D01*
X134935476Y-94697654D01*
X134952719Y-94684866D01*
X134971132Y-94673830D01*
X134990538Y-94664651D01*
X135010750Y-94657419D01*
X135031574Y-94652203D01*
X135052809Y-94649053D01*
X135074250Y-94648000D01*
X135511750Y-94648000D01*
X135533191Y-94649053D01*
X135533191Y-94649053D01*
G37*
D12*
X135293000Y-95123000D03*
D11*
G36*
X137108191Y-94649053D02*
G01*
X137129426Y-94652203D01*
X137150250Y-94657419D01*
X137170462Y-94664651D01*
X137189868Y-94673830D01*
X137208281Y-94684866D01*
X137225524Y-94697654D01*
X137241430Y-94712070D01*
X137255846Y-94727976D01*
X137268634Y-94745219D01*
X137279670Y-94763632D01*
X137288849Y-94783038D01*
X137296081Y-94803250D01*
X137301297Y-94824074D01*
X137304447Y-94845309D01*
X137305500Y-94866750D01*
X137305500Y-95379250D01*
X137304447Y-95400691D01*
X137301297Y-95421926D01*
X137296081Y-95442750D01*
X137288849Y-95462962D01*
X137279670Y-95482368D01*
X137268634Y-95500781D01*
X137255846Y-95518024D01*
X137241430Y-95533930D01*
X137225524Y-95548346D01*
X137208281Y-95561134D01*
X137189868Y-95572170D01*
X137170462Y-95581349D01*
X137150250Y-95588581D01*
X137129426Y-95593797D01*
X137108191Y-95596947D01*
X137086750Y-95598000D01*
X136649250Y-95598000D01*
X136627809Y-95596947D01*
X136606574Y-95593797D01*
X136585750Y-95588581D01*
X136565538Y-95581349D01*
X136546132Y-95572170D01*
X136527719Y-95561134D01*
X136510476Y-95548346D01*
X136494570Y-95533930D01*
X136480154Y-95518024D01*
X136467366Y-95500781D01*
X136456330Y-95482368D01*
X136447151Y-95462962D01*
X136439919Y-95442750D01*
X136434703Y-95421926D01*
X136431553Y-95400691D01*
X136430500Y-95379250D01*
X136430500Y-94866750D01*
X136431553Y-94845309D01*
X136434703Y-94824074D01*
X136439919Y-94803250D01*
X136447151Y-94783038D01*
X136456330Y-94763632D01*
X136467366Y-94745219D01*
X136480154Y-94727976D01*
X136494570Y-94712070D01*
X136510476Y-94697654D01*
X136527719Y-94684866D01*
X136546132Y-94673830D01*
X136565538Y-94664651D01*
X136585750Y-94657419D01*
X136606574Y-94652203D01*
X136627809Y-94649053D01*
X136649250Y-94648000D01*
X137086750Y-94648000D01*
X137108191Y-94649053D01*
X137108191Y-94649053D01*
G37*
D12*
X136868000Y-95123000D03*
D11*
G36*
X145121191Y-95791553D02*
G01*
X145142426Y-95794703D01*
X145163250Y-95799919D01*
X145183462Y-95807151D01*
X145202868Y-95816330D01*
X145221281Y-95827366D01*
X145238524Y-95840154D01*
X145254430Y-95854570D01*
X145268846Y-95870476D01*
X145281634Y-95887719D01*
X145292670Y-95906132D01*
X145301849Y-95925538D01*
X145309081Y-95945750D01*
X145314297Y-95966574D01*
X145317447Y-95987809D01*
X145318500Y-96009250D01*
X145318500Y-96446750D01*
X145317447Y-96468191D01*
X145314297Y-96489426D01*
X145309081Y-96510250D01*
X145301849Y-96530462D01*
X145292670Y-96549868D01*
X145281634Y-96568281D01*
X145268846Y-96585524D01*
X145254430Y-96601430D01*
X145238524Y-96615846D01*
X145221281Y-96628634D01*
X145202868Y-96639670D01*
X145183462Y-96648849D01*
X145163250Y-96656081D01*
X145142426Y-96661297D01*
X145121191Y-96664447D01*
X145099750Y-96665500D01*
X144587250Y-96665500D01*
X144565809Y-96664447D01*
X144544574Y-96661297D01*
X144523750Y-96656081D01*
X144503538Y-96648849D01*
X144484132Y-96639670D01*
X144465719Y-96628634D01*
X144448476Y-96615846D01*
X144432570Y-96601430D01*
X144418154Y-96585524D01*
X144405366Y-96568281D01*
X144394330Y-96549868D01*
X144385151Y-96530462D01*
X144377919Y-96510250D01*
X144372703Y-96489426D01*
X144369553Y-96468191D01*
X144368500Y-96446750D01*
X144368500Y-96009250D01*
X144369553Y-95987809D01*
X144372703Y-95966574D01*
X144377919Y-95945750D01*
X144385151Y-95925538D01*
X144394330Y-95906132D01*
X144405366Y-95887719D01*
X144418154Y-95870476D01*
X144432570Y-95854570D01*
X144448476Y-95840154D01*
X144465719Y-95827366D01*
X144484132Y-95816330D01*
X144503538Y-95807151D01*
X144523750Y-95799919D01*
X144544574Y-95794703D01*
X144565809Y-95791553D01*
X144587250Y-95790500D01*
X145099750Y-95790500D01*
X145121191Y-95791553D01*
X145121191Y-95791553D01*
G37*
D12*
X144843500Y-96228000D03*
D11*
G36*
X145121191Y-94216553D02*
G01*
X145142426Y-94219703D01*
X145163250Y-94224919D01*
X145183462Y-94232151D01*
X145202868Y-94241330D01*
X145221281Y-94252366D01*
X145238524Y-94265154D01*
X145254430Y-94279570D01*
X145268846Y-94295476D01*
X145281634Y-94312719D01*
X145292670Y-94331132D01*
X145301849Y-94350538D01*
X145309081Y-94370750D01*
X145314297Y-94391574D01*
X145317447Y-94412809D01*
X145318500Y-94434250D01*
X145318500Y-94871750D01*
X145317447Y-94893191D01*
X145314297Y-94914426D01*
X145309081Y-94935250D01*
X145301849Y-94955462D01*
X145292670Y-94974868D01*
X145281634Y-94993281D01*
X145268846Y-95010524D01*
X145254430Y-95026430D01*
X145238524Y-95040846D01*
X145221281Y-95053634D01*
X145202868Y-95064670D01*
X145183462Y-95073849D01*
X145163250Y-95081081D01*
X145142426Y-95086297D01*
X145121191Y-95089447D01*
X145099750Y-95090500D01*
X144587250Y-95090500D01*
X144565809Y-95089447D01*
X144544574Y-95086297D01*
X144523750Y-95081081D01*
X144503538Y-95073849D01*
X144484132Y-95064670D01*
X144465719Y-95053634D01*
X144448476Y-95040846D01*
X144432570Y-95026430D01*
X144418154Y-95010524D01*
X144405366Y-94993281D01*
X144394330Y-94974868D01*
X144385151Y-94955462D01*
X144377919Y-94935250D01*
X144372703Y-94914426D01*
X144369553Y-94893191D01*
X144368500Y-94871750D01*
X144368500Y-94434250D01*
X144369553Y-94412809D01*
X144372703Y-94391574D01*
X144377919Y-94370750D01*
X144385151Y-94350538D01*
X144394330Y-94331132D01*
X144405366Y-94312719D01*
X144418154Y-94295476D01*
X144432570Y-94279570D01*
X144448476Y-94265154D01*
X144465719Y-94252366D01*
X144484132Y-94241330D01*
X144503538Y-94232151D01*
X144523750Y-94224919D01*
X144544574Y-94219703D01*
X144565809Y-94216553D01*
X144587250Y-94215500D01*
X145099750Y-94215500D01*
X145121191Y-94216553D01*
X145121191Y-94216553D01*
G37*
D12*
X144843500Y-94653000D03*
D11*
G36*
X148296191Y-90330553D02*
G01*
X148317426Y-90333703D01*
X148338250Y-90338919D01*
X148358462Y-90346151D01*
X148377868Y-90355330D01*
X148396281Y-90366366D01*
X148413524Y-90379154D01*
X148429430Y-90393570D01*
X148443846Y-90409476D01*
X148456634Y-90426719D01*
X148467670Y-90445132D01*
X148476849Y-90464538D01*
X148484081Y-90484750D01*
X148489297Y-90505574D01*
X148492447Y-90526809D01*
X148493500Y-90548250D01*
X148493500Y-90985750D01*
X148492447Y-91007191D01*
X148489297Y-91028426D01*
X148484081Y-91049250D01*
X148476849Y-91069462D01*
X148467670Y-91088868D01*
X148456634Y-91107281D01*
X148443846Y-91124524D01*
X148429430Y-91140430D01*
X148413524Y-91154846D01*
X148396281Y-91167634D01*
X148377868Y-91178670D01*
X148358462Y-91187849D01*
X148338250Y-91195081D01*
X148317426Y-91200297D01*
X148296191Y-91203447D01*
X148274750Y-91204500D01*
X147762250Y-91204500D01*
X147740809Y-91203447D01*
X147719574Y-91200297D01*
X147698750Y-91195081D01*
X147678538Y-91187849D01*
X147659132Y-91178670D01*
X147640719Y-91167634D01*
X147623476Y-91154846D01*
X147607570Y-91140430D01*
X147593154Y-91124524D01*
X147580366Y-91107281D01*
X147569330Y-91088868D01*
X147560151Y-91069462D01*
X147552919Y-91049250D01*
X147547703Y-91028426D01*
X147544553Y-91007191D01*
X147543500Y-90985750D01*
X147543500Y-90548250D01*
X147544553Y-90526809D01*
X147547703Y-90505574D01*
X147552919Y-90484750D01*
X147560151Y-90464538D01*
X147569330Y-90445132D01*
X147580366Y-90426719D01*
X147593154Y-90409476D01*
X147607570Y-90393570D01*
X147623476Y-90379154D01*
X147640719Y-90366366D01*
X147659132Y-90355330D01*
X147678538Y-90346151D01*
X147698750Y-90338919D01*
X147719574Y-90333703D01*
X147740809Y-90330553D01*
X147762250Y-90329500D01*
X148274750Y-90329500D01*
X148296191Y-90330553D01*
X148296191Y-90330553D01*
G37*
D12*
X148018500Y-90767000D03*
D11*
G36*
X148296191Y-88755553D02*
G01*
X148317426Y-88758703D01*
X148338250Y-88763919D01*
X148358462Y-88771151D01*
X148377868Y-88780330D01*
X148396281Y-88791366D01*
X148413524Y-88804154D01*
X148429430Y-88818570D01*
X148443846Y-88834476D01*
X148456634Y-88851719D01*
X148467670Y-88870132D01*
X148476849Y-88889538D01*
X148484081Y-88909750D01*
X148489297Y-88930574D01*
X148492447Y-88951809D01*
X148493500Y-88973250D01*
X148493500Y-89410750D01*
X148492447Y-89432191D01*
X148489297Y-89453426D01*
X148484081Y-89474250D01*
X148476849Y-89494462D01*
X148467670Y-89513868D01*
X148456634Y-89532281D01*
X148443846Y-89549524D01*
X148429430Y-89565430D01*
X148413524Y-89579846D01*
X148396281Y-89592634D01*
X148377868Y-89603670D01*
X148358462Y-89612849D01*
X148338250Y-89620081D01*
X148317426Y-89625297D01*
X148296191Y-89628447D01*
X148274750Y-89629500D01*
X147762250Y-89629500D01*
X147740809Y-89628447D01*
X147719574Y-89625297D01*
X147698750Y-89620081D01*
X147678538Y-89612849D01*
X147659132Y-89603670D01*
X147640719Y-89592634D01*
X147623476Y-89579846D01*
X147607570Y-89565430D01*
X147593154Y-89549524D01*
X147580366Y-89532281D01*
X147569330Y-89513868D01*
X147560151Y-89494462D01*
X147552919Y-89474250D01*
X147547703Y-89453426D01*
X147544553Y-89432191D01*
X147543500Y-89410750D01*
X147543500Y-88973250D01*
X147544553Y-88951809D01*
X147547703Y-88930574D01*
X147552919Y-88909750D01*
X147560151Y-88889538D01*
X147569330Y-88870132D01*
X147580366Y-88851719D01*
X147593154Y-88834476D01*
X147607570Y-88818570D01*
X147623476Y-88804154D01*
X147640719Y-88791366D01*
X147659132Y-88780330D01*
X147678538Y-88771151D01*
X147698750Y-88763919D01*
X147719574Y-88758703D01*
X147740809Y-88755553D01*
X147762250Y-88754500D01*
X148274750Y-88754500D01*
X148296191Y-88755553D01*
X148296191Y-88755553D01*
G37*
D12*
X148018500Y-89192000D03*
D11*
G36*
X140295191Y-89632053D02*
G01*
X140316426Y-89635203D01*
X140337250Y-89640419D01*
X140357462Y-89647651D01*
X140376868Y-89656830D01*
X140395281Y-89667866D01*
X140412524Y-89680654D01*
X140428430Y-89695070D01*
X140442846Y-89710976D01*
X140455634Y-89728219D01*
X140466670Y-89746632D01*
X140475849Y-89766038D01*
X140483081Y-89786250D01*
X140488297Y-89807074D01*
X140491447Y-89828309D01*
X140492500Y-89849750D01*
X140492500Y-90287250D01*
X140491447Y-90308691D01*
X140488297Y-90329926D01*
X140483081Y-90350750D01*
X140475849Y-90370962D01*
X140466670Y-90390368D01*
X140455634Y-90408781D01*
X140442846Y-90426024D01*
X140428430Y-90441930D01*
X140412524Y-90456346D01*
X140395281Y-90469134D01*
X140376868Y-90480170D01*
X140357462Y-90489349D01*
X140337250Y-90496581D01*
X140316426Y-90501797D01*
X140295191Y-90504947D01*
X140273750Y-90506000D01*
X139761250Y-90506000D01*
X139739809Y-90504947D01*
X139718574Y-90501797D01*
X139697750Y-90496581D01*
X139677538Y-90489349D01*
X139658132Y-90480170D01*
X139639719Y-90469134D01*
X139622476Y-90456346D01*
X139606570Y-90441930D01*
X139592154Y-90426024D01*
X139579366Y-90408781D01*
X139568330Y-90390368D01*
X139559151Y-90370962D01*
X139551919Y-90350750D01*
X139546703Y-90329926D01*
X139543553Y-90308691D01*
X139542500Y-90287250D01*
X139542500Y-89849750D01*
X139543553Y-89828309D01*
X139546703Y-89807074D01*
X139551919Y-89786250D01*
X139559151Y-89766038D01*
X139568330Y-89746632D01*
X139579366Y-89728219D01*
X139592154Y-89710976D01*
X139606570Y-89695070D01*
X139622476Y-89680654D01*
X139639719Y-89667866D01*
X139658132Y-89656830D01*
X139677538Y-89647651D01*
X139697750Y-89640419D01*
X139718574Y-89635203D01*
X139739809Y-89632053D01*
X139761250Y-89631000D01*
X140273750Y-89631000D01*
X140295191Y-89632053D01*
X140295191Y-89632053D01*
G37*
D12*
X140017500Y-90068500D03*
D11*
G36*
X140295191Y-88057053D02*
G01*
X140316426Y-88060203D01*
X140337250Y-88065419D01*
X140357462Y-88072651D01*
X140376868Y-88081830D01*
X140395281Y-88092866D01*
X140412524Y-88105654D01*
X140428430Y-88120070D01*
X140442846Y-88135976D01*
X140455634Y-88153219D01*
X140466670Y-88171632D01*
X140475849Y-88191038D01*
X140483081Y-88211250D01*
X140488297Y-88232074D01*
X140491447Y-88253309D01*
X140492500Y-88274750D01*
X140492500Y-88712250D01*
X140491447Y-88733691D01*
X140488297Y-88754926D01*
X140483081Y-88775750D01*
X140475849Y-88795962D01*
X140466670Y-88815368D01*
X140455634Y-88833781D01*
X140442846Y-88851024D01*
X140428430Y-88866930D01*
X140412524Y-88881346D01*
X140395281Y-88894134D01*
X140376868Y-88905170D01*
X140357462Y-88914349D01*
X140337250Y-88921581D01*
X140316426Y-88926797D01*
X140295191Y-88929947D01*
X140273750Y-88931000D01*
X139761250Y-88931000D01*
X139739809Y-88929947D01*
X139718574Y-88926797D01*
X139697750Y-88921581D01*
X139677538Y-88914349D01*
X139658132Y-88905170D01*
X139639719Y-88894134D01*
X139622476Y-88881346D01*
X139606570Y-88866930D01*
X139592154Y-88851024D01*
X139579366Y-88833781D01*
X139568330Y-88815368D01*
X139559151Y-88795962D01*
X139551919Y-88775750D01*
X139546703Y-88754926D01*
X139543553Y-88733691D01*
X139542500Y-88712250D01*
X139542500Y-88274750D01*
X139543553Y-88253309D01*
X139546703Y-88232074D01*
X139551919Y-88211250D01*
X139559151Y-88191038D01*
X139568330Y-88171632D01*
X139579366Y-88153219D01*
X139592154Y-88135976D01*
X139606570Y-88120070D01*
X139622476Y-88105654D01*
X139639719Y-88092866D01*
X139658132Y-88081830D01*
X139677538Y-88072651D01*
X139697750Y-88065419D01*
X139718574Y-88060203D01*
X139739809Y-88057053D01*
X139761250Y-88056000D01*
X140273750Y-88056000D01*
X140295191Y-88057053D01*
X140295191Y-88057053D01*
G37*
D12*
X140017500Y-88493500D03*
D11*
G36*
X132230691Y-90140053D02*
G01*
X132251926Y-90143203D01*
X132272750Y-90148419D01*
X132292962Y-90155651D01*
X132312368Y-90164830D01*
X132330781Y-90175866D01*
X132348024Y-90188654D01*
X132363930Y-90203070D01*
X132378346Y-90218976D01*
X132391134Y-90236219D01*
X132402170Y-90254632D01*
X132411349Y-90274038D01*
X132418581Y-90294250D01*
X132423797Y-90315074D01*
X132426947Y-90336309D01*
X132428000Y-90357750D01*
X132428000Y-90795250D01*
X132426947Y-90816691D01*
X132423797Y-90837926D01*
X132418581Y-90858750D01*
X132411349Y-90878962D01*
X132402170Y-90898368D01*
X132391134Y-90916781D01*
X132378346Y-90934024D01*
X132363930Y-90949930D01*
X132348024Y-90964346D01*
X132330781Y-90977134D01*
X132312368Y-90988170D01*
X132292962Y-90997349D01*
X132272750Y-91004581D01*
X132251926Y-91009797D01*
X132230691Y-91012947D01*
X132209250Y-91014000D01*
X131696750Y-91014000D01*
X131675309Y-91012947D01*
X131654074Y-91009797D01*
X131633250Y-91004581D01*
X131613038Y-90997349D01*
X131593632Y-90988170D01*
X131575219Y-90977134D01*
X131557976Y-90964346D01*
X131542070Y-90949930D01*
X131527654Y-90934024D01*
X131514866Y-90916781D01*
X131503830Y-90898368D01*
X131494651Y-90878962D01*
X131487419Y-90858750D01*
X131482203Y-90837926D01*
X131479053Y-90816691D01*
X131478000Y-90795250D01*
X131478000Y-90357750D01*
X131479053Y-90336309D01*
X131482203Y-90315074D01*
X131487419Y-90294250D01*
X131494651Y-90274038D01*
X131503830Y-90254632D01*
X131514866Y-90236219D01*
X131527654Y-90218976D01*
X131542070Y-90203070D01*
X131557976Y-90188654D01*
X131575219Y-90175866D01*
X131593632Y-90164830D01*
X131613038Y-90155651D01*
X131633250Y-90148419D01*
X131654074Y-90143203D01*
X131675309Y-90140053D01*
X131696750Y-90139000D01*
X132209250Y-90139000D01*
X132230691Y-90140053D01*
X132230691Y-90140053D01*
G37*
D12*
X131953000Y-90576500D03*
D11*
G36*
X132230691Y-88565053D02*
G01*
X132251926Y-88568203D01*
X132272750Y-88573419D01*
X132292962Y-88580651D01*
X132312368Y-88589830D01*
X132330781Y-88600866D01*
X132348024Y-88613654D01*
X132363930Y-88628070D01*
X132378346Y-88643976D01*
X132391134Y-88661219D01*
X132402170Y-88679632D01*
X132411349Y-88699038D01*
X132418581Y-88719250D01*
X132423797Y-88740074D01*
X132426947Y-88761309D01*
X132428000Y-88782750D01*
X132428000Y-89220250D01*
X132426947Y-89241691D01*
X132423797Y-89262926D01*
X132418581Y-89283750D01*
X132411349Y-89303962D01*
X132402170Y-89323368D01*
X132391134Y-89341781D01*
X132378346Y-89359024D01*
X132363930Y-89374930D01*
X132348024Y-89389346D01*
X132330781Y-89402134D01*
X132312368Y-89413170D01*
X132292962Y-89422349D01*
X132272750Y-89429581D01*
X132251926Y-89434797D01*
X132230691Y-89437947D01*
X132209250Y-89439000D01*
X131696750Y-89439000D01*
X131675309Y-89437947D01*
X131654074Y-89434797D01*
X131633250Y-89429581D01*
X131613038Y-89422349D01*
X131593632Y-89413170D01*
X131575219Y-89402134D01*
X131557976Y-89389346D01*
X131542070Y-89374930D01*
X131527654Y-89359024D01*
X131514866Y-89341781D01*
X131503830Y-89323368D01*
X131494651Y-89303962D01*
X131487419Y-89283750D01*
X131482203Y-89262926D01*
X131479053Y-89241691D01*
X131478000Y-89220250D01*
X131478000Y-88782750D01*
X131479053Y-88761309D01*
X131482203Y-88740074D01*
X131487419Y-88719250D01*
X131494651Y-88699038D01*
X131503830Y-88679632D01*
X131514866Y-88661219D01*
X131527654Y-88643976D01*
X131542070Y-88628070D01*
X131557976Y-88613654D01*
X131575219Y-88600866D01*
X131593632Y-88589830D01*
X131613038Y-88580651D01*
X131633250Y-88573419D01*
X131654074Y-88568203D01*
X131675309Y-88565053D01*
X131696750Y-88564000D01*
X132209250Y-88564000D01*
X132230691Y-88565053D01*
X132230691Y-88565053D01*
G37*
D12*
X131953000Y-89001500D03*
D11*
G36*
X125373191Y-84870053D02*
G01*
X125394426Y-84873203D01*
X125415250Y-84878419D01*
X125435462Y-84885651D01*
X125454868Y-84894830D01*
X125473281Y-84905866D01*
X125490524Y-84918654D01*
X125506430Y-84933070D01*
X125520846Y-84948976D01*
X125533634Y-84966219D01*
X125544670Y-84984632D01*
X125553849Y-85004038D01*
X125561081Y-85024250D01*
X125566297Y-85045074D01*
X125569447Y-85066309D01*
X125570500Y-85087750D01*
X125570500Y-85600250D01*
X125569447Y-85621691D01*
X125566297Y-85642926D01*
X125561081Y-85663750D01*
X125553849Y-85683962D01*
X125544670Y-85703368D01*
X125533634Y-85721781D01*
X125520846Y-85739024D01*
X125506430Y-85754930D01*
X125490524Y-85769346D01*
X125473281Y-85782134D01*
X125454868Y-85793170D01*
X125435462Y-85802349D01*
X125415250Y-85809581D01*
X125394426Y-85814797D01*
X125373191Y-85817947D01*
X125351750Y-85819000D01*
X124914250Y-85819000D01*
X124892809Y-85817947D01*
X124871574Y-85814797D01*
X124850750Y-85809581D01*
X124830538Y-85802349D01*
X124811132Y-85793170D01*
X124792719Y-85782134D01*
X124775476Y-85769346D01*
X124759570Y-85754930D01*
X124745154Y-85739024D01*
X124732366Y-85721781D01*
X124721330Y-85703368D01*
X124712151Y-85683962D01*
X124704919Y-85663750D01*
X124699703Y-85642926D01*
X124696553Y-85621691D01*
X124695500Y-85600250D01*
X124695500Y-85087750D01*
X124696553Y-85066309D01*
X124699703Y-85045074D01*
X124704919Y-85024250D01*
X124712151Y-85004038D01*
X124721330Y-84984632D01*
X124732366Y-84966219D01*
X124745154Y-84948976D01*
X124759570Y-84933070D01*
X124775476Y-84918654D01*
X124792719Y-84905866D01*
X124811132Y-84894830D01*
X124830538Y-84885651D01*
X124850750Y-84878419D01*
X124871574Y-84873203D01*
X124892809Y-84870053D01*
X124914250Y-84869000D01*
X125351750Y-84869000D01*
X125373191Y-84870053D01*
X125373191Y-84870053D01*
G37*
D12*
X125133000Y-85344000D03*
D11*
G36*
X126948191Y-84870053D02*
G01*
X126969426Y-84873203D01*
X126990250Y-84878419D01*
X127010462Y-84885651D01*
X127029868Y-84894830D01*
X127048281Y-84905866D01*
X127065524Y-84918654D01*
X127081430Y-84933070D01*
X127095846Y-84948976D01*
X127108634Y-84966219D01*
X127119670Y-84984632D01*
X127128849Y-85004038D01*
X127136081Y-85024250D01*
X127141297Y-85045074D01*
X127144447Y-85066309D01*
X127145500Y-85087750D01*
X127145500Y-85600250D01*
X127144447Y-85621691D01*
X127141297Y-85642926D01*
X127136081Y-85663750D01*
X127128849Y-85683962D01*
X127119670Y-85703368D01*
X127108634Y-85721781D01*
X127095846Y-85739024D01*
X127081430Y-85754930D01*
X127065524Y-85769346D01*
X127048281Y-85782134D01*
X127029868Y-85793170D01*
X127010462Y-85802349D01*
X126990250Y-85809581D01*
X126969426Y-85814797D01*
X126948191Y-85817947D01*
X126926750Y-85819000D01*
X126489250Y-85819000D01*
X126467809Y-85817947D01*
X126446574Y-85814797D01*
X126425750Y-85809581D01*
X126405538Y-85802349D01*
X126386132Y-85793170D01*
X126367719Y-85782134D01*
X126350476Y-85769346D01*
X126334570Y-85754930D01*
X126320154Y-85739024D01*
X126307366Y-85721781D01*
X126296330Y-85703368D01*
X126287151Y-85683962D01*
X126279919Y-85663750D01*
X126274703Y-85642926D01*
X126271553Y-85621691D01*
X126270500Y-85600250D01*
X126270500Y-85087750D01*
X126271553Y-85066309D01*
X126274703Y-85045074D01*
X126279919Y-85024250D01*
X126287151Y-85004038D01*
X126296330Y-84984632D01*
X126307366Y-84966219D01*
X126320154Y-84948976D01*
X126334570Y-84933070D01*
X126350476Y-84918654D01*
X126367719Y-84905866D01*
X126386132Y-84894830D01*
X126405538Y-84885651D01*
X126425750Y-84878419D01*
X126446574Y-84873203D01*
X126467809Y-84870053D01*
X126489250Y-84869000D01*
X126926750Y-84869000D01*
X126948191Y-84870053D01*
X126948191Y-84870053D01*
G37*
D12*
X126708000Y-85344000D03*
D11*
G36*
X135012691Y-86330553D02*
G01*
X135033926Y-86333703D01*
X135054750Y-86338919D01*
X135074962Y-86346151D01*
X135094368Y-86355330D01*
X135112781Y-86366366D01*
X135130024Y-86379154D01*
X135145930Y-86393570D01*
X135160346Y-86409476D01*
X135173134Y-86426719D01*
X135184170Y-86445132D01*
X135193349Y-86464538D01*
X135200581Y-86484750D01*
X135205797Y-86505574D01*
X135208947Y-86526809D01*
X135210000Y-86548250D01*
X135210000Y-87060750D01*
X135208947Y-87082191D01*
X135205797Y-87103426D01*
X135200581Y-87124250D01*
X135193349Y-87144462D01*
X135184170Y-87163868D01*
X135173134Y-87182281D01*
X135160346Y-87199524D01*
X135145930Y-87215430D01*
X135130024Y-87229846D01*
X135112781Y-87242634D01*
X135094368Y-87253670D01*
X135074962Y-87262849D01*
X135054750Y-87270081D01*
X135033926Y-87275297D01*
X135012691Y-87278447D01*
X134991250Y-87279500D01*
X134553750Y-87279500D01*
X134532309Y-87278447D01*
X134511074Y-87275297D01*
X134490250Y-87270081D01*
X134470038Y-87262849D01*
X134450632Y-87253670D01*
X134432219Y-87242634D01*
X134414976Y-87229846D01*
X134399070Y-87215430D01*
X134384654Y-87199524D01*
X134371866Y-87182281D01*
X134360830Y-87163868D01*
X134351651Y-87144462D01*
X134344419Y-87124250D01*
X134339203Y-87103426D01*
X134336053Y-87082191D01*
X134335000Y-87060750D01*
X134335000Y-86548250D01*
X134336053Y-86526809D01*
X134339203Y-86505574D01*
X134344419Y-86484750D01*
X134351651Y-86464538D01*
X134360830Y-86445132D01*
X134371866Y-86426719D01*
X134384654Y-86409476D01*
X134399070Y-86393570D01*
X134414976Y-86379154D01*
X134432219Y-86366366D01*
X134450632Y-86355330D01*
X134470038Y-86346151D01*
X134490250Y-86338919D01*
X134511074Y-86333703D01*
X134532309Y-86330553D01*
X134553750Y-86329500D01*
X134991250Y-86329500D01*
X135012691Y-86330553D01*
X135012691Y-86330553D01*
G37*
D12*
X134772500Y-86804500D03*
D11*
G36*
X133437691Y-86330553D02*
G01*
X133458926Y-86333703D01*
X133479750Y-86338919D01*
X133499962Y-86346151D01*
X133519368Y-86355330D01*
X133537781Y-86366366D01*
X133555024Y-86379154D01*
X133570930Y-86393570D01*
X133585346Y-86409476D01*
X133598134Y-86426719D01*
X133609170Y-86445132D01*
X133618349Y-86464538D01*
X133625581Y-86484750D01*
X133630797Y-86505574D01*
X133633947Y-86526809D01*
X133635000Y-86548250D01*
X133635000Y-87060750D01*
X133633947Y-87082191D01*
X133630797Y-87103426D01*
X133625581Y-87124250D01*
X133618349Y-87144462D01*
X133609170Y-87163868D01*
X133598134Y-87182281D01*
X133585346Y-87199524D01*
X133570930Y-87215430D01*
X133555024Y-87229846D01*
X133537781Y-87242634D01*
X133519368Y-87253670D01*
X133499962Y-87262849D01*
X133479750Y-87270081D01*
X133458926Y-87275297D01*
X133437691Y-87278447D01*
X133416250Y-87279500D01*
X132978750Y-87279500D01*
X132957309Y-87278447D01*
X132936074Y-87275297D01*
X132915250Y-87270081D01*
X132895038Y-87262849D01*
X132875632Y-87253670D01*
X132857219Y-87242634D01*
X132839976Y-87229846D01*
X132824070Y-87215430D01*
X132809654Y-87199524D01*
X132796866Y-87182281D01*
X132785830Y-87163868D01*
X132776651Y-87144462D01*
X132769419Y-87124250D01*
X132764203Y-87103426D01*
X132761053Y-87082191D01*
X132760000Y-87060750D01*
X132760000Y-86548250D01*
X132761053Y-86526809D01*
X132764203Y-86505574D01*
X132769419Y-86484750D01*
X132776651Y-86464538D01*
X132785830Y-86445132D01*
X132796866Y-86426719D01*
X132809654Y-86409476D01*
X132824070Y-86393570D01*
X132839976Y-86379154D01*
X132857219Y-86366366D01*
X132875632Y-86355330D01*
X132895038Y-86346151D01*
X132915250Y-86338919D01*
X132936074Y-86333703D01*
X132957309Y-86330553D01*
X132978750Y-86329500D01*
X133416250Y-86329500D01*
X133437691Y-86330553D01*
X133437691Y-86330553D01*
G37*
D12*
X133197500Y-86804500D03*
D11*
G36*
X148042191Y-83663053D02*
G01*
X148063426Y-83666203D01*
X148084250Y-83671419D01*
X148104462Y-83678651D01*
X148123868Y-83687830D01*
X148142281Y-83698866D01*
X148159524Y-83711654D01*
X148175430Y-83726070D01*
X148189846Y-83741976D01*
X148202634Y-83759219D01*
X148213670Y-83777632D01*
X148222849Y-83797038D01*
X148230081Y-83817250D01*
X148235297Y-83838074D01*
X148238447Y-83859309D01*
X148239500Y-83880750D01*
X148239500Y-84318250D01*
X148238447Y-84339691D01*
X148235297Y-84360926D01*
X148230081Y-84381750D01*
X148222849Y-84401962D01*
X148213670Y-84421368D01*
X148202634Y-84439781D01*
X148189846Y-84457024D01*
X148175430Y-84472930D01*
X148159524Y-84487346D01*
X148142281Y-84500134D01*
X148123868Y-84511170D01*
X148104462Y-84520349D01*
X148084250Y-84527581D01*
X148063426Y-84532797D01*
X148042191Y-84535947D01*
X148020750Y-84537000D01*
X147508250Y-84537000D01*
X147486809Y-84535947D01*
X147465574Y-84532797D01*
X147444750Y-84527581D01*
X147424538Y-84520349D01*
X147405132Y-84511170D01*
X147386719Y-84500134D01*
X147369476Y-84487346D01*
X147353570Y-84472930D01*
X147339154Y-84457024D01*
X147326366Y-84439781D01*
X147315330Y-84421368D01*
X147306151Y-84401962D01*
X147298919Y-84381750D01*
X147293703Y-84360926D01*
X147290553Y-84339691D01*
X147289500Y-84318250D01*
X147289500Y-83880750D01*
X147290553Y-83859309D01*
X147293703Y-83838074D01*
X147298919Y-83817250D01*
X147306151Y-83797038D01*
X147315330Y-83777632D01*
X147326366Y-83759219D01*
X147339154Y-83741976D01*
X147353570Y-83726070D01*
X147369476Y-83711654D01*
X147386719Y-83698866D01*
X147405132Y-83687830D01*
X147424538Y-83678651D01*
X147444750Y-83671419D01*
X147465574Y-83666203D01*
X147486809Y-83663053D01*
X147508250Y-83662000D01*
X148020750Y-83662000D01*
X148042191Y-83663053D01*
X148042191Y-83663053D01*
G37*
D12*
X147764500Y-84099500D03*
D11*
G36*
X148042191Y-82088053D02*
G01*
X148063426Y-82091203D01*
X148084250Y-82096419D01*
X148104462Y-82103651D01*
X148123868Y-82112830D01*
X148142281Y-82123866D01*
X148159524Y-82136654D01*
X148175430Y-82151070D01*
X148189846Y-82166976D01*
X148202634Y-82184219D01*
X148213670Y-82202632D01*
X148222849Y-82222038D01*
X148230081Y-82242250D01*
X148235297Y-82263074D01*
X148238447Y-82284309D01*
X148239500Y-82305750D01*
X148239500Y-82743250D01*
X148238447Y-82764691D01*
X148235297Y-82785926D01*
X148230081Y-82806750D01*
X148222849Y-82826962D01*
X148213670Y-82846368D01*
X148202634Y-82864781D01*
X148189846Y-82882024D01*
X148175430Y-82897930D01*
X148159524Y-82912346D01*
X148142281Y-82925134D01*
X148123868Y-82936170D01*
X148104462Y-82945349D01*
X148084250Y-82952581D01*
X148063426Y-82957797D01*
X148042191Y-82960947D01*
X148020750Y-82962000D01*
X147508250Y-82962000D01*
X147486809Y-82960947D01*
X147465574Y-82957797D01*
X147444750Y-82952581D01*
X147424538Y-82945349D01*
X147405132Y-82936170D01*
X147386719Y-82925134D01*
X147369476Y-82912346D01*
X147353570Y-82897930D01*
X147339154Y-82882024D01*
X147326366Y-82864781D01*
X147315330Y-82846368D01*
X147306151Y-82826962D01*
X147298919Y-82806750D01*
X147293703Y-82785926D01*
X147290553Y-82764691D01*
X147289500Y-82743250D01*
X147289500Y-82305750D01*
X147290553Y-82284309D01*
X147293703Y-82263074D01*
X147298919Y-82242250D01*
X147306151Y-82222038D01*
X147315330Y-82202632D01*
X147326366Y-82184219D01*
X147339154Y-82166976D01*
X147353570Y-82151070D01*
X147369476Y-82136654D01*
X147386719Y-82123866D01*
X147405132Y-82112830D01*
X147424538Y-82103651D01*
X147444750Y-82096419D01*
X147465574Y-82091203D01*
X147486809Y-82088053D01*
X147508250Y-82087000D01*
X148020750Y-82087000D01*
X148042191Y-82088053D01*
X148042191Y-82088053D01*
G37*
D12*
X147764500Y-82524500D03*
D11*
G36*
X140803191Y-83536053D02*
G01*
X140824426Y-83539203D01*
X140845250Y-83544419D01*
X140865462Y-83551651D01*
X140884868Y-83560830D01*
X140903281Y-83571866D01*
X140920524Y-83584654D01*
X140936430Y-83599070D01*
X140950846Y-83614976D01*
X140963634Y-83632219D01*
X140974670Y-83650632D01*
X140983849Y-83670038D01*
X140991081Y-83690250D01*
X140996297Y-83711074D01*
X140999447Y-83732309D01*
X141000500Y-83753750D01*
X141000500Y-84191250D01*
X140999447Y-84212691D01*
X140996297Y-84233926D01*
X140991081Y-84254750D01*
X140983849Y-84274962D01*
X140974670Y-84294368D01*
X140963634Y-84312781D01*
X140950846Y-84330024D01*
X140936430Y-84345930D01*
X140920524Y-84360346D01*
X140903281Y-84373134D01*
X140884868Y-84384170D01*
X140865462Y-84393349D01*
X140845250Y-84400581D01*
X140824426Y-84405797D01*
X140803191Y-84408947D01*
X140781750Y-84410000D01*
X140269250Y-84410000D01*
X140247809Y-84408947D01*
X140226574Y-84405797D01*
X140205750Y-84400581D01*
X140185538Y-84393349D01*
X140166132Y-84384170D01*
X140147719Y-84373134D01*
X140130476Y-84360346D01*
X140114570Y-84345930D01*
X140100154Y-84330024D01*
X140087366Y-84312781D01*
X140076330Y-84294368D01*
X140067151Y-84274962D01*
X140059919Y-84254750D01*
X140054703Y-84233926D01*
X140051553Y-84212691D01*
X140050500Y-84191250D01*
X140050500Y-83753750D01*
X140051553Y-83732309D01*
X140054703Y-83711074D01*
X140059919Y-83690250D01*
X140067151Y-83670038D01*
X140076330Y-83650632D01*
X140087366Y-83632219D01*
X140100154Y-83614976D01*
X140114570Y-83599070D01*
X140130476Y-83584654D01*
X140147719Y-83571866D01*
X140166132Y-83560830D01*
X140185538Y-83551651D01*
X140205750Y-83544419D01*
X140226574Y-83539203D01*
X140247809Y-83536053D01*
X140269250Y-83535000D01*
X140781750Y-83535000D01*
X140803191Y-83536053D01*
X140803191Y-83536053D01*
G37*
D12*
X140525500Y-83972500D03*
D11*
G36*
X140803191Y-81961053D02*
G01*
X140824426Y-81964203D01*
X140845250Y-81969419D01*
X140865462Y-81976651D01*
X140884868Y-81985830D01*
X140903281Y-81996866D01*
X140920524Y-82009654D01*
X140936430Y-82024070D01*
X140950846Y-82039976D01*
X140963634Y-82057219D01*
X140974670Y-82075632D01*
X140983849Y-82095038D01*
X140991081Y-82115250D01*
X140996297Y-82136074D01*
X140999447Y-82157309D01*
X141000500Y-82178750D01*
X141000500Y-82616250D01*
X140999447Y-82637691D01*
X140996297Y-82658926D01*
X140991081Y-82679750D01*
X140983849Y-82699962D01*
X140974670Y-82719368D01*
X140963634Y-82737781D01*
X140950846Y-82755024D01*
X140936430Y-82770930D01*
X140920524Y-82785346D01*
X140903281Y-82798134D01*
X140884868Y-82809170D01*
X140865462Y-82818349D01*
X140845250Y-82825581D01*
X140824426Y-82830797D01*
X140803191Y-82833947D01*
X140781750Y-82835000D01*
X140269250Y-82835000D01*
X140247809Y-82833947D01*
X140226574Y-82830797D01*
X140205750Y-82825581D01*
X140185538Y-82818349D01*
X140166132Y-82809170D01*
X140147719Y-82798134D01*
X140130476Y-82785346D01*
X140114570Y-82770930D01*
X140100154Y-82755024D01*
X140087366Y-82737781D01*
X140076330Y-82719368D01*
X140067151Y-82699962D01*
X140059919Y-82679750D01*
X140054703Y-82658926D01*
X140051553Y-82637691D01*
X140050500Y-82616250D01*
X140050500Y-82178750D01*
X140051553Y-82157309D01*
X140054703Y-82136074D01*
X140059919Y-82115250D01*
X140067151Y-82095038D01*
X140076330Y-82075632D01*
X140087366Y-82057219D01*
X140100154Y-82039976D01*
X140114570Y-82024070D01*
X140130476Y-82009654D01*
X140147719Y-81996866D01*
X140166132Y-81985830D01*
X140185538Y-81976651D01*
X140205750Y-81969419D01*
X140226574Y-81964203D01*
X140247809Y-81961053D01*
X140269250Y-81960000D01*
X140781750Y-81960000D01*
X140803191Y-81961053D01*
X140803191Y-81961053D01*
G37*
D12*
X140525500Y-82397500D03*
D20*
X130238500Y-85360000D03*
X131188500Y-87360000D03*
X129288500Y-87360000D03*
X141986000Y-97139000D03*
X141036000Y-95139000D03*
X142936000Y-95139000D03*
D19*
X146034000Y-91059000D03*
X144034000Y-92009000D03*
X144034000Y-90109000D03*
X146161000Y-85788500D03*
X144161000Y-86738500D03*
X144161000Y-84838500D03*
D15*
X152400000Y-84391500D03*
D16*
X152400000Y-81851500D03*
D15*
X152400000Y-95567500D03*
D16*
X152400000Y-93027500D03*
D11*
G36*
X148203458Y-95883210D02*
G01*
X148217776Y-95885334D01*
X148231817Y-95888851D01*
X148245446Y-95893728D01*
X148258531Y-95899917D01*
X148270947Y-95907358D01*
X148282573Y-95915981D01*
X148293298Y-95925702D01*
X148303019Y-95936427D01*
X148311642Y-95948053D01*
X148319083Y-95960469D01*
X148325272Y-95973554D01*
X148330149Y-95987183D01*
X148333666Y-96001224D01*
X148335790Y-96015542D01*
X148336500Y-96030000D01*
X148336500Y-96375000D01*
X148335790Y-96389458D01*
X148333666Y-96403776D01*
X148330149Y-96417817D01*
X148325272Y-96431446D01*
X148319083Y-96444531D01*
X148311642Y-96456947D01*
X148303019Y-96468573D01*
X148293298Y-96479298D01*
X148282573Y-96489019D01*
X148270947Y-96497642D01*
X148258531Y-96505083D01*
X148245446Y-96511272D01*
X148231817Y-96516149D01*
X148217776Y-96519666D01*
X148203458Y-96521790D01*
X148189000Y-96522500D01*
X147894000Y-96522500D01*
X147879542Y-96521790D01*
X147865224Y-96519666D01*
X147851183Y-96516149D01*
X147837554Y-96511272D01*
X147824469Y-96505083D01*
X147812053Y-96497642D01*
X147800427Y-96489019D01*
X147789702Y-96479298D01*
X147779981Y-96468573D01*
X147771358Y-96456947D01*
X147763917Y-96444531D01*
X147757728Y-96431446D01*
X147752851Y-96417817D01*
X147749334Y-96403776D01*
X147747210Y-96389458D01*
X147746500Y-96375000D01*
X147746500Y-96030000D01*
X147747210Y-96015542D01*
X147749334Y-96001224D01*
X147752851Y-95987183D01*
X147757728Y-95973554D01*
X147763917Y-95960469D01*
X147771358Y-95948053D01*
X147779981Y-95936427D01*
X147789702Y-95925702D01*
X147800427Y-95915981D01*
X147812053Y-95907358D01*
X147824469Y-95899917D01*
X147837554Y-95893728D01*
X147851183Y-95888851D01*
X147865224Y-95885334D01*
X147879542Y-95883210D01*
X147894000Y-95882500D01*
X148189000Y-95882500D01*
X148203458Y-95883210D01*
X148203458Y-95883210D01*
G37*
D21*
X148041500Y-96202500D03*
D11*
G36*
X149173458Y-95883210D02*
G01*
X149187776Y-95885334D01*
X149201817Y-95888851D01*
X149215446Y-95893728D01*
X149228531Y-95899917D01*
X149240947Y-95907358D01*
X149252573Y-95915981D01*
X149263298Y-95925702D01*
X149273019Y-95936427D01*
X149281642Y-95948053D01*
X149289083Y-95960469D01*
X149295272Y-95973554D01*
X149300149Y-95987183D01*
X149303666Y-96001224D01*
X149305790Y-96015542D01*
X149306500Y-96030000D01*
X149306500Y-96375000D01*
X149305790Y-96389458D01*
X149303666Y-96403776D01*
X149300149Y-96417817D01*
X149295272Y-96431446D01*
X149289083Y-96444531D01*
X149281642Y-96456947D01*
X149273019Y-96468573D01*
X149263298Y-96479298D01*
X149252573Y-96489019D01*
X149240947Y-96497642D01*
X149228531Y-96505083D01*
X149215446Y-96511272D01*
X149201817Y-96516149D01*
X149187776Y-96519666D01*
X149173458Y-96521790D01*
X149159000Y-96522500D01*
X148864000Y-96522500D01*
X148849542Y-96521790D01*
X148835224Y-96519666D01*
X148821183Y-96516149D01*
X148807554Y-96511272D01*
X148794469Y-96505083D01*
X148782053Y-96497642D01*
X148770427Y-96489019D01*
X148759702Y-96479298D01*
X148749981Y-96468573D01*
X148741358Y-96456947D01*
X148733917Y-96444531D01*
X148727728Y-96431446D01*
X148722851Y-96417817D01*
X148719334Y-96403776D01*
X148717210Y-96389458D01*
X148716500Y-96375000D01*
X148716500Y-96030000D01*
X148717210Y-96015542D01*
X148719334Y-96001224D01*
X148722851Y-95987183D01*
X148727728Y-95973554D01*
X148733917Y-95960469D01*
X148741358Y-95948053D01*
X148749981Y-95936427D01*
X148759702Y-95925702D01*
X148770427Y-95915981D01*
X148782053Y-95907358D01*
X148794469Y-95899917D01*
X148807554Y-95893728D01*
X148821183Y-95888851D01*
X148835224Y-95885334D01*
X148849542Y-95883210D01*
X148864000Y-95882500D01*
X149159000Y-95882500D01*
X149173458Y-95883210D01*
X149173458Y-95883210D01*
G37*
D21*
X149011500Y-96202500D03*
D11*
G36*
X151505458Y-89533210D02*
G01*
X151519776Y-89535334D01*
X151533817Y-89538851D01*
X151547446Y-89543728D01*
X151560531Y-89549917D01*
X151572947Y-89557358D01*
X151584573Y-89565981D01*
X151595298Y-89575702D01*
X151605019Y-89586427D01*
X151613642Y-89598053D01*
X151621083Y-89610469D01*
X151627272Y-89623554D01*
X151632149Y-89637183D01*
X151635666Y-89651224D01*
X151637790Y-89665542D01*
X151638500Y-89680000D01*
X151638500Y-90025000D01*
X151637790Y-90039458D01*
X151635666Y-90053776D01*
X151632149Y-90067817D01*
X151627272Y-90081446D01*
X151621083Y-90094531D01*
X151613642Y-90106947D01*
X151605019Y-90118573D01*
X151595298Y-90129298D01*
X151584573Y-90139019D01*
X151572947Y-90147642D01*
X151560531Y-90155083D01*
X151547446Y-90161272D01*
X151533817Y-90166149D01*
X151519776Y-90169666D01*
X151505458Y-90171790D01*
X151491000Y-90172500D01*
X151196000Y-90172500D01*
X151181542Y-90171790D01*
X151167224Y-90169666D01*
X151153183Y-90166149D01*
X151139554Y-90161272D01*
X151126469Y-90155083D01*
X151114053Y-90147642D01*
X151102427Y-90139019D01*
X151091702Y-90129298D01*
X151081981Y-90118573D01*
X151073358Y-90106947D01*
X151065917Y-90094531D01*
X151059728Y-90081446D01*
X151054851Y-90067817D01*
X151051334Y-90053776D01*
X151049210Y-90039458D01*
X151048500Y-90025000D01*
X151048500Y-89680000D01*
X151049210Y-89665542D01*
X151051334Y-89651224D01*
X151054851Y-89637183D01*
X151059728Y-89623554D01*
X151065917Y-89610469D01*
X151073358Y-89598053D01*
X151081981Y-89586427D01*
X151091702Y-89575702D01*
X151102427Y-89565981D01*
X151114053Y-89557358D01*
X151126469Y-89549917D01*
X151139554Y-89543728D01*
X151153183Y-89538851D01*
X151167224Y-89535334D01*
X151181542Y-89533210D01*
X151196000Y-89532500D01*
X151491000Y-89532500D01*
X151505458Y-89533210D01*
X151505458Y-89533210D01*
G37*
D21*
X151343500Y-89852500D03*
D11*
G36*
X152475458Y-89533210D02*
G01*
X152489776Y-89535334D01*
X152503817Y-89538851D01*
X152517446Y-89543728D01*
X152530531Y-89549917D01*
X152542947Y-89557358D01*
X152554573Y-89565981D01*
X152565298Y-89575702D01*
X152575019Y-89586427D01*
X152583642Y-89598053D01*
X152591083Y-89610469D01*
X152597272Y-89623554D01*
X152602149Y-89637183D01*
X152605666Y-89651224D01*
X152607790Y-89665542D01*
X152608500Y-89680000D01*
X152608500Y-90025000D01*
X152607790Y-90039458D01*
X152605666Y-90053776D01*
X152602149Y-90067817D01*
X152597272Y-90081446D01*
X152591083Y-90094531D01*
X152583642Y-90106947D01*
X152575019Y-90118573D01*
X152565298Y-90129298D01*
X152554573Y-90139019D01*
X152542947Y-90147642D01*
X152530531Y-90155083D01*
X152517446Y-90161272D01*
X152503817Y-90166149D01*
X152489776Y-90169666D01*
X152475458Y-90171790D01*
X152461000Y-90172500D01*
X152166000Y-90172500D01*
X152151542Y-90171790D01*
X152137224Y-90169666D01*
X152123183Y-90166149D01*
X152109554Y-90161272D01*
X152096469Y-90155083D01*
X152084053Y-90147642D01*
X152072427Y-90139019D01*
X152061702Y-90129298D01*
X152051981Y-90118573D01*
X152043358Y-90106947D01*
X152035917Y-90094531D01*
X152029728Y-90081446D01*
X152024851Y-90067817D01*
X152021334Y-90053776D01*
X152019210Y-90039458D01*
X152018500Y-90025000D01*
X152018500Y-89680000D01*
X152019210Y-89665542D01*
X152021334Y-89651224D01*
X152024851Y-89637183D01*
X152029728Y-89623554D01*
X152035917Y-89610469D01*
X152043358Y-89598053D01*
X152051981Y-89586427D01*
X152061702Y-89575702D01*
X152072427Y-89565981D01*
X152084053Y-89557358D01*
X152096469Y-89549917D01*
X152109554Y-89543728D01*
X152123183Y-89538851D01*
X152137224Y-89535334D01*
X152151542Y-89533210D01*
X152166000Y-89532500D01*
X152461000Y-89532500D01*
X152475458Y-89533210D01*
X152475458Y-89533210D01*
G37*
D21*
X152313500Y-89852500D03*
D19*
X136509000Y-82867500D03*
X134509000Y-83817500D03*
X134509000Y-81917500D03*
D11*
G36*
X134631958Y-88580710D02*
G01*
X134646276Y-88582834D01*
X134660317Y-88586351D01*
X134673946Y-88591228D01*
X134687031Y-88597417D01*
X134699447Y-88604858D01*
X134711073Y-88613481D01*
X134721798Y-88623202D01*
X134731519Y-88633927D01*
X134740142Y-88645553D01*
X134747583Y-88657969D01*
X134753772Y-88671054D01*
X134758649Y-88684683D01*
X134762166Y-88698724D01*
X134764290Y-88713042D01*
X134765000Y-88727500D01*
X134765000Y-89072500D01*
X134764290Y-89086958D01*
X134762166Y-89101276D01*
X134758649Y-89115317D01*
X134753772Y-89128946D01*
X134747583Y-89142031D01*
X134740142Y-89154447D01*
X134731519Y-89166073D01*
X134721798Y-89176798D01*
X134711073Y-89186519D01*
X134699447Y-89195142D01*
X134687031Y-89202583D01*
X134673946Y-89208772D01*
X134660317Y-89213649D01*
X134646276Y-89217166D01*
X134631958Y-89219290D01*
X134617500Y-89220000D01*
X134322500Y-89220000D01*
X134308042Y-89219290D01*
X134293724Y-89217166D01*
X134279683Y-89213649D01*
X134266054Y-89208772D01*
X134252969Y-89202583D01*
X134240553Y-89195142D01*
X134228927Y-89186519D01*
X134218202Y-89176798D01*
X134208481Y-89166073D01*
X134199858Y-89154447D01*
X134192417Y-89142031D01*
X134186228Y-89128946D01*
X134181351Y-89115317D01*
X134177834Y-89101276D01*
X134175710Y-89086958D01*
X134175000Y-89072500D01*
X134175000Y-88727500D01*
X134175710Y-88713042D01*
X134177834Y-88698724D01*
X134181351Y-88684683D01*
X134186228Y-88671054D01*
X134192417Y-88657969D01*
X134199858Y-88645553D01*
X134208481Y-88633927D01*
X134218202Y-88623202D01*
X134228927Y-88613481D01*
X134240553Y-88604858D01*
X134252969Y-88597417D01*
X134266054Y-88591228D01*
X134279683Y-88586351D01*
X134293724Y-88582834D01*
X134308042Y-88580710D01*
X134322500Y-88580000D01*
X134617500Y-88580000D01*
X134631958Y-88580710D01*
X134631958Y-88580710D01*
G37*
D21*
X134470000Y-88900000D03*
D11*
G36*
X133661958Y-88580710D02*
G01*
X133676276Y-88582834D01*
X133690317Y-88586351D01*
X133703946Y-88591228D01*
X133717031Y-88597417D01*
X133729447Y-88604858D01*
X133741073Y-88613481D01*
X133751798Y-88623202D01*
X133761519Y-88633927D01*
X133770142Y-88645553D01*
X133777583Y-88657969D01*
X133783772Y-88671054D01*
X133788649Y-88684683D01*
X133792166Y-88698724D01*
X133794290Y-88713042D01*
X133795000Y-88727500D01*
X133795000Y-89072500D01*
X133794290Y-89086958D01*
X133792166Y-89101276D01*
X133788649Y-89115317D01*
X133783772Y-89128946D01*
X133777583Y-89142031D01*
X133770142Y-89154447D01*
X133761519Y-89166073D01*
X133751798Y-89176798D01*
X133741073Y-89186519D01*
X133729447Y-89195142D01*
X133717031Y-89202583D01*
X133703946Y-89208772D01*
X133690317Y-89213649D01*
X133676276Y-89217166D01*
X133661958Y-89219290D01*
X133647500Y-89220000D01*
X133352500Y-89220000D01*
X133338042Y-89219290D01*
X133323724Y-89217166D01*
X133309683Y-89213649D01*
X133296054Y-89208772D01*
X133282969Y-89202583D01*
X133270553Y-89195142D01*
X133258927Y-89186519D01*
X133248202Y-89176798D01*
X133238481Y-89166073D01*
X133229858Y-89154447D01*
X133222417Y-89142031D01*
X133216228Y-89128946D01*
X133211351Y-89115317D01*
X133207834Y-89101276D01*
X133205710Y-89086958D01*
X133205000Y-89072500D01*
X133205000Y-88727500D01*
X133205710Y-88713042D01*
X133207834Y-88698724D01*
X133211351Y-88684683D01*
X133216228Y-88671054D01*
X133222417Y-88657969D01*
X133229858Y-88645553D01*
X133238481Y-88633927D01*
X133248202Y-88623202D01*
X133258927Y-88613481D01*
X133270553Y-88604858D01*
X133282969Y-88597417D01*
X133296054Y-88591228D01*
X133309683Y-88586351D01*
X133323724Y-88582834D01*
X133338042Y-88580710D01*
X133352500Y-88580000D01*
X133647500Y-88580000D01*
X133661958Y-88580710D01*
X133661958Y-88580710D01*
G37*
D21*
X133500000Y-88900000D03*
D11*
G36*
X138489958Y-89217710D02*
G01*
X138504276Y-89219834D01*
X138518317Y-89223351D01*
X138531946Y-89228228D01*
X138545031Y-89234417D01*
X138557447Y-89241858D01*
X138569073Y-89250481D01*
X138579798Y-89260202D01*
X138589519Y-89270927D01*
X138598142Y-89282553D01*
X138605583Y-89294969D01*
X138611772Y-89308054D01*
X138616649Y-89321683D01*
X138620166Y-89335724D01*
X138622290Y-89350042D01*
X138623000Y-89364500D01*
X138623000Y-89659500D01*
X138622290Y-89673958D01*
X138620166Y-89688276D01*
X138616649Y-89702317D01*
X138611772Y-89715946D01*
X138605583Y-89729031D01*
X138598142Y-89741447D01*
X138589519Y-89753073D01*
X138579798Y-89763798D01*
X138569073Y-89773519D01*
X138557447Y-89782142D01*
X138545031Y-89789583D01*
X138531946Y-89795772D01*
X138518317Y-89800649D01*
X138504276Y-89804166D01*
X138489958Y-89806290D01*
X138475500Y-89807000D01*
X138130500Y-89807000D01*
X138116042Y-89806290D01*
X138101724Y-89804166D01*
X138087683Y-89800649D01*
X138074054Y-89795772D01*
X138060969Y-89789583D01*
X138048553Y-89782142D01*
X138036927Y-89773519D01*
X138026202Y-89763798D01*
X138016481Y-89753073D01*
X138007858Y-89741447D01*
X138000417Y-89729031D01*
X137994228Y-89715946D01*
X137989351Y-89702317D01*
X137985834Y-89688276D01*
X137983710Y-89673958D01*
X137983000Y-89659500D01*
X137983000Y-89364500D01*
X137983710Y-89350042D01*
X137985834Y-89335724D01*
X137989351Y-89321683D01*
X137994228Y-89308054D01*
X138000417Y-89294969D01*
X138007858Y-89282553D01*
X138016481Y-89270927D01*
X138026202Y-89260202D01*
X138036927Y-89250481D01*
X138048553Y-89241858D01*
X138060969Y-89234417D01*
X138074054Y-89228228D01*
X138087683Y-89223351D01*
X138101724Y-89219834D01*
X138116042Y-89217710D01*
X138130500Y-89217000D01*
X138475500Y-89217000D01*
X138489958Y-89217710D01*
X138489958Y-89217710D01*
G37*
D21*
X138303000Y-89512000D03*
D11*
G36*
X138489958Y-88247710D02*
G01*
X138504276Y-88249834D01*
X138518317Y-88253351D01*
X138531946Y-88258228D01*
X138545031Y-88264417D01*
X138557447Y-88271858D01*
X138569073Y-88280481D01*
X138579798Y-88290202D01*
X138589519Y-88300927D01*
X138598142Y-88312553D01*
X138605583Y-88324969D01*
X138611772Y-88338054D01*
X138616649Y-88351683D01*
X138620166Y-88365724D01*
X138622290Y-88380042D01*
X138623000Y-88394500D01*
X138623000Y-88689500D01*
X138622290Y-88703958D01*
X138620166Y-88718276D01*
X138616649Y-88732317D01*
X138611772Y-88745946D01*
X138605583Y-88759031D01*
X138598142Y-88771447D01*
X138589519Y-88783073D01*
X138579798Y-88793798D01*
X138569073Y-88803519D01*
X138557447Y-88812142D01*
X138545031Y-88819583D01*
X138531946Y-88825772D01*
X138518317Y-88830649D01*
X138504276Y-88834166D01*
X138489958Y-88836290D01*
X138475500Y-88837000D01*
X138130500Y-88837000D01*
X138116042Y-88836290D01*
X138101724Y-88834166D01*
X138087683Y-88830649D01*
X138074054Y-88825772D01*
X138060969Y-88819583D01*
X138048553Y-88812142D01*
X138036927Y-88803519D01*
X138026202Y-88793798D01*
X138016481Y-88783073D01*
X138007858Y-88771447D01*
X138000417Y-88759031D01*
X137994228Y-88745946D01*
X137989351Y-88732317D01*
X137985834Y-88718276D01*
X137983710Y-88703958D01*
X137983000Y-88689500D01*
X137983000Y-88394500D01*
X137983710Y-88380042D01*
X137985834Y-88365724D01*
X137989351Y-88351683D01*
X137994228Y-88338054D01*
X138000417Y-88324969D01*
X138007858Y-88312553D01*
X138016481Y-88300927D01*
X138026202Y-88290202D01*
X138036927Y-88280481D01*
X138048553Y-88271858D01*
X138060969Y-88264417D01*
X138074054Y-88258228D01*
X138087683Y-88253351D01*
X138101724Y-88249834D01*
X138116042Y-88247710D01*
X138130500Y-88247000D01*
X138475500Y-88247000D01*
X138489958Y-88247710D01*
X138489958Y-88247710D01*
G37*
D21*
X138303000Y-88542000D03*
D11*
G36*
X150110458Y-90487710D02*
G01*
X150124776Y-90489834D01*
X150138817Y-90493351D01*
X150152446Y-90498228D01*
X150165531Y-90504417D01*
X150177947Y-90511858D01*
X150189573Y-90520481D01*
X150200298Y-90530202D01*
X150210019Y-90540927D01*
X150218642Y-90552553D01*
X150226083Y-90564969D01*
X150232272Y-90578054D01*
X150237149Y-90591683D01*
X150240666Y-90605724D01*
X150242790Y-90620042D01*
X150243500Y-90634500D01*
X150243500Y-90929500D01*
X150242790Y-90943958D01*
X150240666Y-90958276D01*
X150237149Y-90972317D01*
X150232272Y-90985946D01*
X150226083Y-90999031D01*
X150218642Y-91011447D01*
X150210019Y-91023073D01*
X150200298Y-91033798D01*
X150189573Y-91043519D01*
X150177947Y-91052142D01*
X150165531Y-91059583D01*
X150152446Y-91065772D01*
X150138817Y-91070649D01*
X150124776Y-91074166D01*
X150110458Y-91076290D01*
X150096000Y-91077000D01*
X149751000Y-91077000D01*
X149736542Y-91076290D01*
X149722224Y-91074166D01*
X149708183Y-91070649D01*
X149694554Y-91065772D01*
X149681469Y-91059583D01*
X149669053Y-91052142D01*
X149657427Y-91043519D01*
X149646702Y-91033798D01*
X149636981Y-91023073D01*
X149628358Y-91011447D01*
X149620917Y-90999031D01*
X149614728Y-90985946D01*
X149609851Y-90972317D01*
X149606334Y-90958276D01*
X149604210Y-90943958D01*
X149603500Y-90929500D01*
X149603500Y-90634500D01*
X149604210Y-90620042D01*
X149606334Y-90605724D01*
X149609851Y-90591683D01*
X149614728Y-90578054D01*
X149620917Y-90564969D01*
X149628358Y-90552553D01*
X149636981Y-90540927D01*
X149646702Y-90530202D01*
X149657427Y-90520481D01*
X149669053Y-90511858D01*
X149681469Y-90504417D01*
X149694554Y-90498228D01*
X149708183Y-90493351D01*
X149722224Y-90489834D01*
X149736542Y-90487710D01*
X149751000Y-90487000D01*
X150096000Y-90487000D01*
X150110458Y-90487710D01*
X150110458Y-90487710D01*
G37*
D21*
X149923500Y-90782000D03*
D11*
G36*
X150110458Y-89517710D02*
G01*
X150124776Y-89519834D01*
X150138817Y-89523351D01*
X150152446Y-89528228D01*
X150165531Y-89534417D01*
X150177947Y-89541858D01*
X150189573Y-89550481D01*
X150200298Y-89560202D01*
X150210019Y-89570927D01*
X150218642Y-89582553D01*
X150226083Y-89594969D01*
X150232272Y-89608054D01*
X150237149Y-89621683D01*
X150240666Y-89635724D01*
X150242790Y-89650042D01*
X150243500Y-89664500D01*
X150243500Y-89959500D01*
X150242790Y-89973958D01*
X150240666Y-89988276D01*
X150237149Y-90002317D01*
X150232272Y-90015946D01*
X150226083Y-90029031D01*
X150218642Y-90041447D01*
X150210019Y-90053073D01*
X150200298Y-90063798D01*
X150189573Y-90073519D01*
X150177947Y-90082142D01*
X150165531Y-90089583D01*
X150152446Y-90095772D01*
X150138817Y-90100649D01*
X150124776Y-90104166D01*
X150110458Y-90106290D01*
X150096000Y-90107000D01*
X149751000Y-90107000D01*
X149736542Y-90106290D01*
X149722224Y-90104166D01*
X149708183Y-90100649D01*
X149694554Y-90095772D01*
X149681469Y-90089583D01*
X149669053Y-90082142D01*
X149657427Y-90073519D01*
X149646702Y-90063798D01*
X149636981Y-90053073D01*
X149628358Y-90041447D01*
X149620917Y-90029031D01*
X149614728Y-90015946D01*
X149609851Y-90002317D01*
X149606334Y-89988276D01*
X149604210Y-89973958D01*
X149603500Y-89959500D01*
X149603500Y-89664500D01*
X149604210Y-89650042D01*
X149606334Y-89635724D01*
X149609851Y-89621683D01*
X149614728Y-89608054D01*
X149620917Y-89594969D01*
X149628358Y-89582553D01*
X149636981Y-89570927D01*
X149646702Y-89560202D01*
X149657427Y-89550481D01*
X149669053Y-89541858D01*
X149681469Y-89534417D01*
X149694554Y-89528228D01*
X149708183Y-89523351D01*
X149722224Y-89519834D01*
X149736542Y-89517710D01*
X149751000Y-89517000D01*
X150096000Y-89517000D01*
X150110458Y-89517710D01*
X150110458Y-89517710D01*
G37*
D21*
X149923500Y-89812000D03*
D22*
X138303000Y-90551000D03*
X132334000Y-94996000D03*
X127889000Y-89154000D03*
X144843500Y-97536000D03*
X148018500Y-95059500D03*
X148018500Y-91948000D03*
X149923500Y-91757500D03*
X152273000Y-86487000D03*
X140271500Y-100203000D03*
X134620000Y-100457000D03*
X124396500Y-90805000D03*
X139382500Y-85979000D03*
X142811500Y-85915500D03*
X129159000Y-89027000D03*
X138049000Y-96075500D03*
X127444500Y-92011500D03*
X134302500Y-99250500D03*
X134302500Y-97218500D03*
X132080000Y-96194500D03*
X132080000Y-97853500D03*
X146939000Y-94297500D03*
X147011000Y-87884000D03*
X126111000Y-95821500D03*
X126111000Y-93154500D03*
D23*
X144843500Y-96228000D02*
X144843500Y-97536000D01*
X148041500Y-96202500D02*
X148041500Y-95082500D01*
X148041500Y-95082500D02*
X148018500Y-95059500D01*
X148018500Y-90767000D02*
X148018500Y-91948000D01*
X149908500Y-90767000D02*
X149923500Y-90782000D01*
X149923500Y-90782000D02*
X149923500Y-91757500D01*
X144446500Y-97139000D02*
X144843500Y-97536000D01*
X141986000Y-97139000D02*
X144446500Y-97139000D01*
X139108000Y-100203000D02*
X140271500Y-100203000D01*
X135547000Y-101282500D02*
X135445500Y-101282500D01*
X135445500Y-101282500D02*
X134620000Y-100457000D01*
X151765000Y-86995000D02*
X152273000Y-86487000D01*
X150774500Y-86995000D02*
X151765000Y-86995000D01*
X127254000Y-88519000D02*
X127889000Y-89154000D01*
X126539500Y-88519000D02*
X127254000Y-88519000D01*
X124434500Y-92011500D02*
X124434500Y-90843000D01*
X124434500Y-90843000D02*
X124396500Y-90805000D01*
X144843500Y-98895000D02*
X144615000Y-99123500D01*
X144843500Y-97536000D02*
X144843500Y-98895000D01*
X152273000Y-84518500D02*
X152400000Y-84391500D01*
X152273000Y-86487000D02*
X152273000Y-84518500D01*
X132334000Y-94996000D02*
X132464000Y-94996000D01*
X138303000Y-90551000D02*
X138303000Y-89512000D01*
X132334000Y-93688000D02*
X132334000Y-94996000D01*
X149303500Y-89192000D02*
X148018500Y-89192000D01*
X149923500Y-89812000D02*
X149303500Y-89192000D01*
X146161000Y-90932000D02*
X146034000Y-91059000D01*
X146170500Y-89192000D02*
X146161000Y-89201500D01*
X146161000Y-85788500D02*
X146161000Y-89201500D01*
X148018500Y-89192000D02*
X146170500Y-89192000D01*
X146161000Y-89201500D02*
X146161000Y-90932000D01*
X151303000Y-89812000D02*
X151343500Y-89852500D01*
X149923500Y-89812000D02*
X151303000Y-89812000D01*
X139969000Y-88542000D02*
X140017500Y-88493500D01*
X138303000Y-88542000D02*
X139969000Y-88542000D01*
X144161000Y-87638500D02*
X144161000Y-86738500D01*
X143306000Y-88493500D02*
X144161000Y-87638500D01*
X140017500Y-88493500D02*
X143306000Y-88493500D01*
X140525500Y-87985500D02*
X140017500Y-88493500D01*
X140525500Y-83972500D02*
X140525500Y-87985500D01*
X134470000Y-87107000D02*
X134772500Y-86804500D01*
X134470000Y-88900000D02*
X134470000Y-87107000D01*
X135610500Y-86804500D02*
X136436000Y-85979000D01*
X134772500Y-86804500D02*
X135610500Y-86804500D01*
X136461500Y-85953500D02*
X136436000Y-85979000D01*
X137261500Y-82867500D02*
X138366500Y-83972500D01*
X136509000Y-82867500D02*
X137261500Y-82867500D01*
X136436000Y-85903000D02*
X138366500Y-83972500D01*
X136436000Y-85979000D02*
X136436000Y-85903000D01*
X143084000Y-85915500D02*
X144161000Y-84838500D01*
X142811500Y-85915500D02*
X143084000Y-85915500D01*
X147025500Y-84838500D02*
X147764500Y-84099500D01*
X144161000Y-84838500D02*
X147025500Y-84838500D01*
X138011000Y-85979000D02*
X139382500Y-85979000D01*
X136420500Y-92773500D02*
X138620500Y-92773500D01*
X136080500Y-92433500D02*
X136420500Y-92773500D01*
X136080500Y-87909500D02*
X136080500Y-92433500D01*
X138011000Y-85979000D02*
X136080500Y-87909500D01*
X133500000Y-87107000D02*
X133197500Y-86804500D01*
X133500000Y-88900000D02*
X133500000Y-87107000D01*
X132642000Y-87360000D02*
X133197500Y-86804500D01*
X131188500Y-87360000D02*
X132642000Y-87360000D01*
X140652500Y-82524500D02*
X140525500Y-82397500D01*
X147637500Y-82397500D02*
X147764500Y-82524500D01*
X140525500Y-82397500D02*
X147637500Y-82397500D01*
X147764500Y-82524500D02*
X149669500Y-82524500D01*
X134509000Y-84717500D02*
X134509000Y-83817500D01*
X133866500Y-85360000D02*
X134509000Y-84717500D01*
X130238500Y-85360000D02*
X133866500Y-85360000D01*
X134559000Y-83817500D02*
X135509000Y-82867500D01*
X134509000Y-83817500D02*
X134559000Y-83817500D01*
X135509000Y-82207498D02*
X136182498Y-81534000D01*
X135509000Y-82867500D02*
X135509000Y-82207498D01*
X137503000Y-81534000D02*
X138366500Y-82397500D01*
X136182498Y-81534000D02*
X137503000Y-81534000D01*
X138366500Y-82397500D02*
X140525500Y-82397500D01*
X151727000Y-82524500D02*
X152400000Y-81851500D01*
X149669500Y-82524500D02*
X151727000Y-82524500D01*
X152313500Y-92923500D02*
X152209500Y-93027500D01*
X152400000Y-89939000D02*
X152313500Y-89852500D01*
X152400000Y-93027500D02*
X152400000Y-89939000D01*
X151765000Y-96202500D02*
X152400000Y-95567500D01*
X149011500Y-96202500D02*
X151765000Y-96202500D01*
X144011000Y-91986000D02*
X144034000Y-92009000D01*
X141084500Y-90068500D02*
X142049500Y-91033500D01*
X140017500Y-90068500D02*
X141084500Y-90068500D01*
X143058500Y-91033500D02*
X144034000Y-92009000D01*
X142049500Y-91033500D02*
X143058500Y-91033500D01*
D24*
X141020000Y-95123000D02*
X141036000Y-95139000D01*
X136868000Y-95123000D02*
X141020000Y-95123000D01*
D23*
X142049500Y-94252500D02*
X142936000Y-95139000D01*
X142049500Y-92608500D02*
X142049500Y-94252500D01*
X130930000Y-89001500D02*
X131953000Y-89001500D01*
X129288500Y-87360000D02*
X130930000Y-89001500D01*
X131378000Y-90576500D02*
X131953000Y-90576500D01*
X126597000Y-90576500D02*
X131378000Y-90576500D01*
X125489500Y-89469000D02*
X126597000Y-90576500D01*
X124539500Y-89469000D02*
X125489500Y-89469000D01*
X131953000Y-91732000D02*
X132334000Y-92113000D01*
X131953000Y-90576500D02*
X131953000Y-91732000D01*
X141308000Y-98428000D02*
X141308000Y-99253000D01*
X140098500Y-97218500D02*
X141308000Y-98428000D01*
X137122000Y-97218500D02*
X140098500Y-97218500D01*
X137122000Y-97218500D02*
X137122000Y-97002500D01*
X137122000Y-97002500D02*
X138049000Y-96075500D01*
X129159000Y-88938000D02*
X129159000Y-89027000D01*
X142910500Y-99253000D02*
X143040000Y-99123500D01*
X141308000Y-99253000D02*
X142910500Y-99253000D01*
X126708000Y-86576000D02*
X129159000Y-89027000D01*
X126708000Y-85344000D02*
X126708000Y-86576000D01*
X126708000Y-83858000D02*
X129286000Y-81280000D01*
X126708000Y-85344000D02*
X126708000Y-83858000D01*
D24*
X132464002Y-96994500D02*
X134335502Y-95123000D01*
X130394500Y-96994500D02*
X132464002Y-96994500D01*
X134335502Y-95123000D02*
X135293000Y-95123000D01*
X125514502Y-93744500D02*
X124494500Y-93744500D01*
X126814502Y-95044500D02*
X125514502Y-93744500D01*
X130394500Y-95044500D02*
X126814502Y-95044500D01*
X129269500Y-94394500D02*
X127444500Y-92569500D01*
X127444500Y-92569500D02*
X127444500Y-92011500D01*
X130394500Y-94394500D02*
X129269500Y-94394500D01*
X130394500Y-99666000D02*
X129730500Y-100330000D01*
X130394500Y-97644500D02*
X130394500Y-99666000D01*
D23*
X124523500Y-87553000D02*
X124539500Y-87569000D01*
D24*
X124489500Y-87569000D02*
X124539500Y-87569000D01*
X123369408Y-88689092D02*
X124489500Y-87569000D01*
X123369408Y-94394408D02*
X123369408Y-88689092D01*
X123369500Y-94394500D02*
X123369408Y-94394408D01*
X124494500Y-94394500D02*
X123369500Y-94394500D01*
D23*
X124539500Y-85937500D02*
X125133000Y-85344000D01*
X124539500Y-87569000D02*
X124539500Y-85937500D01*
D24*
X129269500Y-95694500D02*
X127190500Y-97773500D01*
X127190500Y-99127919D02*
X127190500Y-100330000D01*
X127190500Y-97773500D02*
X127190500Y-99127919D01*
X130394500Y-95694500D02*
X129269500Y-95694500D01*
D23*
X126657000Y-100863500D02*
X127190500Y-100330000D01*
X124142500Y-100863500D02*
X126657000Y-100863500D01*
X138978500Y-101282500D02*
X139108000Y-101153000D01*
X137122000Y-101282500D02*
X138978500Y-101282500D01*
X137122000Y-100825500D02*
X135547000Y-99250500D01*
X137122000Y-101282500D02*
X137122000Y-100825500D01*
X135547000Y-99250500D02*
X134302500Y-99250500D01*
X135512401Y-97253099D02*
X135547000Y-97218500D01*
X135547000Y-97218500D02*
X134302500Y-97218500D01*
D24*
X130394500Y-96344500D02*
X131930000Y-96344500D01*
X131930000Y-96344500D02*
X132080000Y-96194500D01*
D23*
X138851500Y-99250500D02*
X138854000Y-99253000D01*
X139105500Y-99250500D02*
X139108000Y-99253000D01*
X137122000Y-99250500D02*
X139105500Y-99250500D01*
X136660388Y-98788888D02*
X137122000Y-99250500D01*
X136124999Y-98253499D02*
X136660388Y-98788888D01*
X132479999Y-98253499D02*
X136124999Y-98253499D01*
X132080000Y-97853500D02*
X132479999Y-98253499D01*
X149669500Y-86525000D02*
X149199500Y-86995000D01*
X149669500Y-84099500D02*
X149669500Y-86525000D01*
X148310500Y-87884000D02*
X149199500Y-86995000D01*
X147011000Y-87884000D02*
X148310500Y-87884000D01*
X145798500Y-101153000D02*
X147193000Y-99758500D01*
X141308000Y-101153000D02*
X145798500Y-101153000D01*
X146939000Y-99504500D02*
X147193000Y-99758500D01*
X146939000Y-94297500D02*
X146939000Y-99504500D01*
X126111000Y-97895000D02*
X126111000Y-95821500D01*
X124142500Y-99288500D02*
X124717500Y-99288500D01*
X124717500Y-99288500D02*
X126111000Y-97895000D01*
X126111000Y-92113000D02*
X126009500Y-92011500D01*
X126111000Y-93154500D02*
X126111000Y-92113000D01*
X144843500Y-94115500D02*
X144843500Y-94653000D01*
X144934001Y-94024999D02*
X144843500Y-94115500D01*
X144934001Y-90959001D02*
X144934001Y-94024999D01*
X144084000Y-90109000D02*
X144934001Y-90959001D01*
X144034000Y-90109000D02*
X144084000Y-90109000D01*
M02*
