G04 #@! TF.GenerationSoftware,KiCad,Pcbnew,5.1.2-f72e74a~84~ubuntu18.04.1*
G04 #@! TF.CreationDate,2019-12-19T12:51:00+00:00*
G04 #@! TF.ProjectId,mbus_guru,6d627573-5f67-4757-9275-2e6b69636164,rev?*
G04 #@! TF.SameCoordinates,Original*
G04 #@! TF.FileFunction,Paste,Top*
G04 #@! TF.FilePolarity,Positive*
%FSLAX46Y46*%
G04 Gerber Fmt 4.6, Leading zero omitted, Abs format (unit mm)*
G04 Created by KiCad (PCBNEW 5.1.2-f72e74a~84~ubuntu18.04.1) date 2019-12-19 12:51:00*
%MOMM*%
%LPD*%
G04 APERTURE LIST*
%ADD10C,0.100000*%
%ADD11C,0.874000*%
%ADD12R,1.799000X3.399000*%
%ADD13R,1.059000X0.649000*%
%ADD14R,3.399000X1.799000*%
%ADD15R,1.449000X0.449000*%
%ADD16R,0.899000X0.799000*%
%ADD17R,0.799000X0.899000*%
%ADD18C,0.589000*%
G04 APERTURE END LIST*
D10*
G36*
X142326917Y-92172552D02*
G01*
X142348127Y-92175698D01*
X142368927Y-92180909D01*
X142389116Y-92188132D01*
X142408500Y-92197300D01*
X142426892Y-92208324D01*
X142444115Y-92221097D01*
X142460003Y-92235497D01*
X142474403Y-92251385D01*
X142487176Y-92268608D01*
X142498200Y-92287000D01*
X142507368Y-92306384D01*
X142514591Y-92326573D01*
X142519802Y-92347373D01*
X142522948Y-92368583D01*
X142524000Y-92390000D01*
X142524000Y-92827000D01*
X142522948Y-92848417D01*
X142519802Y-92869627D01*
X142514591Y-92890427D01*
X142507368Y-92910616D01*
X142498200Y-92930000D01*
X142487176Y-92948392D01*
X142474403Y-92965615D01*
X142460003Y-92981503D01*
X142444115Y-92995903D01*
X142426892Y-93008676D01*
X142408500Y-93019700D01*
X142389116Y-93028868D01*
X142368927Y-93036091D01*
X142348127Y-93041302D01*
X142326917Y-93044448D01*
X142305500Y-93045500D01*
X141793500Y-93045500D01*
X141772083Y-93044448D01*
X141750873Y-93041302D01*
X141730073Y-93036091D01*
X141709884Y-93028868D01*
X141690500Y-93019700D01*
X141672108Y-93008676D01*
X141654885Y-92995903D01*
X141638997Y-92981503D01*
X141624597Y-92965615D01*
X141611824Y-92948392D01*
X141600800Y-92930000D01*
X141591632Y-92910616D01*
X141584409Y-92890427D01*
X141579198Y-92869627D01*
X141576052Y-92848417D01*
X141575000Y-92827000D01*
X141575000Y-92390000D01*
X141576052Y-92368583D01*
X141579198Y-92347373D01*
X141584409Y-92326573D01*
X141591632Y-92306384D01*
X141600800Y-92287000D01*
X141611824Y-92268608D01*
X141624597Y-92251385D01*
X141638997Y-92235497D01*
X141654885Y-92221097D01*
X141672108Y-92208324D01*
X141690500Y-92197300D01*
X141709884Y-92188132D01*
X141730073Y-92180909D01*
X141750873Y-92175698D01*
X141772083Y-92172552D01*
X141793500Y-92171500D01*
X142305500Y-92171500D01*
X142326917Y-92172552D01*
X142326917Y-92172552D01*
G37*
D11*
X142049500Y-92608500D03*
D10*
G36*
X142326917Y-90597552D02*
G01*
X142348127Y-90600698D01*
X142368927Y-90605909D01*
X142389116Y-90613132D01*
X142408500Y-90622300D01*
X142426892Y-90633324D01*
X142444115Y-90646097D01*
X142460003Y-90660497D01*
X142474403Y-90676385D01*
X142487176Y-90693608D01*
X142498200Y-90712000D01*
X142507368Y-90731384D01*
X142514591Y-90751573D01*
X142519802Y-90772373D01*
X142522948Y-90793583D01*
X142524000Y-90815000D01*
X142524000Y-91252000D01*
X142522948Y-91273417D01*
X142519802Y-91294627D01*
X142514591Y-91315427D01*
X142507368Y-91335616D01*
X142498200Y-91355000D01*
X142487176Y-91373392D01*
X142474403Y-91390615D01*
X142460003Y-91406503D01*
X142444115Y-91420903D01*
X142426892Y-91433676D01*
X142408500Y-91444700D01*
X142389116Y-91453868D01*
X142368927Y-91461091D01*
X142348127Y-91466302D01*
X142326917Y-91469448D01*
X142305500Y-91470500D01*
X141793500Y-91470500D01*
X141772083Y-91469448D01*
X141750873Y-91466302D01*
X141730073Y-91461091D01*
X141709884Y-91453868D01*
X141690500Y-91444700D01*
X141672108Y-91433676D01*
X141654885Y-91420903D01*
X141638997Y-91406503D01*
X141624597Y-91390615D01*
X141611824Y-91373392D01*
X141600800Y-91355000D01*
X141591632Y-91335616D01*
X141584409Y-91315427D01*
X141579198Y-91294627D01*
X141576052Y-91273417D01*
X141575000Y-91252000D01*
X141575000Y-90815000D01*
X141576052Y-90793583D01*
X141579198Y-90772373D01*
X141584409Y-90751573D01*
X141591632Y-90731384D01*
X141600800Y-90712000D01*
X141611824Y-90693608D01*
X141624597Y-90676385D01*
X141638997Y-90660497D01*
X141654885Y-90646097D01*
X141672108Y-90633324D01*
X141690500Y-90622300D01*
X141709884Y-90613132D01*
X141730073Y-90605909D01*
X141750873Y-90600698D01*
X141772083Y-90597552D01*
X141793500Y-90596500D01*
X142305500Y-90596500D01*
X142326917Y-90597552D01*
X142326917Y-90597552D01*
G37*
D11*
X142049500Y-91033500D03*
D10*
G36*
X132611417Y-93252052D02*
G01*
X132632627Y-93255198D01*
X132653427Y-93260409D01*
X132673616Y-93267632D01*
X132693000Y-93276800D01*
X132711392Y-93287824D01*
X132728615Y-93300597D01*
X132744503Y-93314997D01*
X132758903Y-93330885D01*
X132771676Y-93348108D01*
X132782700Y-93366500D01*
X132791868Y-93385884D01*
X132799091Y-93406073D01*
X132804302Y-93426873D01*
X132807448Y-93448083D01*
X132808500Y-93469500D01*
X132808500Y-93906500D01*
X132807448Y-93927917D01*
X132804302Y-93949127D01*
X132799091Y-93969927D01*
X132791868Y-93990116D01*
X132782700Y-94009500D01*
X132771676Y-94027892D01*
X132758903Y-94045115D01*
X132744503Y-94061003D01*
X132728615Y-94075403D01*
X132711392Y-94088176D01*
X132693000Y-94099200D01*
X132673616Y-94108368D01*
X132653427Y-94115591D01*
X132632627Y-94120802D01*
X132611417Y-94123948D01*
X132590000Y-94125000D01*
X132078000Y-94125000D01*
X132056583Y-94123948D01*
X132035373Y-94120802D01*
X132014573Y-94115591D01*
X131994384Y-94108368D01*
X131975000Y-94099200D01*
X131956608Y-94088176D01*
X131939385Y-94075403D01*
X131923497Y-94061003D01*
X131909097Y-94045115D01*
X131896324Y-94027892D01*
X131885300Y-94009500D01*
X131876132Y-93990116D01*
X131868909Y-93969927D01*
X131863698Y-93949127D01*
X131860552Y-93927917D01*
X131859500Y-93906500D01*
X131859500Y-93469500D01*
X131860552Y-93448083D01*
X131863698Y-93426873D01*
X131868909Y-93406073D01*
X131876132Y-93385884D01*
X131885300Y-93366500D01*
X131896324Y-93348108D01*
X131909097Y-93330885D01*
X131923497Y-93314997D01*
X131939385Y-93300597D01*
X131956608Y-93287824D01*
X131975000Y-93276800D01*
X131994384Y-93267632D01*
X132014573Y-93260409D01*
X132035373Y-93255198D01*
X132056583Y-93252052D01*
X132078000Y-93251000D01*
X132590000Y-93251000D01*
X132611417Y-93252052D01*
X132611417Y-93252052D01*
G37*
D11*
X132334000Y-93688000D03*
D10*
G36*
X132611417Y-91677052D02*
G01*
X132632627Y-91680198D01*
X132653427Y-91685409D01*
X132673616Y-91692632D01*
X132693000Y-91701800D01*
X132711392Y-91712824D01*
X132728615Y-91725597D01*
X132744503Y-91739997D01*
X132758903Y-91755885D01*
X132771676Y-91773108D01*
X132782700Y-91791500D01*
X132791868Y-91810884D01*
X132799091Y-91831073D01*
X132804302Y-91851873D01*
X132807448Y-91873083D01*
X132808500Y-91894500D01*
X132808500Y-92331500D01*
X132807448Y-92352917D01*
X132804302Y-92374127D01*
X132799091Y-92394927D01*
X132791868Y-92415116D01*
X132782700Y-92434500D01*
X132771676Y-92452892D01*
X132758903Y-92470115D01*
X132744503Y-92486003D01*
X132728615Y-92500403D01*
X132711392Y-92513176D01*
X132693000Y-92524200D01*
X132673616Y-92533368D01*
X132653427Y-92540591D01*
X132632627Y-92545802D01*
X132611417Y-92548948D01*
X132590000Y-92550000D01*
X132078000Y-92550000D01*
X132056583Y-92548948D01*
X132035373Y-92545802D01*
X132014573Y-92540591D01*
X131994384Y-92533368D01*
X131975000Y-92524200D01*
X131956608Y-92513176D01*
X131939385Y-92500403D01*
X131923497Y-92486003D01*
X131909097Y-92470115D01*
X131896324Y-92452892D01*
X131885300Y-92434500D01*
X131876132Y-92415116D01*
X131868909Y-92394927D01*
X131863698Y-92374127D01*
X131860552Y-92352917D01*
X131859500Y-92331500D01*
X131859500Y-91894500D01*
X131860552Y-91873083D01*
X131863698Y-91851873D01*
X131868909Y-91831073D01*
X131876132Y-91810884D01*
X131885300Y-91791500D01*
X131896324Y-91773108D01*
X131909097Y-91755885D01*
X131923497Y-91739997D01*
X131939385Y-91725597D01*
X131956608Y-91712824D01*
X131975000Y-91701800D01*
X131994384Y-91692632D01*
X132014573Y-91685409D01*
X132035373Y-91680198D01*
X132056583Y-91677052D01*
X132078000Y-91676000D01*
X132590000Y-91676000D01*
X132611417Y-91677052D01*
X132611417Y-91677052D01*
G37*
D11*
X132334000Y-92113000D03*
D10*
G36*
X144854917Y-98650052D02*
G01*
X144876127Y-98653198D01*
X144896927Y-98658409D01*
X144917116Y-98665632D01*
X144936500Y-98674800D01*
X144954892Y-98685824D01*
X144972115Y-98698597D01*
X144988003Y-98712997D01*
X145002403Y-98728885D01*
X145015176Y-98746108D01*
X145026200Y-98764500D01*
X145035368Y-98783884D01*
X145042591Y-98804073D01*
X145047802Y-98824873D01*
X145050948Y-98846083D01*
X145052000Y-98867500D01*
X145052000Y-99379500D01*
X145050948Y-99400917D01*
X145047802Y-99422127D01*
X145042591Y-99442927D01*
X145035368Y-99463116D01*
X145026200Y-99482500D01*
X145015176Y-99500892D01*
X145002403Y-99518115D01*
X144988003Y-99534003D01*
X144972115Y-99548403D01*
X144954892Y-99561176D01*
X144936500Y-99572200D01*
X144917116Y-99581368D01*
X144896927Y-99588591D01*
X144876127Y-99593802D01*
X144854917Y-99596948D01*
X144833500Y-99598000D01*
X144396500Y-99598000D01*
X144375083Y-99596948D01*
X144353873Y-99593802D01*
X144333073Y-99588591D01*
X144312884Y-99581368D01*
X144293500Y-99572200D01*
X144275108Y-99561176D01*
X144257885Y-99548403D01*
X144241997Y-99534003D01*
X144227597Y-99518115D01*
X144214824Y-99500892D01*
X144203800Y-99482500D01*
X144194632Y-99463116D01*
X144187409Y-99442927D01*
X144182198Y-99422127D01*
X144179052Y-99400917D01*
X144178000Y-99379500D01*
X144178000Y-98867500D01*
X144179052Y-98846083D01*
X144182198Y-98824873D01*
X144187409Y-98804073D01*
X144194632Y-98783884D01*
X144203800Y-98764500D01*
X144214824Y-98746108D01*
X144227597Y-98728885D01*
X144241997Y-98712997D01*
X144257885Y-98698597D01*
X144275108Y-98685824D01*
X144293500Y-98674800D01*
X144312884Y-98665632D01*
X144333073Y-98658409D01*
X144353873Y-98653198D01*
X144375083Y-98650052D01*
X144396500Y-98649000D01*
X144833500Y-98649000D01*
X144854917Y-98650052D01*
X144854917Y-98650052D01*
G37*
D11*
X144615000Y-99123500D03*
D10*
G36*
X143279917Y-98650052D02*
G01*
X143301127Y-98653198D01*
X143321927Y-98658409D01*
X143342116Y-98665632D01*
X143361500Y-98674800D01*
X143379892Y-98685824D01*
X143397115Y-98698597D01*
X143413003Y-98712997D01*
X143427403Y-98728885D01*
X143440176Y-98746108D01*
X143451200Y-98764500D01*
X143460368Y-98783884D01*
X143467591Y-98804073D01*
X143472802Y-98824873D01*
X143475948Y-98846083D01*
X143477000Y-98867500D01*
X143477000Y-99379500D01*
X143475948Y-99400917D01*
X143472802Y-99422127D01*
X143467591Y-99442927D01*
X143460368Y-99463116D01*
X143451200Y-99482500D01*
X143440176Y-99500892D01*
X143427403Y-99518115D01*
X143413003Y-99534003D01*
X143397115Y-99548403D01*
X143379892Y-99561176D01*
X143361500Y-99572200D01*
X143342116Y-99581368D01*
X143321927Y-99588591D01*
X143301127Y-99593802D01*
X143279917Y-99596948D01*
X143258500Y-99598000D01*
X142821500Y-99598000D01*
X142800083Y-99596948D01*
X142778873Y-99593802D01*
X142758073Y-99588591D01*
X142737884Y-99581368D01*
X142718500Y-99572200D01*
X142700108Y-99561176D01*
X142682885Y-99548403D01*
X142666997Y-99534003D01*
X142652597Y-99518115D01*
X142639824Y-99500892D01*
X142628800Y-99482500D01*
X142619632Y-99463116D01*
X142612409Y-99442927D01*
X142607198Y-99422127D01*
X142604052Y-99400917D01*
X142603000Y-99379500D01*
X142603000Y-98867500D01*
X142604052Y-98846083D01*
X142607198Y-98824873D01*
X142612409Y-98804073D01*
X142619632Y-98783884D01*
X142628800Y-98764500D01*
X142639824Y-98746108D01*
X142652597Y-98728885D01*
X142666997Y-98712997D01*
X142682885Y-98698597D01*
X142700108Y-98685824D01*
X142718500Y-98674800D01*
X142737884Y-98665632D01*
X142758073Y-98658409D01*
X142778873Y-98653198D01*
X142800083Y-98650052D01*
X142821500Y-98649000D01*
X143258500Y-98649000D01*
X143279917Y-98650052D01*
X143279917Y-98650052D01*
G37*
D11*
X143040000Y-99123500D03*
D10*
G36*
X136675917Y-85505552D02*
G01*
X136697127Y-85508698D01*
X136717927Y-85513909D01*
X136738116Y-85521132D01*
X136757500Y-85530300D01*
X136775892Y-85541324D01*
X136793115Y-85554097D01*
X136809003Y-85568497D01*
X136823403Y-85584385D01*
X136836176Y-85601608D01*
X136847200Y-85620000D01*
X136856368Y-85639384D01*
X136863591Y-85659573D01*
X136868802Y-85680373D01*
X136871948Y-85701583D01*
X136873000Y-85723000D01*
X136873000Y-86235000D01*
X136871948Y-86256417D01*
X136868802Y-86277627D01*
X136863591Y-86298427D01*
X136856368Y-86318616D01*
X136847200Y-86338000D01*
X136836176Y-86356392D01*
X136823403Y-86373615D01*
X136809003Y-86389503D01*
X136793115Y-86403903D01*
X136775892Y-86416676D01*
X136757500Y-86427700D01*
X136738116Y-86436868D01*
X136717927Y-86444091D01*
X136697127Y-86449302D01*
X136675917Y-86452448D01*
X136654500Y-86453500D01*
X136217500Y-86453500D01*
X136196083Y-86452448D01*
X136174873Y-86449302D01*
X136154073Y-86444091D01*
X136133884Y-86436868D01*
X136114500Y-86427700D01*
X136096108Y-86416676D01*
X136078885Y-86403903D01*
X136062997Y-86389503D01*
X136048597Y-86373615D01*
X136035824Y-86356392D01*
X136024800Y-86338000D01*
X136015632Y-86318616D01*
X136008409Y-86298427D01*
X136003198Y-86277627D01*
X136000052Y-86256417D01*
X135999000Y-86235000D01*
X135999000Y-85723000D01*
X136000052Y-85701583D01*
X136003198Y-85680373D01*
X136008409Y-85659573D01*
X136015632Y-85639384D01*
X136024800Y-85620000D01*
X136035824Y-85601608D01*
X136048597Y-85584385D01*
X136062997Y-85568497D01*
X136078885Y-85554097D01*
X136096108Y-85541324D01*
X136114500Y-85530300D01*
X136133884Y-85521132D01*
X136154073Y-85513909D01*
X136174873Y-85508698D01*
X136196083Y-85505552D01*
X136217500Y-85504500D01*
X136654500Y-85504500D01*
X136675917Y-85505552D01*
X136675917Y-85505552D01*
G37*
D11*
X136436000Y-85979000D03*
D10*
G36*
X138250917Y-85505552D02*
G01*
X138272127Y-85508698D01*
X138292927Y-85513909D01*
X138313116Y-85521132D01*
X138332500Y-85530300D01*
X138350892Y-85541324D01*
X138368115Y-85554097D01*
X138384003Y-85568497D01*
X138398403Y-85584385D01*
X138411176Y-85601608D01*
X138422200Y-85620000D01*
X138431368Y-85639384D01*
X138438591Y-85659573D01*
X138443802Y-85680373D01*
X138446948Y-85701583D01*
X138448000Y-85723000D01*
X138448000Y-86235000D01*
X138446948Y-86256417D01*
X138443802Y-86277627D01*
X138438591Y-86298427D01*
X138431368Y-86318616D01*
X138422200Y-86338000D01*
X138411176Y-86356392D01*
X138398403Y-86373615D01*
X138384003Y-86389503D01*
X138368115Y-86403903D01*
X138350892Y-86416676D01*
X138332500Y-86427700D01*
X138313116Y-86436868D01*
X138292927Y-86444091D01*
X138272127Y-86449302D01*
X138250917Y-86452448D01*
X138229500Y-86453500D01*
X137792500Y-86453500D01*
X137771083Y-86452448D01*
X137749873Y-86449302D01*
X137729073Y-86444091D01*
X137708884Y-86436868D01*
X137689500Y-86427700D01*
X137671108Y-86416676D01*
X137653885Y-86403903D01*
X137637997Y-86389503D01*
X137623597Y-86373615D01*
X137610824Y-86356392D01*
X137599800Y-86338000D01*
X137590632Y-86318616D01*
X137583409Y-86298427D01*
X137578198Y-86277627D01*
X137575052Y-86256417D01*
X137574000Y-86235000D01*
X137574000Y-85723000D01*
X137575052Y-85701583D01*
X137578198Y-85680373D01*
X137583409Y-85659573D01*
X137590632Y-85639384D01*
X137599800Y-85620000D01*
X137610824Y-85601608D01*
X137623597Y-85584385D01*
X137637997Y-85568497D01*
X137653885Y-85554097D01*
X137671108Y-85541324D01*
X137689500Y-85530300D01*
X137708884Y-85521132D01*
X137729073Y-85513909D01*
X137749873Y-85508698D01*
X137771083Y-85505552D01*
X137792500Y-85504500D01*
X138229500Y-85504500D01*
X138250917Y-85505552D01*
X138250917Y-85505552D01*
G37*
D11*
X138011000Y-85979000D03*
D10*
G36*
X124419917Y-98852552D02*
G01*
X124441127Y-98855698D01*
X124461927Y-98860909D01*
X124482116Y-98868132D01*
X124501500Y-98877300D01*
X124519892Y-98888324D01*
X124537115Y-98901097D01*
X124553003Y-98915497D01*
X124567403Y-98931385D01*
X124580176Y-98948608D01*
X124591200Y-98967000D01*
X124600368Y-98986384D01*
X124607591Y-99006573D01*
X124612802Y-99027373D01*
X124615948Y-99048583D01*
X124617000Y-99070000D01*
X124617000Y-99507000D01*
X124615948Y-99528417D01*
X124612802Y-99549627D01*
X124607591Y-99570427D01*
X124600368Y-99590616D01*
X124591200Y-99610000D01*
X124580176Y-99628392D01*
X124567403Y-99645615D01*
X124553003Y-99661503D01*
X124537115Y-99675903D01*
X124519892Y-99688676D01*
X124501500Y-99699700D01*
X124482116Y-99708868D01*
X124461927Y-99716091D01*
X124441127Y-99721302D01*
X124419917Y-99724448D01*
X124398500Y-99725500D01*
X123886500Y-99725500D01*
X123865083Y-99724448D01*
X123843873Y-99721302D01*
X123823073Y-99716091D01*
X123802884Y-99708868D01*
X123783500Y-99699700D01*
X123765108Y-99688676D01*
X123747885Y-99675903D01*
X123731997Y-99661503D01*
X123717597Y-99645615D01*
X123704824Y-99628392D01*
X123693800Y-99610000D01*
X123684632Y-99590616D01*
X123677409Y-99570427D01*
X123672198Y-99549627D01*
X123669052Y-99528417D01*
X123668000Y-99507000D01*
X123668000Y-99070000D01*
X123669052Y-99048583D01*
X123672198Y-99027373D01*
X123677409Y-99006573D01*
X123684632Y-98986384D01*
X123693800Y-98967000D01*
X123704824Y-98948608D01*
X123717597Y-98931385D01*
X123731997Y-98915497D01*
X123747885Y-98901097D01*
X123765108Y-98888324D01*
X123783500Y-98877300D01*
X123802884Y-98868132D01*
X123823073Y-98860909D01*
X123843873Y-98855698D01*
X123865083Y-98852552D01*
X123886500Y-98851500D01*
X124398500Y-98851500D01*
X124419917Y-98852552D01*
X124419917Y-98852552D01*
G37*
D11*
X124142500Y-99288500D03*
D10*
G36*
X124419917Y-100427552D02*
G01*
X124441127Y-100430698D01*
X124461927Y-100435909D01*
X124482116Y-100443132D01*
X124501500Y-100452300D01*
X124519892Y-100463324D01*
X124537115Y-100476097D01*
X124553003Y-100490497D01*
X124567403Y-100506385D01*
X124580176Y-100523608D01*
X124591200Y-100542000D01*
X124600368Y-100561384D01*
X124607591Y-100581573D01*
X124612802Y-100602373D01*
X124615948Y-100623583D01*
X124617000Y-100645000D01*
X124617000Y-101082000D01*
X124615948Y-101103417D01*
X124612802Y-101124627D01*
X124607591Y-101145427D01*
X124600368Y-101165616D01*
X124591200Y-101185000D01*
X124580176Y-101203392D01*
X124567403Y-101220615D01*
X124553003Y-101236503D01*
X124537115Y-101250903D01*
X124519892Y-101263676D01*
X124501500Y-101274700D01*
X124482116Y-101283868D01*
X124461927Y-101291091D01*
X124441127Y-101296302D01*
X124419917Y-101299448D01*
X124398500Y-101300500D01*
X123886500Y-101300500D01*
X123865083Y-101299448D01*
X123843873Y-101296302D01*
X123823073Y-101291091D01*
X123802884Y-101283868D01*
X123783500Y-101274700D01*
X123765108Y-101263676D01*
X123747885Y-101250903D01*
X123731997Y-101236503D01*
X123717597Y-101220615D01*
X123704824Y-101203392D01*
X123693800Y-101185000D01*
X123684632Y-101165616D01*
X123677409Y-101145427D01*
X123672198Y-101124627D01*
X123669052Y-101103417D01*
X123668000Y-101082000D01*
X123668000Y-100645000D01*
X123669052Y-100623583D01*
X123672198Y-100602373D01*
X123677409Y-100581573D01*
X123684632Y-100561384D01*
X123693800Y-100542000D01*
X123704824Y-100523608D01*
X123717597Y-100506385D01*
X123731997Y-100490497D01*
X123747885Y-100476097D01*
X123765108Y-100463324D01*
X123783500Y-100452300D01*
X123802884Y-100443132D01*
X123823073Y-100435909D01*
X123843873Y-100430698D01*
X123865083Y-100427552D01*
X123886500Y-100426500D01*
X124398500Y-100426500D01*
X124419917Y-100427552D01*
X124419917Y-100427552D01*
G37*
D11*
X124142500Y-100863500D03*
D10*
G36*
X126249417Y-91538052D02*
G01*
X126270627Y-91541198D01*
X126291427Y-91546409D01*
X126311616Y-91553632D01*
X126331000Y-91562800D01*
X126349392Y-91573824D01*
X126366615Y-91586597D01*
X126382503Y-91600997D01*
X126396903Y-91616885D01*
X126409676Y-91634108D01*
X126420700Y-91652500D01*
X126429868Y-91671884D01*
X126437091Y-91692073D01*
X126442302Y-91712873D01*
X126445448Y-91734083D01*
X126446500Y-91755500D01*
X126446500Y-92267500D01*
X126445448Y-92288917D01*
X126442302Y-92310127D01*
X126437091Y-92330927D01*
X126429868Y-92351116D01*
X126420700Y-92370500D01*
X126409676Y-92388892D01*
X126396903Y-92406115D01*
X126382503Y-92422003D01*
X126366615Y-92436403D01*
X126349392Y-92449176D01*
X126331000Y-92460200D01*
X126311616Y-92469368D01*
X126291427Y-92476591D01*
X126270627Y-92481802D01*
X126249417Y-92484948D01*
X126228000Y-92486000D01*
X125791000Y-92486000D01*
X125769583Y-92484948D01*
X125748373Y-92481802D01*
X125727573Y-92476591D01*
X125707384Y-92469368D01*
X125688000Y-92460200D01*
X125669608Y-92449176D01*
X125652385Y-92436403D01*
X125636497Y-92422003D01*
X125622097Y-92406115D01*
X125609324Y-92388892D01*
X125598300Y-92370500D01*
X125589132Y-92351116D01*
X125581909Y-92330927D01*
X125576698Y-92310127D01*
X125573552Y-92288917D01*
X125572500Y-92267500D01*
X125572500Y-91755500D01*
X125573552Y-91734083D01*
X125576698Y-91712873D01*
X125581909Y-91692073D01*
X125589132Y-91671884D01*
X125598300Y-91652500D01*
X125609324Y-91634108D01*
X125622097Y-91616885D01*
X125636497Y-91600997D01*
X125652385Y-91586597D01*
X125669608Y-91573824D01*
X125688000Y-91562800D01*
X125707384Y-91553632D01*
X125727573Y-91546409D01*
X125748373Y-91541198D01*
X125769583Y-91538052D01*
X125791000Y-91537000D01*
X126228000Y-91537000D01*
X126249417Y-91538052D01*
X126249417Y-91538052D01*
G37*
D11*
X126009500Y-92011500D03*
D10*
G36*
X124674417Y-91538052D02*
G01*
X124695627Y-91541198D01*
X124716427Y-91546409D01*
X124736616Y-91553632D01*
X124756000Y-91562800D01*
X124774392Y-91573824D01*
X124791615Y-91586597D01*
X124807503Y-91600997D01*
X124821903Y-91616885D01*
X124834676Y-91634108D01*
X124845700Y-91652500D01*
X124854868Y-91671884D01*
X124862091Y-91692073D01*
X124867302Y-91712873D01*
X124870448Y-91734083D01*
X124871500Y-91755500D01*
X124871500Y-92267500D01*
X124870448Y-92288917D01*
X124867302Y-92310127D01*
X124862091Y-92330927D01*
X124854868Y-92351116D01*
X124845700Y-92370500D01*
X124834676Y-92388892D01*
X124821903Y-92406115D01*
X124807503Y-92422003D01*
X124791615Y-92436403D01*
X124774392Y-92449176D01*
X124756000Y-92460200D01*
X124736616Y-92469368D01*
X124716427Y-92476591D01*
X124695627Y-92481802D01*
X124674417Y-92484948D01*
X124653000Y-92486000D01*
X124216000Y-92486000D01*
X124194583Y-92484948D01*
X124173373Y-92481802D01*
X124152573Y-92476591D01*
X124132384Y-92469368D01*
X124113000Y-92460200D01*
X124094608Y-92449176D01*
X124077385Y-92436403D01*
X124061497Y-92422003D01*
X124047097Y-92406115D01*
X124034324Y-92388892D01*
X124023300Y-92370500D01*
X124014132Y-92351116D01*
X124006909Y-92330927D01*
X124001698Y-92310127D01*
X123998552Y-92288917D01*
X123997500Y-92267500D01*
X123997500Y-91755500D01*
X123998552Y-91734083D01*
X124001698Y-91712873D01*
X124006909Y-91692073D01*
X124014132Y-91671884D01*
X124023300Y-91652500D01*
X124034324Y-91634108D01*
X124047097Y-91616885D01*
X124061497Y-91600997D01*
X124077385Y-91586597D01*
X124094608Y-91573824D01*
X124113000Y-91562800D01*
X124132384Y-91553632D01*
X124152573Y-91546409D01*
X124173373Y-91541198D01*
X124194583Y-91538052D01*
X124216000Y-91537000D01*
X124653000Y-91537000D01*
X124674417Y-91538052D01*
X124674417Y-91538052D01*
G37*
D11*
X124434500Y-92011500D03*
D12*
X147193000Y-99758500D03*
D13*
X141308000Y-99253000D03*
X141308000Y-101153000D03*
X139108000Y-101153000D03*
X139108000Y-100203000D03*
X139108000Y-99253000D03*
D10*
G36*
X151014417Y-86521552D02*
G01*
X151035627Y-86524698D01*
X151056427Y-86529909D01*
X151076616Y-86537132D01*
X151096000Y-86546300D01*
X151114392Y-86557324D01*
X151131615Y-86570097D01*
X151147503Y-86584497D01*
X151161903Y-86600385D01*
X151174676Y-86617608D01*
X151185700Y-86636000D01*
X151194868Y-86655384D01*
X151202091Y-86675573D01*
X151207302Y-86696373D01*
X151210448Y-86717583D01*
X151211500Y-86739000D01*
X151211500Y-87251000D01*
X151210448Y-87272417D01*
X151207302Y-87293627D01*
X151202091Y-87314427D01*
X151194868Y-87334616D01*
X151185700Y-87354000D01*
X151174676Y-87372392D01*
X151161903Y-87389615D01*
X151147503Y-87405503D01*
X151131615Y-87419903D01*
X151114392Y-87432676D01*
X151096000Y-87443700D01*
X151076616Y-87452868D01*
X151056427Y-87460091D01*
X151035627Y-87465302D01*
X151014417Y-87468448D01*
X150993000Y-87469500D01*
X150556000Y-87469500D01*
X150534583Y-87468448D01*
X150513373Y-87465302D01*
X150492573Y-87460091D01*
X150472384Y-87452868D01*
X150453000Y-87443700D01*
X150434608Y-87432676D01*
X150417385Y-87419903D01*
X150401497Y-87405503D01*
X150387097Y-87389615D01*
X150374324Y-87372392D01*
X150363300Y-87354000D01*
X150354132Y-87334616D01*
X150346909Y-87314427D01*
X150341698Y-87293627D01*
X150338552Y-87272417D01*
X150337500Y-87251000D01*
X150337500Y-86739000D01*
X150338552Y-86717583D01*
X150341698Y-86696373D01*
X150346909Y-86675573D01*
X150354132Y-86655384D01*
X150363300Y-86636000D01*
X150374324Y-86617608D01*
X150387097Y-86600385D01*
X150401497Y-86584497D01*
X150417385Y-86570097D01*
X150434608Y-86557324D01*
X150453000Y-86546300D01*
X150472384Y-86537132D01*
X150492573Y-86529909D01*
X150513373Y-86524698D01*
X150534583Y-86521552D01*
X150556000Y-86520500D01*
X150993000Y-86520500D01*
X151014417Y-86521552D01*
X151014417Y-86521552D01*
G37*
D11*
X150774500Y-86995000D03*
D10*
G36*
X149439417Y-86521552D02*
G01*
X149460627Y-86524698D01*
X149481427Y-86529909D01*
X149501616Y-86537132D01*
X149521000Y-86546300D01*
X149539392Y-86557324D01*
X149556615Y-86570097D01*
X149572503Y-86584497D01*
X149586903Y-86600385D01*
X149599676Y-86617608D01*
X149610700Y-86636000D01*
X149619868Y-86655384D01*
X149627091Y-86675573D01*
X149632302Y-86696373D01*
X149635448Y-86717583D01*
X149636500Y-86739000D01*
X149636500Y-87251000D01*
X149635448Y-87272417D01*
X149632302Y-87293627D01*
X149627091Y-87314427D01*
X149619868Y-87334616D01*
X149610700Y-87354000D01*
X149599676Y-87372392D01*
X149586903Y-87389615D01*
X149572503Y-87405503D01*
X149556615Y-87419903D01*
X149539392Y-87432676D01*
X149521000Y-87443700D01*
X149501616Y-87452868D01*
X149481427Y-87460091D01*
X149460627Y-87465302D01*
X149439417Y-87468448D01*
X149418000Y-87469500D01*
X148981000Y-87469500D01*
X148959583Y-87468448D01*
X148938373Y-87465302D01*
X148917573Y-87460091D01*
X148897384Y-87452868D01*
X148878000Y-87443700D01*
X148859608Y-87432676D01*
X148842385Y-87419903D01*
X148826497Y-87405503D01*
X148812097Y-87389615D01*
X148799324Y-87372392D01*
X148788300Y-87354000D01*
X148779132Y-87334616D01*
X148771909Y-87314427D01*
X148766698Y-87293627D01*
X148763552Y-87272417D01*
X148762500Y-87251000D01*
X148762500Y-86739000D01*
X148763552Y-86717583D01*
X148766698Y-86696373D01*
X148771909Y-86675573D01*
X148779132Y-86655384D01*
X148788300Y-86636000D01*
X148799324Y-86617608D01*
X148812097Y-86600385D01*
X148826497Y-86584497D01*
X148842385Y-86570097D01*
X148859608Y-86557324D01*
X148878000Y-86546300D01*
X148897384Y-86537132D01*
X148917573Y-86529909D01*
X148938373Y-86524698D01*
X148959583Y-86521552D01*
X148981000Y-86520500D01*
X149418000Y-86520500D01*
X149439417Y-86521552D01*
X149439417Y-86521552D01*
G37*
D11*
X149199500Y-86995000D03*
D10*
G36*
X149946917Y-83663552D02*
G01*
X149968127Y-83666698D01*
X149988927Y-83671909D01*
X150009116Y-83679132D01*
X150028500Y-83688300D01*
X150046892Y-83699324D01*
X150064115Y-83712097D01*
X150080003Y-83726497D01*
X150094403Y-83742385D01*
X150107176Y-83759608D01*
X150118200Y-83778000D01*
X150127368Y-83797384D01*
X150134591Y-83817573D01*
X150139802Y-83838373D01*
X150142948Y-83859583D01*
X150144000Y-83881000D01*
X150144000Y-84318000D01*
X150142948Y-84339417D01*
X150139802Y-84360627D01*
X150134591Y-84381427D01*
X150127368Y-84401616D01*
X150118200Y-84421000D01*
X150107176Y-84439392D01*
X150094403Y-84456615D01*
X150080003Y-84472503D01*
X150064115Y-84486903D01*
X150046892Y-84499676D01*
X150028500Y-84510700D01*
X150009116Y-84519868D01*
X149988927Y-84527091D01*
X149968127Y-84532302D01*
X149946917Y-84535448D01*
X149925500Y-84536500D01*
X149413500Y-84536500D01*
X149392083Y-84535448D01*
X149370873Y-84532302D01*
X149350073Y-84527091D01*
X149329884Y-84519868D01*
X149310500Y-84510700D01*
X149292108Y-84499676D01*
X149274885Y-84486903D01*
X149258997Y-84472503D01*
X149244597Y-84456615D01*
X149231824Y-84439392D01*
X149220800Y-84421000D01*
X149211632Y-84401616D01*
X149204409Y-84381427D01*
X149199198Y-84360627D01*
X149196052Y-84339417D01*
X149195000Y-84318000D01*
X149195000Y-83881000D01*
X149196052Y-83859583D01*
X149199198Y-83838373D01*
X149204409Y-83817573D01*
X149211632Y-83797384D01*
X149220800Y-83778000D01*
X149231824Y-83759608D01*
X149244597Y-83742385D01*
X149258997Y-83726497D01*
X149274885Y-83712097D01*
X149292108Y-83699324D01*
X149310500Y-83688300D01*
X149329884Y-83679132D01*
X149350073Y-83671909D01*
X149370873Y-83666698D01*
X149392083Y-83663552D01*
X149413500Y-83662500D01*
X149925500Y-83662500D01*
X149946917Y-83663552D01*
X149946917Y-83663552D01*
G37*
D11*
X149669500Y-84099500D03*
D10*
G36*
X149946917Y-82088552D02*
G01*
X149968127Y-82091698D01*
X149988927Y-82096909D01*
X150009116Y-82104132D01*
X150028500Y-82113300D01*
X150046892Y-82124324D01*
X150064115Y-82137097D01*
X150080003Y-82151497D01*
X150094403Y-82167385D01*
X150107176Y-82184608D01*
X150118200Y-82203000D01*
X150127368Y-82222384D01*
X150134591Y-82242573D01*
X150139802Y-82263373D01*
X150142948Y-82284583D01*
X150144000Y-82306000D01*
X150144000Y-82743000D01*
X150142948Y-82764417D01*
X150139802Y-82785627D01*
X150134591Y-82806427D01*
X150127368Y-82826616D01*
X150118200Y-82846000D01*
X150107176Y-82864392D01*
X150094403Y-82881615D01*
X150080003Y-82897503D01*
X150064115Y-82911903D01*
X150046892Y-82924676D01*
X150028500Y-82935700D01*
X150009116Y-82944868D01*
X149988927Y-82952091D01*
X149968127Y-82957302D01*
X149946917Y-82960448D01*
X149925500Y-82961500D01*
X149413500Y-82961500D01*
X149392083Y-82960448D01*
X149370873Y-82957302D01*
X149350073Y-82952091D01*
X149329884Y-82944868D01*
X149310500Y-82935700D01*
X149292108Y-82924676D01*
X149274885Y-82911903D01*
X149258997Y-82897503D01*
X149244597Y-82881615D01*
X149231824Y-82864392D01*
X149220800Y-82846000D01*
X149211632Y-82826616D01*
X149204409Y-82806427D01*
X149199198Y-82785627D01*
X149196052Y-82764417D01*
X149195000Y-82743000D01*
X149195000Y-82306000D01*
X149196052Y-82284583D01*
X149199198Y-82263373D01*
X149204409Y-82242573D01*
X149211632Y-82222384D01*
X149220800Y-82203000D01*
X149231824Y-82184608D01*
X149244597Y-82167385D01*
X149258997Y-82151497D01*
X149274885Y-82137097D01*
X149292108Y-82124324D01*
X149310500Y-82113300D01*
X149329884Y-82104132D01*
X149350073Y-82096909D01*
X149370873Y-82091698D01*
X149392083Y-82088552D01*
X149413500Y-82087500D01*
X149925500Y-82087500D01*
X149946917Y-82088552D01*
X149946917Y-82088552D01*
G37*
D11*
X149669500Y-82524500D03*
D10*
G36*
X137361917Y-98777052D02*
G01*
X137383127Y-98780198D01*
X137403927Y-98785409D01*
X137424116Y-98792632D01*
X137443500Y-98801800D01*
X137461892Y-98812824D01*
X137479115Y-98825597D01*
X137495003Y-98839997D01*
X137509403Y-98855885D01*
X137522176Y-98873108D01*
X137533200Y-98891500D01*
X137542368Y-98910884D01*
X137549591Y-98931073D01*
X137554802Y-98951873D01*
X137557948Y-98973083D01*
X137559000Y-98994500D01*
X137559000Y-99506500D01*
X137557948Y-99527917D01*
X137554802Y-99549127D01*
X137549591Y-99569927D01*
X137542368Y-99590116D01*
X137533200Y-99609500D01*
X137522176Y-99627892D01*
X137509403Y-99645115D01*
X137495003Y-99661003D01*
X137479115Y-99675403D01*
X137461892Y-99688176D01*
X137443500Y-99699200D01*
X137424116Y-99708368D01*
X137403927Y-99715591D01*
X137383127Y-99720802D01*
X137361917Y-99723948D01*
X137340500Y-99725000D01*
X136903500Y-99725000D01*
X136882083Y-99723948D01*
X136860873Y-99720802D01*
X136840073Y-99715591D01*
X136819884Y-99708368D01*
X136800500Y-99699200D01*
X136782108Y-99688176D01*
X136764885Y-99675403D01*
X136748997Y-99661003D01*
X136734597Y-99645115D01*
X136721824Y-99627892D01*
X136710800Y-99609500D01*
X136701632Y-99590116D01*
X136694409Y-99569927D01*
X136689198Y-99549127D01*
X136686052Y-99527917D01*
X136685000Y-99506500D01*
X136685000Y-98994500D01*
X136686052Y-98973083D01*
X136689198Y-98951873D01*
X136694409Y-98931073D01*
X136701632Y-98910884D01*
X136710800Y-98891500D01*
X136721824Y-98873108D01*
X136734597Y-98855885D01*
X136748997Y-98839997D01*
X136764885Y-98825597D01*
X136782108Y-98812824D01*
X136800500Y-98801800D01*
X136819884Y-98792632D01*
X136840073Y-98785409D01*
X136860873Y-98780198D01*
X136882083Y-98777052D01*
X136903500Y-98776000D01*
X137340500Y-98776000D01*
X137361917Y-98777052D01*
X137361917Y-98777052D01*
G37*
D11*
X137122000Y-99250500D03*
D10*
G36*
X135786917Y-98777052D02*
G01*
X135808127Y-98780198D01*
X135828927Y-98785409D01*
X135849116Y-98792632D01*
X135868500Y-98801800D01*
X135886892Y-98812824D01*
X135904115Y-98825597D01*
X135920003Y-98839997D01*
X135934403Y-98855885D01*
X135947176Y-98873108D01*
X135958200Y-98891500D01*
X135967368Y-98910884D01*
X135974591Y-98931073D01*
X135979802Y-98951873D01*
X135982948Y-98973083D01*
X135984000Y-98994500D01*
X135984000Y-99506500D01*
X135982948Y-99527917D01*
X135979802Y-99549127D01*
X135974591Y-99569927D01*
X135967368Y-99590116D01*
X135958200Y-99609500D01*
X135947176Y-99627892D01*
X135934403Y-99645115D01*
X135920003Y-99661003D01*
X135904115Y-99675403D01*
X135886892Y-99688176D01*
X135868500Y-99699200D01*
X135849116Y-99708368D01*
X135828927Y-99715591D01*
X135808127Y-99720802D01*
X135786917Y-99723948D01*
X135765500Y-99725000D01*
X135328500Y-99725000D01*
X135307083Y-99723948D01*
X135285873Y-99720802D01*
X135265073Y-99715591D01*
X135244884Y-99708368D01*
X135225500Y-99699200D01*
X135207108Y-99688176D01*
X135189885Y-99675403D01*
X135173997Y-99661003D01*
X135159597Y-99645115D01*
X135146824Y-99627892D01*
X135135800Y-99609500D01*
X135126632Y-99590116D01*
X135119409Y-99569927D01*
X135114198Y-99549127D01*
X135111052Y-99527917D01*
X135110000Y-99506500D01*
X135110000Y-98994500D01*
X135111052Y-98973083D01*
X135114198Y-98951873D01*
X135119409Y-98931073D01*
X135126632Y-98910884D01*
X135135800Y-98891500D01*
X135146824Y-98873108D01*
X135159597Y-98855885D01*
X135173997Y-98839997D01*
X135189885Y-98825597D01*
X135207108Y-98812824D01*
X135225500Y-98801800D01*
X135244884Y-98792632D01*
X135265073Y-98785409D01*
X135285873Y-98780198D01*
X135307083Y-98777052D01*
X135328500Y-98776000D01*
X135765500Y-98776000D01*
X135786917Y-98777052D01*
X135786917Y-98777052D01*
G37*
D11*
X135547000Y-99250500D03*
D10*
G36*
X137361917Y-100809052D02*
G01*
X137383127Y-100812198D01*
X137403927Y-100817409D01*
X137424116Y-100824632D01*
X137443500Y-100833800D01*
X137461892Y-100844824D01*
X137479115Y-100857597D01*
X137495003Y-100871997D01*
X137509403Y-100887885D01*
X137522176Y-100905108D01*
X137533200Y-100923500D01*
X137542368Y-100942884D01*
X137549591Y-100963073D01*
X137554802Y-100983873D01*
X137557948Y-101005083D01*
X137559000Y-101026500D01*
X137559000Y-101538500D01*
X137557948Y-101559917D01*
X137554802Y-101581127D01*
X137549591Y-101601927D01*
X137542368Y-101622116D01*
X137533200Y-101641500D01*
X137522176Y-101659892D01*
X137509403Y-101677115D01*
X137495003Y-101693003D01*
X137479115Y-101707403D01*
X137461892Y-101720176D01*
X137443500Y-101731200D01*
X137424116Y-101740368D01*
X137403927Y-101747591D01*
X137383127Y-101752802D01*
X137361917Y-101755948D01*
X137340500Y-101757000D01*
X136903500Y-101757000D01*
X136882083Y-101755948D01*
X136860873Y-101752802D01*
X136840073Y-101747591D01*
X136819884Y-101740368D01*
X136800500Y-101731200D01*
X136782108Y-101720176D01*
X136764885Y-101707403D01*
X136748997Y-101693003D01*
X136734597Y-101677115D01*
X136721824Y-101659892D01*
X136710800Y-101641500D01*
X136701632Y-101622116D01*
X136694409Y-101601927D01*
X136689198Y-101581127D01*
X136686052Y-101559917D01*
X136685000Y-101538500D01*
X136685000Y-101026500D01*
X136686052Y-101005083D01*
X136689198Y-100983873D01*
X136694409Y-100963073D01*
X136701632Y-100942884D01*
X136710800Y-100923500D01*
X136721824Y-100905108D01*
X136734597Y-100887885D01*
X136748997Y-100871997D01*
X136764885Y-100857597D01*
X136782108Y-100844824D01*
X136800500Y-100833800D01*
X136819884Y-100824632D01*
X136840073Y-100817409D01*
X136860873Y-100812198D01*
X136882083Y-100809052D01*
X136903500Y-100808000D01*
X137340500Y-100808000D01*
X137361917Y-100809052D01*
X137361917Y-100809052D01*
G37*
D11*
X137122000Y-101282500D03*
D10*
G36*
X135786917Y-100809052D02*
G01*
X135808127Y-100812198D01*
X135828927Y-100817409D01*
X135849116Y-100824632D01*
X135868500Y-100833800D01*
X135886892Y-100844824D01*
X135904115Y-100857597D01*
X135920003Y-100871997D01*
X135934403Y-100887885D01*
X135947176Y-100905108D01*
X135958200Y-100923500D01*
X135967368Y-100942884D01*
X135974591Y-100963073D01*
X135979802Y-100983873D01*
X135982948Y-101005083D01*
X135984000Y-101026500D01*
X135984000Y-101538500D01*
X135982948Y-101559917D01*
X135979802Y-101581127D01*
X135974591Y-101601927D01*
X135967368Y-101622116D01*
X135958200Y-101641500D01*
X135947176Y-101659892D01*
X135934403Y-101677115D01*
X135920003Y-101693003D01*
X135904115Y-101707403D01*
X135886892Y-101720176D01*
X135868500Y-101731200D01*
X135849116Y-101740368D01*
X135828927Y-101747591D01*
X135808127Y-101752802D01*
X135786917Y-101755948D01*
X135765500Y-101757000D01*
X135328500Y-101757000D01*
X135307083Y-101755948D01*
X135285873Y-101752802D01*
X135265073Y-101747591D01*
X135244884Y-101740368D01*
X135225500Y-101731200D01*
X135207108Y-101720176D01*
X135189885Y-101707403D01*
X135173997Y-101693003D01*
X135159597Y-101677115D01*
X135146824Y-101659892D01*
X135135800Y-101641500D01*
X135126632Y-101622116D01*
X135119409Y-101601927D01*
X135114198Y-101581127D01*
X135111052Y-101559917D01*
X135110000Y-101538500D01*
X135110000Y-101026500D01*
X135111052Y-101005083D01*
X135114198Y-100983873D01*
X135119409Y-100963073D01*
X135126632Y-100942884D01*
X135135800Y-100923500D01*
X135146824Y-100905108D01*
X135159597Y-100887885D01*
X135173997Y-100871997D01*
X135189885Y-100857597D01*
X135207108Y-100844824D01*
X135225500Y-100833800D01*
X135244884Y-100824632D01*
X135265073Y-100817409D01*
X135285873Y-100812198D01*
X135307083Y-100809052D01*
X135328500Y-100808000D01*
X135765500Y-100808000D01*
X135786917Y-100809052D01*
X135786917Y-100809052D01*
G37*
D11*
X135547000Y-101282500D03*
D10*
G36*
X135786917Y-96745052D02*
G01*
X135808127Y-96748198D01*
X135828927Y-96753409D01*
X135849116Y-96760632D01*
X135868500Y-96769800D01*
X135886892Y-96780824D01*
X135904115Y-96793597D01*
X135920003Y-96807997D01*
X135934403Y-96823885D01*
X135947176Y-96841108D01*
X135958200Y-96859500D01*
X135967368Y-96878884D01*
X135974591Y-96899073D01*
X135979802Y-96919873D01*
X135982948Y-96941083D01*
X135984000Y-96962500D01*
X135984000Y-97474500D01*
X135982948Y-97495917D01*
X135979802Y-97517127D01*
X135974591Y-97537927D01*
X135967368Y-97558116D01*
X135958200Y-97577500D01*
X135947176Y-97595892D01*
X135934403Y-97613115D01*
X135920003Y-97629003D01*
X135904115Y-97643403D01*
X135886892Y-97656176D01*
X135868500Y-97667200D01*
X135849116Y-97676368D01*
X135828927Y-97683591D01*
X135808127Y-97688802D01*
X135786917Y-97691948D01*
X135765500Y-97693000D01*
X135328500Y-97693000D01*
X135307083Y-97691948D01*
X135285873Y-97688802D01*
X135265073Y-97683591D01*
X135244884Y-97676368D01*
X135225500Y-97667200D01*
X135207108Y-97656176D01*
X135189885Y-97643403D01*
X135173997Y-97629003D01*
X135159597Y-97613115D01*
X135146824Y-97595892D01*
X135135800Y-97577500D01*
X135126632Y-97558116D01*
X135119409Y-97537927D01*
X135114198Y-97517127D01*
X135111052Y-97495917D01*
X135110000Y-97474500D01*
X135110000Y-96962500D01*
X135111052Y-96941083D01*
X135114198Y-96919873D01*
X135119409Y-96899073D01*
X135126632Y-96878884D01*
X135135800Y-96859500D01*
X135146824Y-96841108D01*
X135159597Y-96823885D01*
X135173997Y-96807997D01*
X135189885Y-96793597D01*
X135207108Y-96780824D01*
X135225500Y-96769800D01*
X135244884Y-96760632D01*
X135265073Y-96753409D01*
X135285873Y-96748198D01*
X135307083Y-96745052D01*
X135328500Y-96744000D01*
X135765500Y-96744000D01*
X135786917Y-96745052D01*
X135786917Y-96745052D01*
G37*
D11*
X135547000Y-97218500D03*
D10*
G36*
X137361917Y-96745052D02*
G01*
X137383127Y-96748198D01*
X137403927Y-96753409D01*
X137424116Y-96760632D01*
X137443500Y-96769800D01*
X137461892Y-96780824D01*
X137479115Y-96793597D01*
X137495003Y-96807997D01*
X137509403Y-96823885D01*
X137522176Y-96841108D01*
X137533200Y-96859500D01*
X137542368Y-96878884D01*
X137549591Y-96899073D01*
X137554802Y-96919873D01*
X137557948Y-96941083D01*
X137559000Y-96962500D01*
X137559000Y-97474500D01*
X137557948Y-97495917D01*
X137554802Y-97517127D01*
X137549591Y-97537927D01*
X137542368Y-97558116D01*
X137533200Y-97577500D01*
X137522176Y-97595892D01*
X137509403Y-97613115D01*
X137495003Y-97629003D01*
X137479115Y-97643403D01*
X137461892Y-97656176D01*
X137443500Y-97667200D01*
X137424116Y-97676368D01*
X137403927Y-97683591D01*
X137383127Y-97688802D01*
X137361917Y-97691948D01*
X137340500Y-97693000D01*
X136903500Y-97693000D01*
X136882083Y-97691948D01*
X136860873Y-97688802D01*
X136840073Y-97683591D01*
X136819884Y-97676368D01*
X136800500Y-97667200D01*
X136782108Y-97656176D01*
X136764885Y-97643403D01*
X136748997Y-97629003D01*
X136734597Y-97613115D01*
X136721824Y-97595892D01*
X136710800Y-97577500D01*
X136701632Y-97558116D01*
X136694409Y-97537927D01*
X136689198Y-97517127D01*
X136686052Y-97495917D01*
X136685000Y-97474500D01*
X136685000Y-96962500D01*
X136686052Y-96941083D01*
X136689198Y-96919873D01*
X136694409Y-96899073D01*
X136701632Y-96878884D01*
X136710800Y-96859500D01*
X136721824Y-96841108D01*
X136734597Y-96823885D01*
X136748997Y-96807997D01*
X136764885Y-96793597D01*
X136782108Y-96780824D01*
X136800500Y-96769800D01*
X136819884Y-96760632D01*
X136840073Y-96753409D01*
X136860873Y-96748198D01*
X136882083Y-96745052D01*
X136903500Y-96744000D01*
X137340500Y-96744000D01*
X137361917Y-96745052D01*
X137361917Y-96745052D01*
G37*
D11*
X137122000Y-97218500D03*
D14*
X138620500Y-92773500D03*
D15*
X124494500Y-97644500D03*
X124494500Y-96994500D03*
X124494500Y-96344500D03*
X124494500Y-95694500D03*
X124494500Y-95044500D03*
X124494500Y-94394500D03*
X124494500Y-93744500D03*
X130394500Y-93744500D03*
X130394500Y-94394500D03*
X130394500Y-95044500D03*
X130394500Y-95694500D03*
X130394500Y-96344500D03*
X130394500Y-96994500D03*
X130394500Y-97644500D03*
D16*
X126539500Y-88519000D03*
X124539500Y-89469000D03*
X124539500Y-87569000D03*
D10*
G36*
X138643917Y-83536552D02*
G01*
X138665127Y-83539698D01*
X138685927Y-83544909D01*
X138706116Y-83552132D01*
X138725500Y-83561300D01*
X138743892Y-83572324D01*
X138761115Y-83585097D01*
X138777003Y-83599497D01*
X138791403Y-83615385D01*
X138804176Y-83632608D01*
X138815200Y-83651000D01*
X138824368Y-83670384D01*
X138831591Y-83690573D01*
X138836802Y-83711373D01*
X138839948Y-83732583D01*
X138841000Y-83754000D01*
X138841000Y-84191000D01*
X138839948Y-84212417D01*
X138836802Y-84233627D01*
X138831591Y-84254427D01*
X138824368Y-84274616D01*
X138815200Y-84294000D01*
X138804176Y-84312392D01*
X138791403Y-84329615D01*
X138777003Y-84345503D01*
X138761115Y-84359903D01*
X138743892Y-84372676D01*
X138725500Y-84383700D01*
X138706116Y-84392868D01*
X138685927Y-84400091D01*
X138665127Y-84405302D01*
X138643917Y-84408448D01*
X138622500Y-84409500D01*
X138110500Y-84409500D01*
X138089083Y-84408448D01*
X138067873Y-84405302D01*
X138047073Y-84400091D01*
X138026884Y-84392868D01*
X138007500Y-84383700D01*
X137989108Y-84372676D01*
X137971885Y-84359903D01*
X137955997Y-84345503D01*
X137941597Y-84329615D01*
X137928824Y-84312392D01*
X137917800Y-84294000D01*
X137908632Y-84274616D01*
X137901409Y-84254427D01*
X137896198Y-84233627D01*
X137893052Y-84212417D01*
X137892000Y-84191000D01*
X137892000Y-83754000D01*
X137893052Y-83732583D01*
X137896198Y-83711373D01*
X137901409Y-83690573D01*
X137908632Y-83670384D01*
X137917800Y-83651000D01*
X137928824Y-83632608D01*
X137941597Y-83615385D01*
X137955997Y-83599497D01*
X137971885Y-83585097D01*
X137989108Y-83572324D01*
X138007500Y-83561300D01*
X138026884Y-83552132D01*
X138047073Y-83544909D01*
X138067873Y-83539698D01*
X138089083Y-83536552D01*
X138110500Y-83535500D01*
X138622500Y-83535500D01*
X138643917Y-83536552D01*
X138643917Y-83536552D01*
G37*
D11*
X138366500Y-83972500D03*
D10*
G36*
X138643917Y-81961552D02*
G01*
X138665127Y-81964698D01*
X138685927Y-81969909D01*
X138706116Y-81977132D01*
X138725500Y-81986300D01*
X138743892Y-81997324D01*
X138761115Y-82010097D01*
X138777003Y-82024497D01*
X138791403Y-82040385D01*
X138804176Y-82057608D01*
X138815200Y-82076000D01*
X138824368Y-82095384D01*
X138831591Y-82115573D01*
X138836802Y-82136373D01*
X138839948Y-82157583D01*
X138841000Y-82179000D01*
X138841000Y-82616000D01*
X138839948Y-82637417D01*
X138836802Y-82658627D01*
X138831591Y-82679427D01*
X138824368Y-82699616D01*
X138815200Y-82719000D01*
X138804176Y-82737392D01*
X138791403Y-82754615D01*
X138777003Y-82770503D01*
X138761115Y-82784903D01*
X138743892Y-82797676D01*
X138725500Y-82808700D01*
X138706116Y-82817868D01*
X138685927Y-82825091D01*
X138665127Y-82830302D01*
X138643917Y-82833448D01*
X138622500Y-82834500D01*
X138110500Y-82834500D01*
X138089083Y-82833448D01*
X138067873Y-82830302D01*
X138047073Y-82825091D01*
X138026884Y-82817868D01*
X138007500Y-82808700D01*
X137989108Y-82797676D01*
X137971885Y-82784903D01*
X137955997Y-82770503D01*
X137941597Y-82754615D01*
X137928824Y-82737392D01*
X137917800Y-82719000D01*
X137908632Y-82699616D01*
X137901409Y-82679427D01*
X137896198Y-82658627D01*
X137893052Y-82637417D01*
X137892000Y-82616000D01*
X137892000Y-82179000D01*
X137893052Y-82157583D01*
X137896198Y-82136373D01*
X137901409Y-82115573D01*
X137908632Y-82095384D01*
X137917800Y-82076000D01*
X137928824Y-82057608D01*
X137941597Y-82040385D01*
X137955997Y-82024497D01*
X137971885Y-82010097D01*
X137989108Y-81997324D01*
X138007500Y-81986300D01*
X138026884Y-81977132D01*
X138047073Y-81969909D01*
X138067873Y-81964698D01*
X138089083Y-81961552D01*
X138110500Y-81960500D01*
X138622500Y-81960500D01*
X138643917Y-81961552D01*
X138643917Y-81961552D01*
G37*
D11*
X138366500Y-82397500D03*
D10*
G36*
X135532917Y-94649552D02*
G01*
X135554127Y-94652698D01*
X135574927Y-94657909D01*
X135595116Y-94665132D01*
X135614500Y-94674300D01*
X135632892Y-94685324D01*
X135650115Y-94698097D01*
X135666003Y-94712497D01*
X135680403Y-94728385D01*
X135693176Y-94745608D01*
X135704200Y-94764000D01*
X135713368Y-94783384D01*
X135720591Y-94803573D01*
X135725802Y-94824373D01*
X135728948Y-94845583D01*
X135730000Y-94867000D01*
X135730000Y-95379000D01*
X135728948Y-95400417D01*
X135725802Y-95421627D01*
X135720591Y-95442427D01*
X135713368Y-95462616D01*
X135704200Y-95482000D01*
X135693176Y-95500392D01*
X135680403Y-95517615D01*
X135666003Y-95533503D01*
X135650115Y-95547903D01*
X135632892Y-95560676D01*
X135614500Y-95571700D01*
X135595116Y-95580868D01*
X135574927Y-95588091D01*
X135554127Y-95593302D01*
X135532917Y-95596448D01*
X135511500Y-95597500D01*
X135074500Y-95597500D01*
X135053083Y-95596448D01*
X135031873Y-95593302D01*
X135011073Y-95588091D01*
X134990884Y-95580868D01*
X134971500Y-95571700D01*
X134953108Y-95560676D01*
X134935885Y-95547903D01*
X134919997Y-95533503D01*
X134905597Y-95517615D01*
X134892824Y-95500392D01*
X134881800Y-95482000D01*
X134872632Y-95462616D01*
X134865409Y-95442427D01*
X134860198Y-95421627D01*
X134857052Y-95400417D01*
X134856000Y-95379000D01*
X134856000Y-94867000D01*
X134857052Y-94845583D01*
X134860198Y-94824373D01*
X134865409Y-94803573D01*
X134872632Y-94783384D01*
X134881800Y-94764000D01*
X134892824Y-94745608D01*
X134905597Y-94728385D01*
X134919997Y-94712497D01*
X134935885Y-94698097D01*
X134953108Y-94685324D01*
X134971500Y-94674300D01*
X134990884Y-94665132D01*
X135011073Y-94657909D01*
X135031873Y-94652698D01*
X135053083Y-94649552D01*
X135074500Y-94648500D01*
X135511500Y-94648500D01*
X135532917Y-94649552D01*
X135532917Y-94649552D01*
G37*
D11*
X135293000Y-95123000D03*
D10*
G36*
X137107917Y-94649552D02*
G01*
X137129127Y-94652698D01*
X137149927Y-94657909D01*
X137170116Y-94665132D01*
X137189500Y-94674300D01*
X137207892Y-94685324D01*
X137225115Y-94698097D01*
X137241003Y-94712497D01*
X137255403Y-94728385D01*
X137268176Y-94745608D01*
X137279200Y-94764000D01*
X137288368Y-94783384D01*
X137295591Y-94803573D01*
X137300802Y-94824373D01*
X137303948Y-94845583D01*
X137305000Y-94867000D01*
X137305000Y-95379000D01*
X137303948Y-95400417D01*
X137300802Y-95421627D01*
X137295591Y-95442427D01*
X137288368Y-95462616D01*
X137279200Y-95482000D01*
X137268176Y-95500392D01*
X137255403Y-95517615D01*
X137241003Y-95533503D01*
X137225115Y-95547903D01*
X137207892Y-95560676D01*
X137189500Y-95571700D01*
X137170116Y-95580868D01*
X137149927Y-95588091D01*
X137129127Y-95593302D01*
X137107917Y-95596448D01*
X137086500Y-95597500D01*
X136649500Y-95597500D01*
X136628083Y-95596448D01*
X136606873Y-95593302D01*
X136586073Y-95588091D01*
X136565884Y-95580868D01*
X136546500Y-95571700D01*
X136528108Y-95560676D01*
X136510885Y-95547903D01*
X136494997Y-95533503D01*
X136480597Y-95517615D01*
X136467824Y-95500392D01*
X136456800Y-95482000D01*
X136447632Y-95462616D01*
X136440409Y-95442427D01*
X136435198Y-95421627D01*
X136432052Y-95400417D01*
X136431000Y-95379000D01*
X136431000Y-94867000D01*
X136432052Y-94845583D01*
X136435198Y-94824373D01*
X136440409Y-94803573D01*
X136447632Y-94783384D01*
X136456800Y-94764000D01*
X136467824Y-94745608D01*
X136480597Y-94728385D01*
X136494997Y-94712497D01*
X136510885Y-94698097D01*
X136528108Y-94685324D01*
X136546500Y-94674300D01*
X136565884Y-94665132D01*
X136586073Y-94657909D01*
X136606873Y-94652698D01*
X136628083Y-94649552D01*
X136649500Y-94648500D01*
X137086500Y-94648500D01*
X137107917Y-94649552D01*
X137107917Y-94649552D01*
G37*
D11*
X136868000Y-95123000D03*
D10*
G36*
X145120917Y-95792052D02*
G01*
X145142127Y-95795198D01*
X145162927Y-95800409D01*
X145183116Y-95807632D01*
X145202500Y-95816800D01*
X145220892Y-95827824D01*
X145238115Y-95840597D01*
X145254003Y-95854997D01*
X145268403Y-95870885D01*
X145281176Y-95888108D01*
X145292200Y-95906500D01*
X145301368Y-95925884D01*
X145308591Y-95946073D01*
X145313802Y-95966873D01*
X145316948Y-95988083D01*
X145318000Y-96009500D01*
X145318000Y-96446500D01*
X145316948Y-96467917D01*
X145313802Y-96489127D01*
X145308591Y-96509927D01*
X145301368Y-96530116D01*
X145292200Y-96549500D01*
X145281176Y-96567892D01*
X145268403Y-96585115D01*
X145254003Y-96601003D01*
X145238115Y-96615403D01*
X145220892Y-96628176D01*
X145202500Y-96639200D01*
X145183116Y-96648368D01*
X145162927Y-96655591D01*
X145142127Y-96660802D01*
X145120917Y-96663948D01*
X145099500Y-96665000D01*
X144587500Y-96665000D01*
X144566083Y-96663948D01*
X144544873Y-96660802D01*
X144524073Y-96655591D01*
X144503884Y-96648368D01*
X144484500Y-96639200D01*
X144466108Y-96628176D01*
X144448885Y-96615403D01*
X144432997Y-96601003D01*
X144418597Y-96585115D01*
X144405824Y-96567892D01*
X144394800Y-96549500D01*
X144385632Y-96530116D01*
X144378409Y-96509927D01*
X144373198Y-96489127D01*
X144370052Y-96467917D01*
X144369000Y-96446500D01*
X144369000Y-96009500D01*
X144370052Y-95988083D01*
X144373198Y-95966873D01*
X144378409Y-95946073D01*
X144385632Y-95925884D01*
X144394800Y-95906500D01*
X144405824Y-95888108D01*
X144418597Y-95870885D01*
X144432997Y-95854997D01*
X144448885Y-95840597D01*
X144466108Y-95827824D01*
X144484500Y-95816800D01*
X144503884Y-95807632D01*
X144524073Y-95800409D01*
X144544873Y-95795198D01*
X144566083Y-95792052D01*
X144587500Y-95791000D01*
X145099500Y-95791000D01*
X145120917Y-95792052D01*
X145120917Y-95792052D01*
G37*
D11*
X144843500Y-96228000D03*
D10*
G36*
X145120917Y-94217052D02*
G01*
X145142127Y-94220198D01*
X145162927Y-94225409D01*
X145183116Y-94232632D01*
X145202500Y-94241800D01*
X145220892Y-94252824D01*
X145238115Y-94265597D01*
X145254003Y-94279997D01*
X145268403Y-94295885D01*
X145281176Y-94313108D01*
X145292200Y-94331500D01*
X145301368Y-94350884D01*
X145308591Y-94371073D01*
X145313802Y-94391873D01*
X145316948Y-94413083D01*
X145318000Y-94434500D01*
X145318000Y-94871500D01*
X145316948Y-94892917D01*
X145313802Y-94914127D01*
X145308591Y-94934927D01*
X145301368Y-94955116D01*
X145292200Y-94974500D01*
X145281176Y-94992892D01*
X145268403Y-95010115D01*
X145254003Y-95026003D01*
X145238115Y-95040403D01*
X145220892Y-95053176D01*
X145202500Y-95064200D01*
X145183116Y-95073368D01*
X145162927Y-95080591D01*
X145142127Y-95085802D01*
X145120917Y-95088948D01*
X145099500Y-95090000D01*
X144587500Y-95090000D01*
X144566083Y-95088948D01*
X144544873Y-95085802D01*
X144524073Y-95080591D01*
X144503884Y-95073368D01*
X144484500Y-95064200D01*
X144466108Y-95053176D01*
X144448885Y-95040403D01*
X144432997Y-95026003D01*
X144418597Y-95010115D01*
X144405824Y-94992892D01*
X144394800Y-94974500D01*
X144385632Y-94955116D01*
X144378409Y-94934927D01*
X144373198Y-94914127D01*
X144370052Y-94892917D01*
X144369000Y-94871500D01*
X144369000Y-94434500D01*
X144370052Y-94413083D01*
X144373198Y-94391873D01*
X144378409Y-94371073D01*
X144385632Y-94350884D01*
X144394800Y-94331500D01*
X144405824Y-94313108D01*
X144418597Y-94295885D01*
X144432997Y-94279997D01*
X144448885Y-94265597D01*
X144466108Y-94252824D01*
X144484500Y-94241800D01*
X144503884Y-94232632D01*
X144524073Y-94225409D01*
X144544873Y-94220198D01*
X144566083Y-94217052D01*
X144587500Y-94216000D01*
X145099500Y-94216000D01*
X145120917Y-94217052D01*
X145120917Y-94217052D01*
G37*
D11*
X144843500Y-94653000D03*
D10*
G36*
X148295917Y-90331052D02*
G01*
X148317127Y-90334198D01*
X148337927Y-90339409D01*
X148358116Y-90346632D01*
X148377500Y-90355800D01*
X148395892Y-90366824D01*
X148413115Y-90379597D01*
X148429003Y-90393997D01*
X148443403Y-90409885D01*
X148456176Y-90427108D01*
X148467200Y-90445500D01*
X148476368Y-90464884D01*
X148483591Y-90485073D01*
X148488802Y-90505873D01*
X148491948Y-90527083D01*
X148493000Y-90548500D01*
X148493000Y-90985500D01*
X148491948Y-91006917D01*
X148488802Y-91028127D01*
X148483591Y-91048927D01*
X148476368Y-91069116D01*
X148467200Y-91088500D01*
X148456176Y-91106892D01*
X148443403Y-91124115D01*
X148429003Y-91140003D01*
X148413115Y-91154403D01*
X148395892Y-91167176D01*
X148377500Y-91178200D01*
X148358116Y-91187368D01*
X148337927Y-91194591D01*
X148317127Y-91199802D01*
X148295917Y-91202948D01*
X148274500Y-91204000D01*
X147762500Y-91204000D01*
X147741083Y-91202948D01*
X147719873Y-91199802D01*
X147699073Y-91194591D01*
X147678884Y-91187368D01*
X147659500Y-91178200D01*
X147641108Y-91167176D01*
X147623885Y-91154403D01*
X147607997Y-91140003D01*
X147593597Y-91124115D01*
X147580824Y-91106892D01*
X147569800Y-91088500D01*
X147560632Y-91069116D01*
X147553409Y-91048927D01*
X147548198Y-91028127D01*
X147545052Y-91006917D01*
X147544000Y-90985500D01*
X147544000Y-90548500D01*
X147545052Y-90527083D01*
X147548198Y-90505873D01*
X147553409Y-90485073D01*
X147560632Y-90464884D01*
X147569800Y-90445500D01*
X147580824Y-90427108D01*
X147593597Y-90409885D01*
X147607997Y-90393997D01*
X147623885Y-90379597D01*
X147641108Y-90366824D01*
X147659500Y-90355800D01*
X147678884Y-90346632D01*
X147699073Y-90339409D01*
X147719873Y-90334198D01*
X147741083Y-90331052D01*
X147762500Y-90330000D01*
X148274500Y-90330000D01*
X148295917Y-90331052D01*
X148295917Y-90331052D01*
G37*
D11*
X148018500Y-90767000D03*
D10*
G36*
X148295917Y-88756052D02*
G01*
X148317127Y-88759198D01*
X148337927Y-88764409D01*
X148358116Y-88771632D01*
X148377500Y-88780800D01*
X148395892Y-88791824D01*
X148413115Y-88804597D01*
X148429003Y-88818997D01*
X148443403Y-88834885D01*
X148456176Y-88852108D01*
X148467200Y-88870500D01*
X148476368Y-88889884D01*
X148483591Y-88910073D01*
X148488802Y-88930873D01*
X148491948Y-88952083D01*
X148493000Y-88973500D01*
X148493000Y-89410500D01*
X148491948Y-89431917D01*
X148488802Y-89453127D01*
X148483591Y-89473927D01*
X148476368Y-89494116D01*
X148467200Y-89513500D01*
X148456176Y-89531892D01*
X148443403Y-89549115D01*
X148429003Y-89565003D01*
X148413115Y-89579403D01*
X148395892Y-89592176D01*
X148377500Y-89603200D01*
X148358116Y-89612368D01*
X148337927Y-89619591D01*
X148317127Y-89624802D01*
X148295917Y-89627948D01*
X148274500Y-89629000D01*
X147762500Y-89629000D01*
X147741083Y-89627948D01*
X147719873Y-89624802D01*
X147699073Y-89619591D01*
X147678884Y-89612368D01*
X147659500Y-89603200D01*
X147641108Y-89592176D01*
X147623885Y-89579403D01*
X147607997Y-89565003D01*
X147593597Y-89549115D01*
X147580824Y-89531892D01*
X147569800Y-89513500D01*
X147560632Y-89494116D01*
X147553409Y-89473927D01*
X147548198Y-89453127D01*
X147545052Y-89431917D01*
X147544000Y-89410500D01*
X147544000Y-88973500D01*
X147545052Y-88952083D01*
X147548198Y-88930873D01*
X147553409Y-88910073D01*
X147560632Y-88889884D01*
X147569800Y-88870500D01*
X147580824Y-88852108D01*
X147593597Y-88834885D01*
X147607997Y-88818997D01*
X147623885Y-88804597D01*
X147641108Y-88791824D01*
X147659500Y-88780800D01*
X147678884Y-88771632D01*
X147699073Y-88764409D01*
X147719873Y-88759198D01*
X147741083Y-88756052D01*
X147762500Y-88755000D01*
X148274500Y-88755000D01*
X148295917Y-88756052D01*
X148295917Y-88756052D01*
G37*
D11*
X148018500Y-89192000D03*
D10*
G36*
X140294917Y-89632552D02*
G01*
X140316127Y-89635698D01*
X140336927Y-89640909D01*
X140357116Y-89648132D01*
X140376500Y-89657300D01*
X140394892Y-89668324D01*
X140412115Y-89681097D01*
X140428003Y-89695497D01*
X140442403Y-89711385D01*
X140455176Y-89728608D01*
X140466200Y-89747000D01*
X140475368Y-89766384D01*
X140482591Y-89786573D01*
X140487802Y-89807373D01*
X140490948Y-89828583D01*
X140492000Y-89850000D01*
X140492000Y-90287000D01*
X140490948Y-90308417D01*
X140487802Y-90329627D01*
X140482591Y-90350427D01*
X140475368Y-90370616D01*
X140466200Y-90390000D01*
X140455176Y-90408392D01*
X140442403Y-90425615D01*
X140428003Y-90441503D01*
X140412115Y-90455903D01*
X140394892Y-90468676D01*
X140376500Y-90479700D01*
X140357116Y-90488868D01*
X140336927Y-90496091D01*
X140316127Y-90501302D01*
X140294917Y-90504448D01*
X140273500Y-90505500D01*
X139761500Y-90505500D01*
X139740083Y-90504448D01*
X139718873Y-90501302D01*
X139698073Y-90496091D01*
X139677884Y-90488868D01*
X139658500Y-90479700D01*
X139640108Y-90468676D01*
X139622885Y-90455903D01*
X139606997Y-90441503D01*
X139592597Y-90425615D01*
X139579824Y-90408392D01*
X139568800Y-90390000D01*
X139559632Y-90370616D01*
X139552409Y-90350427D01*
X139547198Y-90329627D01*
X139544052Y-90308417D01*
X139543000Y-90287000D01*
X139543000Y-89850000D01*
X139544052Y-89828583D01*
X139547198Y-89807373D01*
X139552409Y-89786573D01*
X139559632Y-89766384D01*
X139568800Y-89747000D01*
X139579824Y-89728608D01*
X139592597Y-89711385D01*
X139606997Y-89695497D01*
X139622885Y-89681097D01*
X139640108Y-89668324D01*
X139658500Y-89657300D01*
X139677884Y-89648132D01*
X139698073Y-89640909D01*
X139718873Y-89635698D01*
X139740083Y-89632552D01*
X139761500Y-89631500D01*
X140273500Y-89631500D01*
X140294917Y-89632552D01*
X140294917Y-89632552D01*
G37*
D11*
X140017500Y-90068500D03*
D10*
G36*
X140294917Y-88057552D02*
G01*
X140316127Y-88060698D01*
X140336927Y-88065909D01*
X140357116Y-88073132D01*
X140376500Y-88082300D01*
X140394892Y-88093324D01*
X140412115Y-88106097D01*
X140428003Y-88120497D01*
X140442403Y-88136385D01*
X140455176Y-88153608D01*
X140466200Y-88172000D01*
X140475368Y-88191384D01*
X140482591Y-88211573D01*
X140487802Y-88232373D01*
X140490948Y-88253583D01*
X140492000Y-88275000D01*
X140492000Y-88712000D01*
X140490948Y-88733417D01*
X140487802Y-88754627D01*
X140482591Y-88775427D01*
X140475368Y-88795616D01*
X140466200Y-88815000D01*
X140455176Y-88833392D01*
X140442403Y-88850615D01*
X140428003Y-88866503D01*
X140412115Y-88880903D01*
X140394892Y-88893676D01*
X140376500Y-88904700D01*
X140357116Y-88913868D01*
X140336927Y-88921091D01*
X140316127Y-88926302D01*
X140294917Y-88929448D01*
X140273500Y-88930500D01*
X139761500Y-88930500D01*
X139740083Y-88929448D01*
X139718873Y-88926302D01*
X139698073Y-88921091D01*
X139677884Y-88913868D01*
X139658500Y-88904700D01*
X139640108Y-88893676D01*
X139622885Y-88880903D01*
X139606997Y-88866503D01*
X139592597Y-88850615D01*
X139579824Y-88833392D01*
X139568800Y-88815000D01*
X139559632Y-88795616D01*
X139552409Y-88775427D01*
X139547198Y-88754627D01*
X139544052Y-88733417D01*
X139543000Y-88712000D01*
X139543000Y-88275000D01*
X139544052Y-88253583D01*
X139547198Y-88232373D01*
X139552409Y-88211573D01*
X139559632Y-88191384D01*
X139568800Y-88172000D01*
X139579824Y-88153608D01*
X139592597Y-88136385D01*
X139606997Y-88120497D01*
X139622885Y-88106097D01*
X139640108Y-88093324D01*
X139658500Y-88082300D01*
X139677884Y-88073132D01*
X139698073Y-88065909D01*
X139718873Y-88060698D01*
X139740083Y-88057552D01*
X139761500Y-88056500D01*
X140273500Y-88056500D01*
X140294917Y-88057552D01*
X140294917Y-88057552D01*
G37*
D11*
X140017500Y-88493500D03*
D10*
G36*
X132230417Y-90140552D02*
G01*
X132251627Y-90143698D01*
X132272427Y-90148909D01*
X132292616Y-90156132D01*
X132312000Y-90165300D01*
X132330392Y-90176324D01*
X132347615Y-90189097D01*
X132363503Y-90203497D01*
X132377903Y-90219385D01*
X132390676Y-90236608D01*
X132401700Y-90255000D01*
X132410868Y-90274384D01*
X132418091Y-90294573D01*
X132423302Y-90315373D01*
X132426448Y-90336583D01*
X132427500Y-90358000D01*
X132427500Y-90795000D01*
X132426448Y-90816417D01*
X132423302Y-90837627D01*
X132418091Y-90858427D01*
X132410868Y-90878616D01*
X132401700Y-90898000D01*
X132390676Y-90916392D01*
X132377903Y-90933615D01*
X132363503Y-90949503D01*
X132347615Y-90963903D01*
X132330392Y-90976676D01*
X132312000Y-90987700D01*
X132292616Y-90996868D01*
X132272427Y-91004091D01*
X132251627Y-91009302D01*
X132230417Y-91012448D01*
X132209000Y-91013500D01*
X131697000Y-91013500D01*
X131675583Y-91012448D01*
X131654373Y-91009302D01*
X131633573Y-91004091D01*
X131613384Y-90996868D01*
X131594000Y-90987700D01*
X131575608Y-90976676D01*
X131558385Y-90963903D01*
X131542497Y-90949503D01*
X131528097Y-90933615D01*
X131515324Y-90916392D01*
X131504300Y-90898000D01*
X131495132Y-90878616D01*
X131487909Y-90858427D01*
X131482698Y-90837627D01*
X131479552Y-90816417D01*
X131478500Y-90795000D01*
X131478500Y-90358000D01*
X131479552Y-90336583D01*
X131482698Y-90315373D01*
X131487909Y-90294573D01*
X131495132Y-90274384D01*
X131504300Y-90255000D01*
X131515324Y-90236608D01*
X131528097Y-90219385D01*
X131542497Y-90203497D01*
X131558385Y-90189097D01*
X131575608Y-90176324D01*
X131594000Y-90165300D01*
X131613384Y-90156132D01*
X131633573Y-90148909D01*
X131654373Y-90143698D01*
X131675583Y-90140552D01*
X131697000Y-90139500D01*
X132209000Y-90139500D01*
X132230417Y-90140552D01*
X132230417Y-90140552D01*
G37*
D11*
X131953000Y-90576500D03*
D10*
G36*
X132230417Y-88565552D02*
G01*
X132251627Y-88568698D01*
X132272427Y-88573909D01*
X132292616Y-88581132D01*
X132312000Y-88590300D01*
X132330392Y-88601324D01*
X132347615Y-88614097D01*
X132363503Y-88628497D01*
X132377903Y-88644385D01*
X132390676Y-88661608D01*
X132401700Y-88680000D01*
X132410868Y-88699384D01*
X132418091Y-88719573D01*
X132423302Y-88740373D01*
X132426448Y-88761583D01*
X132427500Y-88783000D01*
X132427500Y-89220000D01*
X132426448Y-89241417D01*
X132423302Y-89262627D01*
X132418091Y-89283427D01*
X132410868Y-89303616D01*
X132401700Y-89323000D01*
X132390676Y-89341392D01*
X132377903Y-89358615D01*
X132363503Y-89374503D01*
X132347615Y-89388903D01*
X132330392Y-89401676D01*
X132312000Y-89412700D01*
X132292616Y-89421868D01*
X132272427Y-89429091D01*
X132251627Y-89434302D01*
X132230417Y-89437448D01*
X132209000Y-89438500D01*
X131697000Y-89438500D01*
X131675583Y-89437448D01*
X131654373Y-89434302D01*
X131633573Y-89429091D01*
X131613384Y-89421868D01*
X131594000Y-89412700D01*
X131575608Y-89401676D01*
X131558385Y-89388903D01*
X131542497Y-89374503D01*
X131528097Y-89358615D01*
X131515324Y-89341392D01*
X131504300Y-89323000D01*
X131495132Y-89303616D01*
X131487909Y-89283427D01*
X131482698Y-89262627D01*
X131479552Y-89241417D01*
X131478500Y-89220000D01*
X131478500Y-88783000D01*
X131479552Y-88761583D01*
X131482698Y-88740373D01*
X131487909Y-88719573D01*
X131495132Y-88699384D01*
X131504300Y-88680000D01*
X131515324Y-88661608D01*
X131528097Y-88644385D01*
X131542497Y-88628497D01*
X131558385Y-88614097D01*
X131575608Y-88601324D01*
X131594000Y-88590300D01*
X131613384Y-88581132D01*
X131633573Y-88573909D01*
X131654373Y-88568698D01*
X131675583Y-88565552D01*
X131697000Y-88564500D01*
X132209000Y-88564500D01*
X132230417Y-88565552D01*
X132230417Y-88565552D01*
G37*
D11*
X131953000Y-89001500D03*
D10*
G36*
X125372917Y-84870552D02*
G01*
X125394127Y-84873698D01*
X125414927Y-84878909D01*
X125435116Y-84886132D01*
X125454500Y-84895300D01*
X125472892Y-84906324D01*
X125490115Y-84919097D01*
X125506003Y-84933497D01*
X125520403Y-84949385D01*
X125533176Y-84966608D01*
X125544200Y-84985000D01*
X125553368Y-85004384D01*
X125560591Y-85024573D01*
X125565802Y-85045373D01*
X125568948Y-85066583D01*
X125570000Y-85088000D01*
X125570000Y-85600000D01*
X125568948Y-85621417D01*
X125565802Y-85642627D01*
X125560591Y-85663427D01*
X125553368Y-85683616D01*
X125544200Y-85703000D01*
X125533176Y-85721392D01*
X125520403Y-85738615D01*
X125506003Y-85754503D01*
X125490115Y-85768903D01*
X125472892Y-85781676D01*
X125454500Y-85792700D01*
X125435116Y-85801868D01*
X125414927Y-85809091D01*
X125394127Y-85814302D01*
X125372917Y-85817448D01*
X125351500Y-85818500D01*
X124914500Y-85818500D01*
X124893083Y-85817448D01*
X124871873Y-85814302D01*
X124851073Y-85809091D01*
X124830884Y-85801868D01*
X124811500Y-85792700D01*
X124793108Y-85781676D01*
X124775885Y-85768903D01*
X124759997Y-85754503D01*
X124745597Y-85738615D01*
X124732824Y-85721392D01*
X124721800Y-85703000D01*
X124712632Y-85683616D01*
X124705409Y-85663427D01*
X124700198Y-85642627D01*
X124697052Y-85621417D01*
X124696000Y-85600000D01*
X124696000Y-85088000D01*
X124697052Y-85066583D01*
X124700198Y-85045373D01*
X124705409Y-85024573D01*
X124712632Y-85004384D01*
X124721800Y-84985000D01*
X124732824Y-84966608D01*
X124745597Y-84949385D01*
X124759997Y-84933497D01*
X124775885Y-84919097D01*
X124793108Y-84906324D01*
X124811500Y-84895300D01*
X124830884Y-84886132D01*
X124851073Y-84878909D01*
X124871873Y-84873698D01*
X124893083Y-84870552D01*
X124914500Y-84869500D01*
X125351500Y-84869500D01*
X125372917Y-84870552D01*
X125372917Y-84870552D01*
G37*
D11*
X125133000Y-85344000D03*
D10*
G36*
X126947917Y-84870552D02*
G01*
X126969127Y-84873698D01*
X126989927Y-84878909D01*
X127010116Y-84886132D01*
X127029500Y-84895300D01*
X127047892Y-84906324D01*
X127065115Y-84919097D01*
X127081003Y-84933497D01*
X127095403Y-84949385D01*
X127108176Y-84966608D01*
X127119200Y-84985000D01*
X127128368Y-85004384D01*
X127135591Y-85024573D01*
X127140802Y-85045373D01*
X127143948Y-85066583D01*
X127145000Y-85088000D01*
X127145000Y-85600000D01*
X127143948Y-85621417D01*
X127140802Y-85642627D01*
X127135591Y-85663427D01*
X127128368Y-85683616D01*
X127119200Y-85703000D01*
X127108176Y-85721392D01*
X127095403Y-85738615D01*
X127081003Y-85754503D01*
X127065115Y-85768903D01*
X127047892Y-85781676D01*
X127029500Y-85792700D01*
X127010116Y-85801868D01*
X126989927Y-85809091D01*
X126969127Y-85814302D01*
X126947917Y-85817448D01*
X126926500Y-85818500D01*
X126489500Y-85818500D01*
X126468083Y-85817448D01*
X126446873Y-85814302D01*
X126426073Y-85809091D01*
X126405884Y-85801868D01*
X126386500Y-85792700D01*
X126368108Y-85781676D01*
X126350885Y-85768903D01*
X126334997Y-85754503D01*
X126320597Y-85738615D01*
X126307824Y-85721392D01*
X126296800Y-85703000D01*
X126287632Y-85683616D01*
X126280409Y-85663427D01*
X126275198Y-85642627D01*
X126272052Y-85621417D01*
X126271000Y-85600000D01*
X126271000Y-85088000D01*
X126272052Y-85066583D01*
X126275198Y-85045373D01*
X126280409Y-85024573D01*
X126287632Y-85004384D01*
X126296800Y-84985000D01*
X126307824Y-84966608D01*
X126320597Y-84949385D01*
X126334997Y-84933497D01*
X126350885Y-84919097D01*
X126368108Y-84906324D01*
X126386500Y-84895300D01*
X126405884Y-84886132D01*
X126426073Y-84878909D01*
X126446873Y-84873698D01*
X126468083Y-84870552D01*
X126489500Y-84869500D01*
X126926500Y-84869500D01*
X126947917Y-84870552D01*
X126947917Y-84870552D01*
G37*
D11*
X126708000Y-85344000D03*
D10*
G36*
X135012417Y-86331052D02*
G01*
X135033627Y-86334198D01*
X135054427Y-86339409D01*
X135074616Y-86346632D01*
X135094000Y-86355800D01*
X135112392Y-86366824D01*
X135129615Y-86379597D01*
X135145503Y-86393997D01*
X135159903Y-86409885D01*
X135172676Y-86427108D01*
X135183700Y-86445500D01*
X135192868Y-86464884D01*
X135200091Y-86485073D01*
X135205302Y-86505873D01*
X135208448Y-86527083D01*
X135209500Y-86548500D01*
X135209500Y-87060500D01*
X135208448Y-87081917D01*
X135205302Y-87103127D01*
X135200091Y-87123927D01*
X135192868Y-87144116D01*
X135183700Y-87163500D01*
X135172676Y-87181892D01*
X135159903Y-87199115D01*
X135145503Y-87215003D01*
X135129615Y-87229403D01*
X135112392Y-87242176D01*
X135094000Y-87253200D01*
X135074616Y-87262368D01*
X135054427Y-87269591D01*
X135033627Y-87274802D01*
X135012417Y-87277948D01*
X134991000Y-87279000D01*
X134554000Y-87279000D01*
X134532583Y-87277948D01*
X134511373Y-87274802D01*
X134490573Y-87269591D01*
X134470384Y-87262368D01*
X134451000Y-87253200D01*
X134432608Y-87242176D01*
X134415385Y-87229403D01*
X134399497Y-87215003D01*
X134385097Y-87199115D01*
X134372324Y-87181892D01*
X134361300Y-87163500D01*
X134352132Y-87144116D01*
X134344909Y-87123927D01*
X134339698Y-87103127D01*
X134336552Y-87081917D01*
X134335500Y-87060500D01*
X134335500Y-86548500D01*
X134336552Y-86527083D01*
X134339698Y-86505873D01*
X134344909Y-86485073D01*
X134352132Y-86464884D01*
X134361300Y-86445500D01*
X134372324Y-86427108D01*
X134385097Y-86409885D01*
X134399497Y-86393997D01*
X134415385Y-86379597D01*
X134432608Y-86366824D01*
X134451000Y-86355800D01*
X134470384Y-86346632D01*
X134490573Y-86339409D01*
X134511373Y-86334198D01*
X134532583Y-86331052D01*
X134554000Y-86330000D01*
X134991000Y-86330000D01*
X135012417Y-86331052D01*
X135012417Y-86331052D01*
G37*
D11*
X134772500Y-86804500D03*
D10*
G36*
X133437417Y-86331052D02*
G01*
X133458627Y-86334198D01*
X133479427Y-86339409D01*
X133499616Y-86346632D01*
X133519000Y-86355800D01*
X133537392Y-86366824D01*
X133554615Y-86379597D01*
X133570503Y-86393997D01*
X133584903Y-86409885D01*
X133597676Y-86427108D01*
X133608700Y-86445500D01*
X133617868Y-86464884D01*
X133625091Y-86485073D01*
X133630302Y-86505873D01*
X133633448Y-86527083D01*
X133634500Y-86548500D01*
X133634500Y-87060500D01*
X133633448Y-87081917D01*
X133630302Y-87103127D01*
X133625091Y-87123927D01*
X133617868Y-87144116D01*
X133608700Y-87163500D01*
X133597676Y-87181892D01*
X133584903Y-87199115D01*
X133570503Y-87215003D01*
X133554615Y-87229403D01*
X133537392Y-87242176D01*
X133519000Y-87253200D01*
X133499616Y-87262368D01*
X133479427Y-87269591D01*
X133458627Y-87274802D01*
X133437417Y-87277948D01*
X133416000Y-87279000D01*
X132979000Y-87279000D01*
X132957583Y-87277948D01*
X132936373Y-87274802D01*
X132915573Y-87269591D01*
X132895384Y-87262368D01*
X132876000Y-87253200D01*
X132857608Y-87242176D01*
X132840385Y-87229403D01*
X132824497Y-87215003D01*
X132810097Y-87199115D01*
X132797324Y-87181892D01*
X132786300Y-87163500D01*
X132777132Y-87144116D01*
X132769909Y-87123927D01*
X132764698Y-87103127D01*
X132761552Y-87081917D01*
X132760500Y-87060500D01*
X132760500Y-86548500D01*
X132761552Y-86527083D01*
X132764698Y-86505873D01*
X132769909Y-86485073D01*
X132777132Y-86464884D01*
X132786300Y-86445500D01*
X132797324Y-86427108D01*
X132810097Y-86409885D01*
X132824497Y-86393997D01*
X132840385Y-86379597D01*
X132857608Y-86366824D01*
X132876000Y-86355800D01*
X132895384Y-86346632D01*
X132915573Y-86339409D01*
X132936373Y-86334198D01*
X132957583Y-86331052D01*
X132979000Y-86330000D01*
X133416000Y-86330000D01*
X133437417Y-86331052D01*
X133437417Y-86331052D01*
G37*
D11*
X133197500Y-86804500D03*
D10*
G36*
X148041917Y-83663552D02*
G01*
X148063127Y-83666698D01*
X148083927Y-83671909D01*
X148104116Y-83679132D01*
X148123500Y-83688300D01*
X148141892Y-83699324D01*
X148159115Y-83712097D01*
X148175003Y-83726497D01*
X148189403Y-83742385D01*
X148202176Y-83759608D01*
X148213200Y-83778000D01*
X148222368Y-83797384D01*
X148229591Y-83817573D01*
X148234802Y-83838373D01*
X148237948Y-83859583D01*
X148239000Y-83881000D01*
X148239000Y-84318000D01*
X148237948Y-84339417D01*
X148234802Y-84360627D01*
X148229591Y-84381427D01*
X148222368Y-84401616D01*
X148213200Y-84421000D01*
X148202176Y-84439392D01*
X148189403Y-84456615D01*
X148175003Y-84472503D01*
X148159115Y-84486903D01*
X148141892Y-84499676D01*
X148123500Y-84510700D01*
X148104116Y-84519868D01*
X148083927Y-84527091D01*
X148063127Y-84532302D01*
X148041917Y-84535448D01*
X148020500Y-84536500D01*
X147508500Y-84536500D01*
X147487083Y-84535448D01*
X147465873Y-84532302D01*
X147445073Y-84527091D01*
X147424884Y-84519868D01*
X147405500Y-84510700D01*
X147387108Y-84499676D01*
X147369885Y-84486903D01*
X147353997Y-84472503D01*
X147339597Y-84456615D01*
X147326824Y-84439392D01*
X147315800Y-84421000D01*
X147306632Y-84401616D01*
X147299409Y-84381427D01*
X147294198Y-84360627D01*
X147291052Y-84339417D01*
X147290000Y-84318000D01*
X147290000Y-83881000D01*
X147291052Y-83859583D01*
X147294198Y-83838373D01*
X147299409Y-83817573D01*
X147306632Y-83797384D01*
X147315800Y-83778000D01*
X147326824Y-83759608D01*
X147339597Y-83742385D01*
X147353997Y-83726497D01*
X147369885Y-83712097D01*
X147387108Y-83699324D01*
X147405500Y-83688300D01*
X147424884Y-83679132D01*
X147445073Y-83671909D01*
X147465873Y-83666698D01*
X147487083Y-83663552D01*
X147508500Y-83662500D01*
X148020500Y-83662500D01*
X148041917Y-83663552D01*
X148041917Y-83663552D01*
G37*
D11*
X147764500Y-84099500D03*
D10*
G36*
X148041917Y-82088552D02*
G01*
X148063127Y-82091698D01*
X148083927Y-82096909D01*
X148104116Y-82104132D01*
X148123500Y-82113300D01*
X148141892Y-82124324D01*
X148159115Y-82137097D01*
X148175003Y-82151497D01*
X148189403Y-82167385D01*
X148202176Y-82184608D01*
X148213200Y-82203000D01*
X148222368Y-82222384D01*
X148229591Y-82242573D01*
X148234802Y-82263373D01*
X148237948Y-82284583D01*
X148239000Y-82306000D01*
X148239000Y-82743000D01*
X148237948Y-82764417D01*
X148234802Y-82785627D01*
X148229591Y-82806427D01*
X148222368Y-82826616D01*
X148213200Y-82846000D01*
X148202176Y-82864392D01*
X148189403Y-82881615D01*
X148175003Y-82897503D01*
X148159115Y-82911903D01*
X148141892Y-82924676D01*
X148123500Y-82935700D01*
X148104116Y-82944868D01*
X148083927Y-82952091D01*
X148063127Y-82957302D01*
X148041917Y-82960448D01*
X148020500Y-82961500D01*
X147508500Y-82961500D01*
X147487083Y-82960448D01*
X147465873Y-82957302D01*
X147445073Y-82952091D01*
X147424884Y-82944868D01*
X147405500Y-82935700D01*
X147387108Y-82924676D01*
X147369885Y-82911903D01*
X147353997Y-82897503D01*
X147339597Y-82881615D01*
X147326824Y-82864392D01*
X147315800Y-82846000D01*
X147306632Y-82826616D01*
X147299409Y-82806427D01*
X147294198Y-82785627D01*
X147291052Y-82764417D01*
X147290000Y-82743000D01*
X147290000Y-82306000D01*
X147291052Y-82284583D01*
X147294198Y-82263373D01*
X147299409Y-82242573D01*
X147306632Y-82222384D01*
X147315800Y-82203000D01*
X147326824Y-82184608D01*
X147339597Y-82167385D01*
X147353997Y-82151497D01*
X147369885Y-82137097D01*
X147387108Y-82124324D01*
X147405500Y-82113300D01*
X147424884Y-82104132D01*
X147445073Y-82096909D01*
X147465873Y-82091698D01*
X147487083Y-82088552D01*
X147508500Y-82087500D01*
X148020500Y-82087500D01*
X148041917Y-82088552D01*
X148041917Y-82088552D01*
G37*
D11*
X147764500Y-82524500D03*
D10*
G36*
X140802917Y-83536552D02*
G01*
X140824127Y-83539698D01*
X140844927Y-83544909D01*
X140865116Y-83552132D01*
X140884500Y-83561300D01*
X140902892Y-83572324D01*
X140920115Y-83585097D01*
X140936003Y-83599497D01*
X140950403Y-83615385D01*
X140963176Y-83632608D01*
X140974200Y-83651000D01*
X140983368Y-83670384D01*
X140990591Y-83690573D01*
X140995802Y-83711373D01*
X140998948Y-83732583D01*
X141000000Y-83754000D01*
X141000000Y-84191000D01*
X140998948Y-84212417D01*
X140995802Y-84233627D01*
X140990591Y-84254427D01*
X140983368Y-84274616D01*
X140974200Y-84294000D01*
X140963176Y-84312392D01*
X140950403Y-84329615D01*
X140936003Y-84345503D01*
X140920115Y-84359903D01*
X140902892Y-84372676D01*
X140884500Y-84383700D01*
X140865116Y-84392868D01*
X140844927Y-84400091D01*
X140824127Y-84405302D01*
X140802917Y-84408448D01*
X140781500Y-84409500D01*
X140269500Y-84409500D01*
X140248083Y-84408448D01*
X140226873Y-84405302D01*
X140206073Y-84400091D01*
X140185884Y-84392868D01*
X140166500Y-84383700D01*
X140148108Y-84372676D01*
X140130885Y-84359903D01*
X140114997Y-84345503D01*
X140100597Y-84329615D01*
X140087824Y-84312392D01*
X140076800Y-84294000D01*
X140067632Y-84274616D01*
X140060409Y-84254427D01*
X140055198Y-84233627D01*
X140052052Y-84212417D01*
X140051000Y-84191000D01*
X140051000Y-83754000D01*
X140052052Y-83732583D01*
X140055198Y-83711373D01*
X140060409Y-83690573D01*
X140067632Y-83670384D01*
X140076800Y-83651000D01*
X140087824Y-83632608D01*
X140100597Y-83615385D01*
X140114997Y-83599497D01*
X140130885Y-83585097D01*
X140148108Y-83572324D01*
X140166500Y-83561300D01*
X140185884Y-83552132D01*
X140206073Y-83544909D01*
X140226873Y-83539698D01*
X140248083Y-83536552D01*
X140269500Y-83535500D01*
X140781500Y-83535500D01*
X140802917Y-83536552D01*
X140802917Y-83536552D01*
G37*
D11*
X140525500Y-83972500D03*
D10*
G36*
X140802917Y-81961552D02*
G01*
X140824127Y-81964698D01*
X140844927Y-81969909D01*
X140865116Y-81977132D01*
X140884500Y-81986300D01*
X140902892Y-81997324D01*
X140920115Y-82010097D01*
X140936003Y-82024497D01*
X140950403Y-82040385D01*
X140963176Y-82057608D01*
X140974200Y-82076000D01*
X140983368Y-82095384D01*
X140990591Y-82115573D01*
X140995802Y-82136373D01*
X140998948Y-82157583D01*
X141000000Y-82179000D01*
X141000000Y-82616000D01*
X140998948Y-82637417D01*
X140995802Y-82658627D01*
X140990591Y-82679427D01*
X140983368Y-82699616D01*
X140974200Y-82719000D01*
X140963176Y-82737392D01*
X140950403Y-82754615D01*
X140936003Y-82770503D01*
X140920115Y-82784903D01*
X140902892Y-82797676D01*
X140884500Y-82808700D01*
X140865116Y-82817868D01*
X140844927Y-82825091D01*
X140824127Y-82830302D01*
X140802917Y-82833448D01*
X140781500Y-82834500D01*
X140269500Y-82834500D01*
X140248083Y-82833448D01*
X140226873Y-82830302D01*
X140206073Y-82825091D01*
X140185884Y-82817868D01*
X140166500Y-82808700D01*
X140148108Y-82797676D01*
X140130885Y-82784903D01*
X140114997Y-82770503D01*
X140100597Y-82754615D01*
X140087824Y-82737392D01*
X140076800Y-82719000D01*
X140067632Y-82699616D01*
X140060409Y-82679427D01*
X140055198Y-82658627D01*
X140052052Y-82637417D01*
X140051000Y-82616000D01*
X140051000Y-82179000D01*
X140052052Y-82157583D01*
X140055198Y-82136373D01*
X140060409Y-82115573D01*
X140067632Y-82095384D01*
X140076800Y-82076000D01*
X140087824Y-82057608D01*
X140100597Y-82040385D01*
X140114997Y-82024497D01*
X140130885Y-82010097D01*
X140148108Y-81997324D01*
X140166500Y-81986300D01*
X140185884Y-81977132D01*
X140206073Y-81969909D01*
X140226873Y-81964698D01*
X140248083Y-81961552D01*
X140269500Y-81960500D01*
X140781500Y-81960500D01*
X140802917Y-81961552D01*
X140802917Y-81961552D01*
G37*
D11*
X140525500Y-82397500D03*
D17*
X130238500Y-85360000D03*
X131188500Y-87360000D03*
X129288500Y-87360000D03*
X141986000Y-97139000D03*
X141036000Y-95139000D03*
X142936000Y-95139000D03*
D16*
X146034000Y-91059000D03*
X144034000Y-92009000D03*
X144034000Y-90109000D03*
X146161000Y-85788500D03*
X144161000Y-86738500D03*
X144161000Y-84838500D03*
D10*
G36*
X148203183Y-95883709D02*
G01*
X148217477Y-95885829D01*
X148231494Y-95889341D01*
X148245100Y-95894209D01*
X148258163Y-95900387D01*
X148270558Y-95907816D01*
X148282164Y-95916424D01*
X148292871Y-95926129D01*
X148302576Y-95936836D01*
X148311184Y-95948442D01*
X148318613Y-95960837D01*
X148324791Y-95973900D01*
X148329659Y-95987506D01*
X148333171Y-96001523D01*
X148335291Y-96015817D01*
X148336000Y-96030250D01*
X148336000Y-96374750D01*
X148335291Y-96389183D01*
X148333171Y-96403477D01*
X148329659Y-96417494D01*
X148324791Y-96431100D01*
X148318613Y-96444163D01*
X148311184Y-96456558D01*
X148302576Y-96468164D01*
X148292871Y-96478871D01*
X148282164Y-96488576D01*
X148270558Y-96497184D01*
X148258163Y-96504613D01*
X148245100Y-96510791D01*
X148231494Y-96515659D01*
X148217477Y-96519171D01*
X148203183Y-96521291D01*
X148188750Y-96522000D01*
X147894250Y-96522000D01*
X147879817Y-96521291D01*
X147865523Y-96519171D01*
X147851506Y-96515659D01*
X147837900Y-96510791D01*
X147824837Y-96504613D01*
X147812442Y-96497184D01*
X147800836Y-96488576D01*
X147790129Y-96478871D01*
X147780424Y-96468164D01*
X147771816Y-96456558D01*
X147764387Y-96444163D01*
X147758209Y-96431100D01*
X147753341Y-96417494D01*
X147749829Y-96403477D01*
X147747709Y-96389183D01*
X147747000Y-96374750D01*
X147747000Y-96030250D01*
X147747709Y-96015817D01*
X147749829Y-96001523D01*
X147753341Y-95987506D01*
X147758209Y-95973900D01*
X147764387Y-95960837D01*
X147771816Y-95948442D01*
X147780424Y-95936836D01*
X147790129Y-95926129D01*
X147800836Y-95916424D01*
X147812442Y-95907816D01*
X147824837Y-95900387D01*
X147837900Y-95894209D01*
X147851506Y-95889341D01*
X147865523Y-95885829D01*
X147879817Y-95883709D01*
X147894250Y-95883000D01*
X148188750Y-95883000D01*
X148203183Y-95883709D01*
X148203183Y-95883709D01*
G37*
D18*
X148041500Y-96202500D03*
D10*
G36*
X149173183Y-95883709D02*
G01*
X149187477Y-95885829D01*
X149201494Y-95889341D01*
X149215100Y-95894209D01*
X149228163Y-95900387D01*
X149240558Y-95907816D01*
X149252164Y-95916424D01*
X149262871Y-95926129D01*
X149272576Y-95936836D01*
X149281184Y-95948442D01*
X149288613Y-95960837D01*
X149294791Y-95973900D01*
X149299659Y-95987506D01*
X149303171Y-96001523D01*
X149305291Y-96015817D01*
X149306000Y-96030250D01*
X149306000Y-96374750D01*
X149305291Y-96389183D01*
X149303171Y-96403477D01*
X149299659Y-96417494D01*
X149294791Y-96431100D01*
X149288613Y-96444163D01*
X149281184Y-96456558D01*
X149272576Y-96468164D01*
X149262871Y-96478871D01*
X149252164Y-96488576D01*
X149240558Y-96497184D01*
X149228163Y-96504613D01*
X149215100Y-96510791D01*
X149201494Y-96515659D01*
X149187477Y-96519171D01*
X149173183Y-96521291D01*
X149158750Y-96522000D01*
X148864250Y-96522000D01*
X148849817Y-96521291D01*
X148835523Y-96519171D01*
X148821506Y-96515659D01*
X148807900Y-96510791D01*
X148794837Y-96504613D01*
X148782442Y-96497184D01*
X148770836Y-96488576D01*
X148760129Y-96478871D01*
X148750424Y-96468164D01*
X148741816Y-96456558D01*
X148734387Y-96444163D01*
X148728209Y-96431100D01*
X148723341Y-96417494D01*
X148719829Y-96403477D01*
X148717709Y-96389183D01*
X148717000Y-96374750D01*
X148717000Y-96030250D01*
X148717709Y-96015817D01*
X148719829Y-96001523D01*
X148723341Y-95987506D01*
X148728209Y-95973900D01*
X148734387Y-95960837D01*
X148741816Y-95948442D01*
X148750424Y-95936836D01*
X148760129Y-95926129D01*
X148770836Y-95916424D01*
X148782442Y-95907816D01*
X148794837Y-95900387D01*
X148807900Y-95894209D01*
X148821506Y-95889341D01*
X148835523Y-95885829D01*
X148849817Y-95883709D01*
X148864250Y-95883000D01*
X149158750Y-95883000D01*
X149173183Y-95883709D01*
X149173183Y-95883709D01*
G37*
D18*
X149011500Y-96202500D03*
D10*
G36*
X151505183Y-89533709D02*
G01*
X151519477Y-89535829D01*
X151533494Y-89539341D01*
X151547100Y-89544209D01*
X151560163Y-89550387D01*
X151572558Y-89557816D01*
X151584164Y-89566424D01*
X151594871Y-89576129D01*
X151604576Y-89586836D01*
X151613184Y-89598442D01*
X151620613Y-89610837D01*
X151626791Y-89623900D01*
X151631659Y-89637506D01*
X151635171Y-89651523D01*
X151637291Y-89665817D01*
X151638000Y-89680250D01*
X151638000Y-90024750D01*
X151637291Y-90039183D01*
X151635171Y-90053477D01*
X151631659Y-90067494D01*
X151626791Y-90081100D01*
X151620613Y-90094163D01*
X151613184Y-90106558D01*
X151604576Y-90118164D01*
X151594871Y-90128871D01*
X151584164Y-90138576D01*
X151572558Y-90147184D01*
X151560163Y-90154613D01*
X151547100Y-90160791D01*
X151533494Y-90165659D01*
X151519477Y-90169171D01*
X151505183Y-90171291D01*
X151490750Y-90172000D01*
X151196250Y-90172000D01*
X151181817Y-90171291D01*
X151167523Y-90169171D01*
X151153506Y-90165659D01*
X151139900Y-90160791D01*
X151126837Y-90154613D01*
X151114442Y-90147184D01*
X151102836Y-90138576D01*
X151092129Y-90128871D01*
X151082424Y-90118164D01*
X151073816Y-90106558D01*
X151066387Y-90094163D01*
X151060209Y-90081100D01*
X151055341Y-90067494D01*
X151051829Y-90053477D01*
X151049709Y-90039183D01*
X151049000Y-90024750D01*
X151049000Y-89680250D01*
X151049709Y-89665817D01*
X151051829Y-89651523D01*
X151055341Y-89637506D01*
X151060209Y-89623900D01*
X151066387Y-89610837D01*
X151073816Y-89598442D01*
X151082424Y-89586836D01*
X151092129Y-89576129D01*
X151102836Y-89566424D01*
X151114442Y-89557816D01*
X151126837Y-89550387D01*
X151139900Y-89544209D01*
X151153506Y-89539341D01*
X151167523Y-89535829D01*
X151181817Y-89533709D01*
X151196250Y-89533000D01*
X151490750Y-89533000D01*
X151505183Y-89533709D01*
X151505183Y-89533709D01*
G37*
D18*
X151343500Y-89852500D03*
D10*
G36*
X152475183Y-89533709D02*
G01*
X152489477Y-89535829D01*
X152503494Y-89539341D01*
X152517100Y-89544209D01*
X152530163Y-89550387D01*
X152542558Y-89557816D01*
X152554164Y-89566424D01*
X152564871Y-89576129D01*
X152574576Y-89586836D01*
X152583184Y-89598442D01*
X152590613Y-89610837D01*
X152596791Y-89623900D01*
X152601659Y-89637506D01*
X152605171Y-89651523D01*
X152607291Y-89665817D01*
X152608000Y-89680250D01*
X152608000Y-90024750D01*
X152607291Y-90039183D01*
X152605171Y-90053477D01*
X152601659Y-90067494D01*
X152596791Y-90081100D01*
X152590613Y-90094163D01*
X152583184Y-90106558D01*
X152574576Y-90118164D01*
X152564871Y-90128871D01*
X152554164Y-90138576D01*
X152542558Y-90147184D01*
X152530163Y-90154613D01*
X152517100Y-90160791D01*
X152503494Y-90165659D01*
X152489477Y-90169171D01*
X152475183Y-90171291D01*
X152460750Y-90172000D01*
X152166250Y-90172000D01*
X152151817Y-90171291D01*
X152137523Y-90169171D01*
X152123506Y-90165659D01*
X152109900Y-90160791D01*
X152096837Y-90154613D01*
X152084442Y-90147184D01*
X152072836Y-90138576D01*
X152062129Y-90128871D01*
X152052424Y-90118164D01*
X152043816Y-90106558D01*
X152036387Y-90094163D01*
X152030209Y-90081100D01*
X152025341Y-90067494D01*
X152021829Y-90053477D01*
X152019709Y-90039183D01*
X152019000Y-90024750D01*
X152019000Y-89680250D01*
X152019709Y-89665817D01*
X152021829Y-89651523D01*
X152025341Y-89637506D01*
X152030209Y-89623900D01*
X152036387Y-89610837D01*
X152043816Y-89598442D01*
X152052424Y-89586836D01*
X152062129Y-89576129D01*
X152072836Y-89566424D01*
X152084442Y-89557816D01*
X152096837Y-89550387D01*
X152109900Y-89544209D01*
X152123506Y-89539341D01*
X152137523Y-89535829D01*
X152151817Y-89533709D01*
X152166250Y-89533000D01*
X152460750Y-89533000D01*
X152475183Y-89533709D01*
X152475183Y-89533709D01*
G37*
D18*
X152313500Y-89852500D03*
D16*
X136509000Y-82867500D03*
X134509000Y-83817500D03*
X134509000Y-81917500D03*
D10*
G36*
X134631683Y-88581209D02*
G01*
X134645977Y-88583329D01*
X134659994Y-88586841D01*
X134673600Y-88591709D01*
X134686663Y-88597887D01*
X134699058Y-88605316D01*
X134710664Y-88613924D01*
X134721371Y-88623629D01*
X134731076Y-88634336D01*
X134739684Y-88645942D01*
X134747113Y-88658337D01*
X134753291Y-88671400D01*
X134758159Y-88685006D01*
X134761671Y-88699023D01*
X134763791Y-88713317D01*
X134764500Y-88727750D01*
X134764500Y-89072250D01*
X134763791Y-89086683D01*
X134761671Y-89100977D01*
X134758159Y-89114994D01*
X134753291Y-89128600D01*
X134747113Y-89141663D01*
X134739684Y-89154058D01*
X134731076Y-89165664D01*
X134721371Y-89176371D01*
X134710664Y-89186076D01*
X134699058Y-89194684D01*
X134686663Y-89202113D01*
X134673600Y-89208291D01*
X134659994Y-89213159D01*
X134645977Y-89216671D01*
X134631683Y-89218791D01*
X134617250Y-89219500D01*
X134322750Y-89219500D01*
X134308317Y-89218791D01*
X134294023Y-89216671D01*
X134280006Y-89213159D01*
X134266400Y-89208291D01*
X134253337Y-89202113D01*
X134240942Y-89194684D01*
X134229336Y-89186076D01*
X134218629Y-89176371D01*
X134208924Y-89165664D01*
X134200316Y-89154058D01*
X134192887Y-89141663D01*
X134186709Y-89128600D01*
X134181841Y-89114994D01*
X134178329Y-89100977D01*
X134176209Y-89086683D01*
X134175500Y-89072250D01*
X134175500Y-88727750D01*
X134176209Y-88713317D01*
X134178329Y-88699023D01*
X134181841Y-88685006D01*
X134186709Y-88671400D01*
X134192887Y-88658337D01*
X134200316Y-88645942D01*
X134208924Y-88634336D01*
X134218629Y-88623629D01*
X134229336Y-88613924D01*
X134240942Y-88605316D01*
X134253337Y-88597887D01*
X134266400Y-88591709D01*
X134280006Y-88586841D01*
X134294023Y-88583329D01*
X134308317Y-88581209D01*
X134322750Y-88580500D01*
X134617250Y-88580500D01*
X134631683Y-88581209D01*
X134631683Y-88581209D01*
G37*
D18*
X134470000Y-88900000D03*
D10*
G36*
X133661683Y-88581209D02*
G01*
X133675977Y-88583329D01*
X133689994Y-88586841D01*
X133703600Y-88591709D01*
X133716663Y-88597887D01*
X133729058Y-88605316D01*
X133740664Y-88613924D01*
X133751371Y-88623629D01*
X133761076Y-88634336D01*
X133769684Y-88645942D01*
X133777113Y-88658337D01*
X133783291Y-88671400D01*
X133788159Y-88685006D01*
X133791671Y-88699023D01*
X133793791Y-88713317D01*
X133794500Y-88727750D01*
X133794500Y-89072250D01*
X133793791Y-89086683D01*
X133791671Y-89100977D01*
X133788159Y-89114994D01*
X133783291Y-89128600D01*
X133777113Y-89141663D01*
X133769684Y-89154058D01*
X133761076Y-89165664D01*
X133751371Y-89176371D01*
X133740664Y-89186076D01*
X133729058Y-89194684D01*
X133716663Y-89202113D01*
X133703600Y-89208291D01*
X133689994Y-89213159D01*
X133675977Y-89216671D01*
X133661683Y-89218791D01*
X133647250Y-89219500D01*
X133352750Y-89219500D01*
X133338317Y-89218791D01*
X133324023Y-89216671D01*
X133310006Y-89213159D01*
X133296400Y-89208291D01*
X133283337Y-89202113D01*
X133270942Y-89194684D01*
X133259336Y-89186076D01*
X133248629Y-89176371D01*
X133238924Y-89165664D01*
X133230316Y-89154058D01*
X133222887Y-89141663D01*
X133216709Y-89128600D01*
X133211841Y-89114994D01*
X133208329Y-89100977D01*
X133206209Y-89086683D01*
X133205500Y-89072250D01*
X133205500Y-88727750D01*
X133206209Y-88713317D01*
X133208329Y-88699023D01*
X133211841Y-88685006D01*
X133216709Y-88671400D01*
X133222887Y-88658337D01*
X133230316Y-88645942D01*
X133238924Y-88634336D01*
X133248629Y-88623629D01*
X133259336Y-88613924D01*
X133270942Y-88605316D01*
X133283337Y-88597887D01*
X133296400Y-88591709D01*
X133310006Y-88586841D01*
X133324023Y-88583329D01*
X133338317Y-88581209D01*
X133352750Y-88580500D01*
X133647250Y-88580500D01*
X133661683Y-88581209D01*
X133661683Y-88581209D01*
G37*
D18*
X133500000Y-88900000D03*
D10*
G36*
X138489683Y-89218209D02*
G01*
X138503977Y-89220329D01*
X138517994Y-89223841D01*
X138531600Y-89228709D01*
X138544663Y-89234887D01*
X138557058Y-89242316D01*
X138568664Y-89250924D01*
X138579371Y-89260629D01*
X138589076Y-89271336D01*
X138597684Y-89282942D01*
X138605113Y-89295337D01*
X138611291Y-89308400D01*
X138616159Y-89322006D01*
X138619671Y-89336023D01*
X138621791Y-89350317D01*
X138622500Y-89364750D01*
X138622500Y-89659250D01*
X138621791Y-89673683D01*
X138619671Y-89687977D01*
X138616159Y-89701994D01*
X138611291Y-89715600D01*
X138605113Y-89728663D01*
X138597684Y-89741058D01*
X138589076Y-89752664D01*
X138579371Y-89763371D01*
X138568664Y-89773076D01*
X138557058Y-89781684D01*
X138544663Y-89789113D01*
X138531600Y-89795291D01*
X138517994Y-89800159D01*
X138503977Y-89803671D01*
X138489683Y-89805791D01*
X138475250Y-89806500D01*
X138130750Y-89806500D01*
X138116317Y-89805791D01*
X138102023Y-89803671D01*
X138088006Y-89800159D01*
X138074400Y-89795291D01*
X138061337Y-89789113D01*
X138048942Y-89781684D01*
X138037336Y-89773076D01*
X138026629Y-89763371D01*
X138016924Y-89752664D01*
X138008316Y-89741058D01*
X138000887Y-89728663D01*
X137994709Y-89715600D01*
X137989841Y-89701994D01*
X137986329Y-89687977D01*
X137984209Y-89673683D01*
X137983500Y-89659250D01*
X137983500Y-89364750D01*
X137984209Y-89350317D01*
X137986329Y-89336023D01*
X137989841Y-89322006D01*
X137994709Y-89308400D01*
X138000887Y-89295337D01*
X138008316Y-89282942D01*
X138016924Y-89271336D01*
X138026629Y-89260629D01*
X138037336Y-89250924D01*
X138048942Y-89242316D01*
X138061337Y-89234887D01*
X138074400Y-89228709D01*
X138088006Y-89223841D01*
X138102023Y-89220329D01*
X138116317Y-89218209D01*
X138130750Y-89217500D01*
X138475250Y-89217500D01*
X138489683Y-89218209D01*
X138489683Y-89218209D01*
G37*
D18*
X138303000Y-89512000D03*
D10*
G36*
X138489683Y-88248209D02*
G01*
X138503977Y-88250329D01*
X138517994Y-88253841D01*
X138531600Y-88258709D01*
X138544663Y-88264887D01*
X138557058Y-88272316D01*
X138568664Y-88280924D01*
X138579371Y-88290629D01*
X138589076Y-88301336D01*
X138597684Y-88312942D01*
X138605113Y-88325337D01*
X138611291Y-88338400D01*
X138616159Y-88352006D01*
X138619671Y-88366023D01*
X138621791Y-88380317D01*
X138622500Y-88394750D01*
X138622500Y-88689250D01*
X138621791Y-88703683D01*
X138619671Y-88717977D01*
X138616159Y-88731994D01*
X138611291Y-88745600D01*
X138605113Y-88758663D01*
X138597684Y-88771058D01*
X138589076Y-88782664D01*
X138579371Y-88793371D01*
X138568664Y-88803076D01*
X138557058Y-88811684D01*
X138544663Y-88819113D01*
X138531600Y-88825291D01*
X138517994Y-88830159D01*
X138503977Y-88833671D01*
X138489683Y-88835791D01*
X138475250Y-88836500D01*
X138130750Y-88836500D01*
X138116317Y-88835791D01*
X138102023Y-88833671D01*
X138088006Y-88830159D01*
X138074400Y-88825291D01*
X138061337Y-88819113D01*
X138048942Y-88811684D01*
X138037336Y-88803076D01*
X138026629Y-88793371D01*
X138016924Y-88782664D01*
X138008316Y-88771058D01*
X138000887Y-88758663D01*
X137994709Y-88745600D01*
X137989841Y-88731994D01*
X137986329Y-88717977D01*
X137984209Y-88703683D01*
X137983500Y-88689250D01*
X137983500Y-88394750D01*
X137984209Y-88380317D01*
X137986329Y-88366023D01*
X137989841Y-88352006D01*
X137994709Y-88338400D01*
X138000887Y-88325337D01*
X138008316Y-88312942D01*
X138016924Y-88301336D01*
X138026629Y-88290629D01*
X138037336Y-88280924D01*
X138048942Y-88272316D01*
X138061337Y-88264887D01*
X138074400Y-88258709D01*
X138088006Y-88253841D01*
X138102023Y-88250329D01*
X138116317Y-88248209D01*
X138130750Y-88247500D01*
X138475250Y-88247500D01*
X138489683Y-88248209D01*
X138489683Y-88248209D01*
G37*
D18*
X138303000Y-88542000D03*
D10*
G36*
X150110183Y-90488209D02*
G01*
X150124477Y-90490329D01*
X150138494Y-90493841D01*
X150152100Y-90498709D01*
X150165163Y-90504887D01*
X150177558Y-90512316D01*
X150189164Y-90520924D01*
X150199871Y-90530629D01*
X150209576Y-90541336D01*
X150218184Y-90552942D01*
X150225613Y-90565337D01*
X150231791Y-90578400D01*
X150236659Y-90592006D01*
X150240171Y-90606023D01*
X150242291Y-90620317D01*
X150243000Y-90634750D01*
X150243000Y-90929250D01*
X150242291Y-90943683D01*
X150240171Y-90957977D01*
X150236659Y-90971994D01*
X150231791Y-90985600D01*
X150225613Y-90998663D01*
X150218184Y-91011058D01*
X150209576Y-91022664D01*
X150199871Y-91033371D01*
X150189164Y-91043076D01*
X150177558Y-91051684D01*
X150165163Y-91059113D01*
X150152100Y-91065291D01*
X150138494Y-91070159D01*
X150124477Y-91073671D01*
X150110183Y-91075791D01*
X150095750Y-91076500D01*
X149751250Y-91076500D01*
X149736817Y-91075791D01*
X149722523Y-91073671D01*
X149708506Y-91070159D01*
X149694900Y-91065291D01*
X149681837Y-91059113D01*
X149669442Y-91051684D01*
X149657836Y-91043076D01*
X149647129Y-91033371D01*
X149637424Y-91022664D01*
X149628816Y-91011058D01*
X149621387Y-90998663D01*
X149615209Y-90985600D01*
X149610341Y-90971994D01*
X149606829Y-90957977D01*
X149604709Y-90943683D01*
X149604000Y-90929250D01*
X149604000Y-90634750D01*
X149604709Y-90620317D01*
X149606829Y-90606023D01*
X149610341Y-90592006D01*
X149615209Y-90578400D01*
X149621387Y-90565337D01*
X149628816Y-90552942D01*
X149637424Y-90541336D01*
X149647129Y-90530629D01*
X149657836Y-90520924D01*
X149669442Y-90512316D01*
X149681837Y-90504887D01*
X149694900Y-90498709D01*
X149708506Y-90493841D01*
X149722523Y-90490329D01*
X149736817Y-90488209D01*
X149751250Y-90487500D01*
X150095750Y-90487500D01*
X150110183Y-90488209D01*
X150110183Y-90488209D01*
G37*
D18*
X149923500Y-90782000D03*
D10*
G36*
X150110183Y-89518209D02*
G01*
X150124477Y-89520329D01*
X150138494Y-89523841D01*
X150152100Y-89528709D01*
X150165163Y-89534887D01*
X150177558Y-89542316D01*
X150189164Y-89550924D01*
X150199871Y-89560629D01*
X150209576Y-89571336D01*
X150218184Y-89582942D01*
X150225613Y-89595337D01*
X150231791Y-89608400D01*
X150236659Y-89622006D01*
X150240171Y-89636023D01*
X150242291Y-89650317D01*
X150243000Y-89664750D01*
X150243000Y-89959250D01*
X150242291Y-89973683D01*
X150240171Y-89987977D01*
X150236659Y-90001994D01*
X150231791Y-90015600D01*
X150225613Y-90028663D01*
X150218184Y-90041058D01*
X150209576Y-90052664D01*
X150199871Y-90063371D01*
X150189164Y-90073076D01*
X150177558Y-90081684D01*
X150165163Y-90089113D01*
X150152100Y-90095291D01*
X150138494Y-90100159D01*
X150124477Y-90103671D01*
X150110183Y-90105791D01*
X150095750Y-90106500D01*
X149751250Y-90106500D01*
X149736817Y-90105791D01*
X149722523Y-90103671D01*
X149708506Y-90100159D01*
X149694900Y-90095291D01*
X149681837Y-90089113D01*
X149669442Y-90081684D01*
X149657836Y-90073076D01*
X149647129Y-90063371D01*
X149637424Y-90052664D01*
X149628816Y-90041058D01*
X149621387Y-90028663D01*
X149615209Y-90015600D01*
X149610341Y-90001994D01*
X149606829Y-89987977D01*
X149604709Y-89973683D01*
X149604000Y-89959250D01*
X149604000Y-89664750D01*
X149604709Y-89650317D01*
X149606829Y-89636023D01*
X149610341Y-89622006D01*
X149615209Y-89608400D01*
X149621387Y-89595337D01*
X149628816Y-89582942D01*
X149637424Y-89571336D01*
X149647129Y-89560629D01*
X149657836Y-89550924D01*
X149669442Y-89542316D01*
X149681837Y-89534887D01*
X149694900Y-89528709D01*
X149708506Y-89523841D01*
X149722523Y-89520329D01*
X149736817Y-89518209D01*
X149751250Y-89517500D01*
X150095750Y-89517500D01*
X150110183Y-89518209D01*
X150110183Y-89518209D01*
G37*
D18*
X149923500Y-89812000D03*
M02*
