M48
; DRILL file {KiCad 5.1.2-f72e74a~84~ubuntu18.04.1} date Thu 19 Dec 2019 12:50:54 GMT
; FORMAT={-:-/ absolute / inch / decimal}
; #@! TF.CreationDate,2019-12-19T12:50:54+00:00
; #@! TF.GenerationSoftware,Kicad,Pcbnew,5.1.2-f72e74a~84~ubuntu18.04.1
; #@! TF.FileFunction,Plated,1,2,PTH
FMAT,2
INCH
T1C0.0157
T2C0.0394
%
G90
G05
T1
X4.8975Y-3.575
X4.965Y-3.6675
X4.965Y-3.7725
X5.0175Y-3.6225
X5.035Y-3.51
X5.085Y-3.505
X5.2Y-3.7872
X5.2Y-3.8525
X5.21Y-3.74
X5.2875Y-3.8275
X5.2875Y-3.9075
X5.3Y-3.955
X5.435Y-3.7825
X5.445Y-3.565
X5.4875Y-3.385
X5.5225Y-3.945
X5.6225Y-3.3825
X5.7025Y-3.84
X5.785Y-3.7125
X5.7878Y-3.46
X5.8275Y-3.62
X5.8275Y-3.7425
X5.9025Y-3.6125
X5.995Y-3.405
T2
X6.0Y-3.2225
X6.0Y-3.3225
X5.09Y-3.2
X5.19Y-3.2
X5.0075Y-3.95
X5.1075Y-3.95
X5.2075Y-3.95
X6.0Y-3.6625
X6.0Y-3.7625
T0
M30
