G04 #@! TF.GenerationSoftware,KiCad,Pcbnew,5.1.2-f72e74a~84~ubuntu18.04.1*
G04 #@! TF.CreationDate,2019-12-19T12:51:00+00:00*
G04 #@! TF.ProjectId,mbus_guru,6d627573-5f67-4757-9275-2e6b69636164,rev?*
G04 #@! TF.SameCoordinates,Original*
G04 #@! TF.FileFunction,Copper,L2,Bot*
G04 #@! TF.FilePolarity,Positive*
%FSLAX46Y46*%
G04 Gerber Fmt 4.6, Leading zero omitted, Abs format (unit mm)*
G04 Created by KiCad (PCBNEW 5.1.2-f72e74a~84~ubuntu18.04.1) date 2019-12-19 12:51:00*
%MOMM*%
%LPD*%
G04 APERTURE LIST*
%ADD10O,1.700000X1.700000*%
%ADD11R,1.700000X1.700000*%
%ADD12C,0.800000*%
%ADD13C,0.500000*%
%ADD14C,0.400000*%
%ADD15C,0.254000*%
G04 APERTURE END LIST*
D10*
X127190500Y-100330000D03*
X129730500Y-100330000D03*
D11*
X132270500Y-100330000D03*
D10*
X129286000Y-81280000D03*
D11*
X131826000Y-81280000D03*
D10*
X152400000Y-84391500D03*
D11*
X152400000Y-81851500D03*
D10*
X152400000Y-95567500D03*
D11*
X152400000Y-93027500D03*
D12*
X138303000Y-90551000D03*
X132334000Y-94996000D03*
X127889000Y-89154000D03*
X144843500Y-97536000D03*
X148018500Y-95059500D03*
X148018500Y-91948000D03*
X149923500Y-91757500D03*
X152273000Y-86487000D03*
X140271500Y-100203000D03*
X134620000Y-100457000D03*
X124396500Y-90805000D03*
X139382500Y-85979000D03*
X142811500Y-85915500D03*
X129159000Y-89027000D03*
X138049000Y-96075500D03*
X127444500Y-92011500D03*
X134302500Y-99250500D03*
X134302500Y-97218500D03*
X132080000Y-96194500D03*
X132080000Y-97853500D03*
X146939000Y-94297500D03*
X147011000Y-87884000D03*
X126111000Y-95821500D03*
X126111000Y-93154500D03*
D13*
X139382500Y-85979000D02*
X142748000Y-85979000D01*
X142748000Y-85979000D02*
X142811500Y-85915500D01*
X131000500Y-89027000D02*
X129159000Y-89027000D01*
X138049000Y-96075500D02*
X131000500Y-89027000D01*
X132270500Y-98980000D02*
X132270500Y-100330000D01*
X133184001Y-98066499D02*
X132270500Y-98980000D01*
X133184001Y-94587999D02*
X133184001Y-98066499D01*
X130607502Y-92011500D02*
X133184001Y-94587999D01*
X127444500Y-92011500D02*
X130607502Y-92011500D01*
X134302500Y-97218500D02*
X134302500Y-99250500D01*
D14*
X132080000Y-96194500D02*
X132080000Y-97853500D01*
D13*
X146939000Y-94297500D02*
X146939000Y-87956000D01*
X146939000Y-87956000D02*
X147011000Y-87884000D01*
X126111000Y-95821500D02*
X126111000Y-93154500D01*
D15*
G36*
X124540004Y-80167754D02*
G01*
X124233353Y-80294772D01*
X123957375Y-80479175D01*
X123722675Y-80713875D01*
X123538272Y-80989853D01*
X123411254Y-81296504D01*
X123346500Y-81622042D01*
X123346500Y-81953958D01*
X123411254Y-82279496D01*
X123538272Y-82586147D01*
X123722675Y-82862125D01*
X123957375Y-83096825D01*
X124233353Y-83281228D01*
X124540004Y-83408246D01*
X124865542Y-83473000D01*
X125197458Y-83473000D01*
X125522996Y-83408246D01*
X125829647Y-83281228D01*
X126105625Y-83096825D01*
X126340325Y-82862125D01*
X126524728Y-82586147D01*
X126651746Y-82279496D01*
X126716500Y-81953958D01*
X126716500Y-81622042D01*
X126651746Y-81296504D01*
X126524728Y-80989853D01*
X126340325Y-80713875D01*
X126105625Y-80479175D01*
X125829647Y-80294772D01*
X125522996Y-80167754D01*
X125368386Y-80137000D01*
X128337931Y-80137000D01*
X128230866Y-80224866D01*
X128045294Y-80450986D01*
X127907401Y-80708966D01*
X127822487Y-80988889D01*
X127793815Y-81280000D01*
X127822487Y-81571111D01*
X127907401Y-81851034D01*
X128045294Y-82109014D01*
X128230866Y-82335134D01*
X128456986Y-82520706D01*
X128714966Y-82658599D01*
X128994889Y-82743513D01*
X129213050Y-82765000D01*
X129358950Y-82765000D01*
X129577111Y-82743513D01*
X129857034Y-82658599D01*
X130115014Y-82520706D01*
X130341134Y-82335134D01*
X130365607Y-82305313D01*
X130386498Y-82374180D01*
X130445463Y-82484494D01*
X130524815Y-82581185D01*
X130621506Y-82660537D01*
X130731820Y-82719502D01*
X130851518Y-82755812D01*
X130976000Y-82768072D01*
X131540250Y-82765000D01*
X131699000Y-82606250D01*
X131699000Y-81407000D01*
X131953000Y-81407000D01*
X131953000Y-82606250D01*
X132111750Y-82765000D01*
X132676000Y-82768072D01*
X132800482Y-82755812D01*
X132920180Y-82719502D01*
X133030494Y-82660537D01*
X133127185Y-82581185D01*
X133206537Y-82484494D01*
X133265502Y-82374180D01*
X133301812Y-82254482D01*
X133314072Y-82130000D01*
X133311000Y-81565750D01*
X133152250Y-81407000D01*
X131953000Y-81407000D01*
X131699000Y-81407000D01*
X131679000Y-81407000D01*
X131679000Y-81153000D01*
X131699000Y-81153000D01*
X131699000Y-81133000D01*
X131953000Y-81133000D01*
X131953000Y-81153000D01*
X133152250Y-81153000D01*
X133311000Y-80994250D01*
X133314072Y-80430000D01*
X133301812Y-80305518D01*
X133265502Y-80185820D01*
X133239407Y-80137000D01*
X153543000Y-80137000D01*
X153543000Y-80438093D01*
X153494180Y-80411998D01*
X153374482Y-80375688D01*
X153250000Y-80363428D01*
X151550000Y-80363428D01*
X151425518Y-80375688D01*
X151305820Y-80411998D01*
X151195506Y-80470963D01*
X151098815Y-80550315D01*
X151019463Y-80647006D01*
X150960498Y-80757320D01*
X150924188Y-80877018D01*
X150911928Y-81001500D01*
X150911928Y-82701500D01*
X150924188Y-82825982D01*
X150960498Y-82945680D01*
X151019463Y-83055994D01*
X151098815Y-83152685D01*
X151195506Y-83232037D01*
X151305820Y-83291002D01*
X151386466Y-83315466D01*
X151302412Y-83391231D01*
X151128359Y-83624580D01*
X151003175Y-83887401D01*
X150958524Y-84034610D01*
X151079845Y-84264500D01*
X152273000Y-84264500D01*
X152273000Y-84244500D01*
X152527000Y-84244500D01*
X152527000Y-84264500D01*
X152547000Y-84264500D01*
X152547000Y-84518500D01*
X152527000Y-84518500D01*
X152527000Y-85712314D01*
X152756891Y-85832981D01*
X153031252Y-85735657D01*
X153281355Y-85586678D01*
X153497588Y-85391769D01*
X153543000Y-85330886D01*
X153543000Y-91614093D01*
X153494180Y-91587998D01*
X153374482Y-91551688D01*
X153250000Y-91539428D01*
X151550000Y-91539428D01*
X151425518Y-91551688D01*
X151305820Y-91587998D01*
X151195506Y-91646963D01*
X151098815Y-91726315D01*
X151019463Y-91823006D01*
X150960498Y-91933320D01*
X150924188Y-92053018D01*
X150911928Y-92177500D01*
X150911928Y-93877500D01*
X150924188Y-94001982D01*
X150960498Y-94121680D01*
X151019463Y-94231994D01*
X151098815Y-94328685D01*
X151195506Y-94408037D01*
X151305820Y-94467002D01*
X151374687Y-94487893D01*
X151344866Y-94512366D01*
X151159294Y-94738486D01*
X151021401Y-94996466D01*
X150936487Y-95276389D01*
X150907815Y-95567500D01*
X150936487Y-95858611D01*
X151021401Y-96138534D01*
X151159294Y-96396514D01*
X151344866Y-96622634D01*
X151570986Y-96808206D01*
X151828966Y-96946099D01*
X152108889Y-97031013D01*
X152327050Y-97052500D01*
X152472950Y-97052500D01*
X152691111Y-97031013D01*
X152971034Y-96946099D01*
X153229014Y-96808206D01*
X153455134Y-96622634D01*
X153543000Y-96515569D01*
X153543000Y-99314948D01*
X153448728Y-99087353D01*
X153264325Y-98811375D01*
X153029625Y-98576675D01*
X152753647Y-98392272D01*
X152446996Y-98265254D01*
X152121458Y-98200500D01*
X151789542Y-98200500D01*
X151464004Y-98265254D01*
X151157353Y-98392272D01*
X150881375Y-98576675D01*
X150646675Y-98811375D01*
X150462272Y-99087353D01*
X150335254Y-99394004D01*
X150270500Y-99719542D01*
X150270500Y-100051458D01*
X150335254Y-100376996D01*
X150462272Y-100683647D01*
X150646675Y-100959625D01*
X150881375Y-101194325D01*
X151157353Y-101378728D01*
X151384948Y-101473000D01*
X133683907Y-101473000D01*
X133710002Y-101424180D01*
X133746312Y-101304482D01*
X133758572Y-101180000D01*
X133758572Y-100131843D01*
X133812244Y-100167705D01*
X134000602Y-100245726D01*
X134200561Y-100285500D01*
X134404439Y-100285500D01*
X134604398Y-100245726D01*
X134792756Y-100167705D01*
X134962274Y-100054437D01*
X135106437Y-99910274D01*
X135219705Y-99740756D01*
X135297726Y-99552398D01*
X135337500Y-99352439D01*
X135337500Y-99148561D01*
X135297726Y-98948602D01*
X135219705Y-98760244D01*
X135187500Y-98712046D01*
X135187500Y-97756954D01*
X135219705Y-97708756D01*
X135297726Y-97520398D01*
X135337500Y-97320439D01*
X135337500Y-97116561D01*
X135297726Y-96916602D01*
X135219705Y-96728244D01*
X135106437Y-96558726D01*
X134962274Y-96414563D01*
X134792756Y-96301295D01*
X134604398Y-96223274D01*
X134404439Y-96183500D01*
X134200561Y-96183500D01*
X134069001Y-96209669D01*
X134069001Y-94631468D01*
X134073282Y-94587999D01*
X134069001Y-94544530D01*
X134069001Y-94544522D01*
X134056196Y-94414509D01*
X134005590Y-94247686D01*
X133923412Y-94093940D01*
X133905164Y-94071705D01*
X133840533Y-93992952D01*
X133840531Y-93992950D01*
X133812818Y-93959182D01*
X133779051Y-93931470D01*
X131264036Y-91416456D01*
X131236319Y-91382683D01*
X131101561Y-91272089D01*
X130947815Y-91189911D01*
X130780992Y-91139305D01*
X130650979Y-91126500D01*
X130650971Y-91126500D01*
X130607502Y-91122219D01*
X130564033Y-91126500D01*
X127982954Y-91126500D01*
X127934756Y-91094295D01*
X127746398Y-91016274D01*
X127546439Y-90976500D01*
X127342561Y-90976500D01*
X127142602Y-91016274D01*
X126954244Y-91094295D01*
X126784726Y-91207563D01*
X126640563Y-91351726D01*
X126527295Y-91521244D01*
X126449274Y-91709602D01*
X126409500Y-91909561D01*
X126409500Y-92113439D01*
X126419131Y-92161856D01*
X126412898Y-92159274D01*
X126212939Y-92119500D01*
X126009061Y-92119500D01*
X125809102Y-92159274D01*
X125620744Y-92237295D01*
X125451226Y-92350563D01*
X125307063Y-92494726D01*
X125193795Y-92664244D01*
X125115774Y-92852602D01*
X125076000Y-93052561D01*
X125076000Y-93256439D01*
X125115774Y-93456398D01*
X125193795Y-93644756D01*
X125226001Y-93692955D01*
X125226000Y-95283045D01*
X125193795Y-95331244D01*
X125115774Y-95519602D01*
X125076000Y-95719561D01*
X125076000Y-95923439D01*
X125115774Y-96123398D01*
X125193795Y-96311756D01*
X125307063Y-96481274D01*
X125451226Y-96625437D01*
X125620744Y-96738705D01*
X125809102Y-96816726D01*
X126009061Y-96856500D01*
X126212939Y-96856500D01*
X126412898Y-96816726D01*
X126601256Y-96738705D01*
X126770774Y-96625437D01*
X126914937Y-96481274D01*
X127028205Y-96311756D01*
X127106226Y-96123398D01*
X127146000Y-95923439D01*
X127146000Y-95719561D01*
X127106226Y-95519602D01*
X127028205Y-95331244D01*
X126996000Y-95283046D01*
X126996000Y-93692954D01*
X127028205Y-93644756D01*
X127106226Y-93456398D01*
X127146000Y-93256439D01*
X127146000Y-93052561D01*
X127136369Y-93004144D01*
X127142602Y-93006726D01*
X127342561Y-93046500D01*
X127546439Y-93046500D01*
X127746398Y-93006726D01*
X127934756Y-92928705D01*
X127982954Y-92896500D01*
X130240924Y-92896500D01*
X132299001Y-94954578D01*
X132299001Y-95182785D01*
X132181939Y-95159500D01*
X131978061Y-95159500D01*
X131778102Y-95199274D01*
X131589744Y-95277295D01*
X131420226Y-95390563D01*
X131276063Y-95534726D01*
X131162795Y-95704244D01*
X131084774Y-95892602D01*
X131045000Y-96092561D01*
X131045000Y-96296439D01*
X131084774Y-96496398D01*
X131162795Y-96684756D01*
X131245000Y-96807785D01*
X131245001Y-97240214D01*
X131162795Y-97363244D01*
X131084774Y-97551602D01*
X131045000Y-97751561D01*
X131045000Y-97955439D01*
X131084774Y-98155398D01*
X131162795Y-98343756D01*
X131276063Y-98513274D01*
X131420226Y-98657437D01*
X131439600Y-98670382D01*
X131398305Y-98806511D01*
X131394565Y-98844482D01*
X131296018Y-98854188D01*
X131176320Y-98890498D01*
X131066006Y-98949463D01*
X130969315Y-99028815D01*
X130889963Y-99125506D01*
X130830998Y-99235820D01*
X130810107Y-99304687D01*
X130785634Y-99274866D01*
X130559514Y-99089294D01*
X130301534Y-98951401D01*
X130021611Y-98866487D01*
X129803450Y-98845000D01*
X129657550Y-98845000D01*
X129439389Y-98866487D01*
X129159466Y-98951401D01*
X128901486Y-99089294D01*
X128675366Y-99274866D01*
X128489794Y-99500986D01*
X128460500Y-99555791D01*
X128431206Y-99500986D01*
X128245634Y-99274866D01*
X128019514Y-99089294D01*
X127761534Y-98951401D01*
X127481611Y-98866487D01*
X127263450Y-98845000D01*
X127117550Y-98845000D01*
X126899389Y-98866487D01*
X126619466Y-98951401D01*
X126361486Y-99089294D01*
X126135366Y-99274866D01*
X125949794Y-99500986D01*
X125811901Y-99758966D01*
X125726987Y-100038889D01*
X125698315Y-100330000D01*
X125726987Y-100621111D01*
X125811901Y-100901034D01*
X125949794Y-101159014D01*
X126135366Y-101385134D01*
X126242431Y-101473000D01*
X123317000Y-101473000D01*
X123317000Y-88925061D01*
X128124000Y-88925061D01*
X128124000Y-89128939D01*
X128163774Y-89328898D01*
X128241795Y-89517256D01*
X128355063Y-89686774D01*
X128499226Y-89830937D01*
X128668744Y-89944205D01*
X128857102Y-90022226D01*
X129057061Y-90062000D01*
X129260939Y-90062000D01*
X129460898Y-90022226D01*
X129649256Y-89944205D01*
X129697454Y-89912000D01*
X130633922Y-89912000D01*
X137042465Y-96320544D01*
X137053774Y-96377398D01*
X137131795Y-96565756D01*
X137245063Y-96735274D01*
X137389226Y-96879437D01*
X137558744Y-96992705D01*
X137747102Y-97070726D01*
X137947061Y-97110500D01*
X138150939Y-97110500D01*
X138350898Y-97070726D01*
X138539256Y-96992705D01*
X138708774Y-96879437D01*
X138852937Y-96735274D01*
X138966205Y-96565756D01*
X139044226Y-96377398D01*
X139084000Y-96177439D01*
X139084000Y-95973561D01*
X139044226Y-95773602D01*
X138966205Y-95585244D01*
X138852937Y-95415726D01*
X138708774Y-95271563D01*
X138539256Y-95158295D01*
X138350898Y-95080274D01*
X138294044Y-95068965D01*
X137420640Y-94195561D01*
X145904000Y-94195561D01*
X145904000Y-94399439D01*
X145943774Y-94599398D01*
X146021795Y-94787756D01*
X146135063Y-94957274D01*
X146279226Y-95101437D01*
X146448744Y-95214705D01*
X146637102Y-95292726D01*
X146837061Y-95332500D01*
X147040939Y-95332500D01*
X147240898Y-95292726D01*
X147429256Y-95214705D01*
X147598774Y-95101437D01*
X147742937Y-94957274D01*
X147856205Y-94787756D01*
X147934226Y-94599398D01*
X147974000Y-94399439D01*
X147974000Y-94195561D01*
X147934226Y-93995602D01*
X147856205Y-93807244D01*
X147824000Y-93759046D01*
X147824000Y-88530210D01*
X147928205Y-88374256D01*
X148006226Y-88185898D01*
X148046000Y-87985939D01*
X148046000Y-87782061D01*
X148006226Y-87582102D01*
X147928205Y-87393744D01*
X147814937Y-87224226D01*
X147670774Y-87080063D01*
X147501256Y-86966795D01*
X147312898Y-86888774D01*
X147112939Y-86849000D01*
X146909061Y-86849000D01*
X146709102Y-86888774D01*
X146520744Y-86966795D01*
X146351226Y-87080063D01*
X146207063Y-87224226D01*
X146093795Y-87393744D01*
X146015774Y-87582102D01*
X145976000Y-87782061D01*
X145976000Y-87985939D01*
X146015774Y-88185898D01*
X146054001Y-88278185D01*
X146054000Y-93759046D01*
X146021795Y-93807244D01*
X145943774Y-93995602D01*
X145904000Y-94195561D01*
X137420640Y-94195561D01*
X131657034Y-88431956D01*
X131629317Y-88398183D01*
X131494559Y-88287589D01*
X131340813Y-88205411D01*
X131173990Y-88154805D01*
X131043977Y-88142000D01*
X131043969Y-88142000D01*
X131000500Y-88137719D01*
X130957031Y-88142000D01*
X129697454Y-88142000D01*
X129649256Y-88109795D01*
X129460898Y-88031774D01*
X129260939Y-87992000D01*
X129057061Y-87992000D01*
X128857102Y-88031774D01*
X128668744Y-88109795D01*
X128499226Y-88223063D01*
X128355063Y-88367226D01*
X128241795Y-88536744D01*
X128163774Y-88725102D01*
X128124000Y-88925061D01*
X123317000Y-88925061D01*
X123317000Y-85877061D01*
X138347500Y-85877061D01*
X138347500Y-86080939D01*
X138387274Y-86280898D01*
X138465295Y-86469256D01*
X138578563Y-86638774D01*
X138722726Y-86782937D01*
X138892244Y-86896205D01*
X139080602Y-86974226D01*
X139280561Y-87014000D01*
X139484439Y-87014000D01*
X139684398Y-86974226D01*
X139872756Y-86896205D01*
X139920954Y-86864000D01*
X142396796Y-86864000D01*
X142509602Y-86910726D01*
X142709561Y-86950500D01*
X142913439Y-86950500D01*
X143113398Y-86910726D01*
X143301756Y-86832705D01*
X143471274Y-86719437D01*
X143615437Y-86575274D01*
X143728705Y-86405756D01*
X143806726Y-86217398D01*
X143846500Y-86017439D01*
X143846500Y-85813561D01*
X143806726Y-85613602D01*
X143728705Y-85425244D01*
X143615437Y-85255726D01*
X143471274Y-85111563D01*
X143301756Y-84998295D01*
X143113398Y-84920274D01*
X142913439Y-84880500D01*
X142709561Y-84880500D01*
X142509602Y-84920274D01*
X142321244Y-84998295D01*
X142178011Y-85094000D01*
X139920954Y-85094000D01*
X139872756Y-85061795D01*
X139684398Y-84983774D01*
X139484439Y-84944000D01*
X139280561Y-84944000D01*
X139080602Y-84983774D01*
X138892244Y-85061795D01*
X138722726Y-85175063D01*
X138578563Y-85319226D01*
X138465295Y-85488744D01*
X138387274Y-85677102D01*
X138347500Y-85877061D01*
X123317000Y-85877061D01*
X123317000Y-84748390D01*
X150958524Y-84748390D01*
X151003175Y-84895599D01*
X151128359Y-85158420D01*
X151302412Y-85391769D01*
X151518645Y-85586678D01*
X151768748Y-85735657D01*
X152043109Y-85832981D01*
X152273000Y-85712314D01*
X152273000Y-84518500D01*
X151079845Y-84518500D01*
X150958524Y-84748390D01*
X123317000Y-84748390D01*
X123317000Y-80137000D01*
X124694614Y-80137000D01*
X124540004Y-80167754D01*
X124540004Y-80167754D01*
G37*
X124540004Y-80167754D02*
X124233353Y-80294772D01*
X123957375Y-80479175D01*
X123722675Y-80713875D01*
X123538272Y-80989853D01*
X123411254Y-81296504D01*
X123346500Y-81622042D01*
X123346500Y-81953958D01*
X123411254Y-82279496D01*
X123538272Y-82586147D01*
X123722675Y-82862125D01*
X123957375Y-83096825D01*
X124233353Y-83281228D01*
X124540004Y-83408246D01*
X124865542Y-83473000D01*
X125197458Y-83473000D01*
X125522996Y-83408246D01*
X125829647Y-83281228D01*
X126105625Y-83096825D01*
X126340325Y-82862125D01*
X126524728Y-82586147D01*
X126651746Y-82279496D01*
X126716500Y-81953958D01*
X126716500Y-81622042D01*
X126651746Y-81296504D01*
X126524728Y-80989853D01*
X126340325Y-80713875D01*
X126105625Y-80479175D01*
X125829647Y-80294772D01*
X125522996Y-80167754D01*
X125368386Y-80137000D01*
X128337931Y-80137000D01*
X128230866Y-80224866D01*
X128045294Y-80450986D01*
X127907401Y-80708966D01*
X127822487Y-80988889D01*
X127793815Y-81280000D01*
X127822487Y-81571111D01*
X127907401Y-81851034D01*
X128045294Y-82109014D01*
X128230866Y-82335134D01*
X128456986Y-82520706D01*
X128714966Y-82658599D01*
X128994889Y-82743513D01*
X129213050Y-82765000D01*
X129358950Y-82765000D01*
X129577111Y-82743513D01*
X129857034Y-82658599D01*
X130115014Y-82520706D01*
X130341134Y-82335134D01*
X130365607Y-82305313D01*
X130386498Y-82374180D01*
X130445463Y-82484494D01*
X130524815Y-82581185D01*
X130621506Y-82660537D01*
X130731820Y-82719502D01*
X130851518Y-82755812D01*
X130976000Y-82768072D01*
X131540250Y-82765000D01*
X131699000Y-82606250D01*
X131699000Y-81407000D01*
X131953000Y-81407000D01*
X131953000Y-82606250D01*
X132111750Y-82765000D01*
X132676000Y-82768072D01*
X132800482Y-82755812D01*
X132920180Y-82719502D01*
X133030494Y-82660537D01*
X133127185Y-82581185D01*
X133206537Y-82484494D01*
X133265502Y-82374180D01*
X133301812Y-82254482D01*
X133314072Y-82130000D01*
X133311000Y-81565750D01*
X133152250Y-81407000D01*
X131953000Y-81407000D01*
X131699000Y-81407000D01*
X131679000Y-81407000D01*
X131679000Y-81153000D01*
X131699000Y-81153000D01*
X131699000Y-81133000D01*
X131953000Y-81133000D01*
X131953000Y-81153000D01*
X133152250Y-81153000D01*
X133311000Y-80994250D01*
X133314072Y-80430000D01*
X133301812Y-80305518D01*
X133265502Y-80185820D01*
X133239407Y-80137000D01*
X153543000Y-80137000D01*
X153543000Y-80438093D01*
X153494180Y-80411998D01*
X153374482Y-80375688D01*
X153250000Y-80363428D01*
X151550000Y-80363428D01*
X151425518Y-80375688D01*
X151305820Y-80411998D01*
X151195506Y-80470963D01*
X151098815Y-80550315D01*
X151019463Y-80647006D01*
X150960498Y-80757320D01*
X150924188Y-80877018D01*
X150911928Y-81001500D01*
X150911928Y-82701500D01*
X150924188Y-82825982D01*
X150960498Y-82945680D01*
X151019463Y-83055994D01*
X151098815Y-83152685D01*
X151195506Y-83232037D01*
X151305820Y-83291002D01*
X151386466Y-83315466D01*
X151302412Y-83391231D01*
X151128359Y-83624580D01*
X151003175Y-83887401D01*
X150958524Y-84034610D01*
X151079845Y-84264500D01*
X152273000Y-84264500D01*
X152273000Y-84244500D01*
X152527000Y-84244500D01*
X152527000Y-84264500D01*
X152547000Y-84264500D01*
X152547000Y-84518500D01*
X152527000Y-84518500D01*
X152527000Y-85712314D01*
X152756891Y-85832981D01*
X153031252Y-85735657D01*
X153281355Y-85586678D01*
X153497588Y-85391769D01*
X153543000Y-85330886D01*
X153543000Y-91614093D01*
X153494180Y-91587998D01*
X153374482Y-91551688D01*
X153250000Y-91539428D01*
X151550000Y-91539428D01*
X151425518Y-91551688D01*
X151305820Y-91587998D01*
X151195506Y-91646963D01*
X151098815Y-91726315D01*
X151019463Y-91823006D01*
X150960498Y-91933320D01*
X150924188Y-92053018D01*
X150911928Y-92177500D01*
X150911928Y-93877500D01*
X150924188Y-94001982D01*
X150960498Y-94121680D01*
X151019463Y-94231994D01*
X151098815Y-94328685D01*
X151195506Y-94408037D01*
X151305820Y-94467002D01*
X151374687Y-94487893D01*
X151344866Y-94512366D01*
X151159294Y-94738486D01*
X151021401Y-94996466D01*
X150936487Y-95276389D01*
X150907815Y-95567500D01*
X150936487Y-95858611D01*
X151021401Y-96138534D01*
X151159294Y-96396514D01*
X151344866Y-96622634D01*
X151570986Y-96808206D01*
X151828966Y-96946099D01*
X152108889Y-97031013D01*
X152327050Y-97052500D01*
X152472950Y-97052500D01*
X152691111Y-97031013D01*
X152971034Y-96946099D01*
X153229014Y-96808206D01*
X153455134Y-96622634D01*
X153543000Y-96515569D01*
X153543000Y-99314948D01*
X153448728Y-99087353D01*
X153264325Y-98811375D01*
X153029625Y-98576675D01*
X152753647Y-98392272D01*
X152446996Y-98265254D01*
X152121458Y-98200500D01*
X151789542Y-98200500D01*
X151464004Y-98265254D01*
X151157353Y-98392272D01*
X150881375Y-98576675D01*
X150646675Y-98811375D01*
X150462272Y-99087353D01*
X150335254Y-99394004D01*
X150270500Y-99719542D01*
X150270500Y-100051458D01*
X150335254Y-100376996D01*
X150462272Y-100683647D01*
X150646675Y-100959625D01*
X150881375Y-101194325D01*
X151157353Y-101378728D01*
X151384948Y-101473000D01*
X133683907Y-101473000D01*
X133710002Y-101424180D01*
X133746312Y-101304482D01*
X133758572Y-101180000D01*
X133758572Y-100131843D01*
X133812244Y-100167705D01*
X134000602Y-100245726D01*
X134200561Y-100285500D01*
X134404439Y-100285500D01*
X134604398Y-100245726D01*
X134792756Y-100167705D01*
X134962274Y-100054437D01*
X135106437Y-99910274D01*
X135219705Y-99740756D01*
X135297726Y-99552398D01*
X135337500Y-99352439D01*
X135337500Y-99148561D01*
X135297726Y-98948602D01*
X135219705Y-98760244D01*
X135187500Y-98712046D01*
X135187500Y-97756954D01*
X135219705Y-97708756D01*
X135297726Y-97520398D01*
X135337500Y-97320439D01*
X135337500Y-97116561D01*
X135297726Y-96916602D01*
X135219705Y-96728244D01*
X135106437Y-96558726D01*
X134962274Y-96414563D01*
X134792756Y-96301295D01*
X134604398Y-96223274D01*
X134404439Y-96183500D01*
X134200561Y-96183500D01*
X134069001Y-96209669D01*
X134069001Y-94631468D01*
X134073282Y-94587999D01*
X134069001Y-94544530D01*
X134069001Y-94544522D01*
X134056196Y-94414509D01*
X134005590Y-94247686D01*
X133923412Y-94093940D01*
X133905164Y-94071705D01*
X133840533Y-93992952D01*
X133840531Y-93992950D01*
X133812818Y-93959182D01*
X133779051Y-93931470D01*
X131264036Y-91416456D01*
X131236319Y-91382683D01*
X131101561Y-91272089D01*
X130947815Y-91189911D01*
X130780992Y-91139305D01*
X130650979Y-91126500D01*
X130650971Y-91126500D01*
X130607502Y-91122219D01*
X130564033Y-91126500D01*
X127982954Y-91126500D01*
X127934756Y-91094295D01*
X127746398Y-91016274D01*
X127546439Y-90976500D01*
X127342561Y-90976500D01*
X127142602Y-91016274D01*
X126954244Y-91094295D01*
X126784726Y-91207563D01*
X126640563Y-91351726D01*
X126527295Y-91521244D01*
X126449274Y-91709602D01*
X126409500Y-91909561D01*
X126409500Y-92113439D01*
X126419131Y-92161856D01*
X126412898Y-92159274D01*
X126212939Y-92119500D01*
X126009061Y-92119500D01*
X125809102Y-92159274D01*
X125620744Y-92237295D01*
X125451226Y-92350563D01*
X125307063Y-92494726D01*
X125193795Y-92664244D01*
X125115774Y-92852602D01*
X125076000Y-93052561D01*
X125076000Y-93256439D01*
X125115774Y-93456398D01*
X125193795Y-93644756D01*
X125226001Y-93692955D01*
X125226000Y-95283045D01*
X125193795Y-95331244D01*
X125115774Y-95519602D01*
X125076000Y-95719561D01*
X125076000Y-95923439D01*
X125115774Y-96123398D01*
X125193795Y-96311756D01*
X125307063Y-96481274D01*
X125451226Y-96625437D01*
X125620744Y-96738705D01*
X125809102Y-96816726D01*
X126009061Y-96856500D01*
X126212939Y-96856500D01*
X126412898Y-96816726D01*
X126601256Y-96738705D01*
X126770774Y-96625437D01*
X126914937Y-96481274D01*
X127028205Y-96311756D01*
X127106226Y-96123398D01*
X127146000Y-95923439D01*
X127146000Y-95719561D01*
X127106226Y-95519602D01*
X127028205Y-95331244D01*
X126996000Y-95283046D01*
X126996000Y-93692954D01*
X127028205Y-93644756D01*
X127106226Y-93456398D01*
X127146000Y-93256439D01*
X127146000Y-93052561D01*
X127136369Y-93004144D01*
X127142602Y-93006726D01*
X127342561Y-93046500D01*
X127546439Y-93046500D01*
X127746398Y-93006726D01*
X127934756Y-92928705D01*
X127982954Y-92896500D01*
X130240924Y-92896500D01*
X132299001Y-94954578D01*
X132299001Y-95182785D01*
X132181939Y-95159500D01*
X131978061Y-95159500D01*
X131778102Y-95199274D01*
X131589744Y-95277295D01*
X131420226Y-95390563D01*
X131276063Y-95534726D01*
X131162795Y-95704244D01*
X131084774Y-95892602D01*
X131045000Y-96092561D01*
X131045000Y-96296439D01*
X131084774Y-96496398D01*
X131162795Y-96684756D01*
X131245000Y-96807785D01*
X131245001Y-97240214D01*
X131162795Y-97363244D01*
X131084774Y-97551602D01*
X131045000Y-97751561D01*
X131045000Y-97955439D01*
X131084774Y-98155398D01*
X131162795Y-98343756D01*
X131276063Y-98513274D01*
X131420226Y-98657437D01*
X131439600Y-98670382D01*
X131398305Y-98806511D01*
X131394565Y-98844482D01*
X131296018Y-98854188D01*
X131176320Y-98890498D01*
X131066006Y-98949463D01*
X130969315Y-99028815D01*
X130889963Y-99125506D01*
X130830998Y-99235820D01*
X130810107Y-99304687D01*
X130785634Y-99274866D01*
X130559514Y-99089294D01*
X130301534Y-98951401D01*
X130021611Y-98866487D01*
X129803450Y-98845000D01*
X129657550Y-98845000D01*
X129439389Y-98866487D01*
X129159466Y-98951401D01*
X128901486Y-99089294D01*
X128675366Y-99274866D01*
X128489794Y-99500986D01*
X128460500Y-99555791D01*
X128431206Y-99500986D01*
X128245634Y-99274866D01*
X128019514Y-99089294D01*
X127761534Y-98951401D01*
X127481611Y-98866487D01*
X127263450Y-98845000D01*
X127117550Y-98845000D01*
X126899389Y-98866487D01*
X126619466Y-98951401D01*
X126361486Y-99089294D01*
X126135366Y-99274866D01*
X125949794Y-99500986D01*
X125811901Y-99758966D01*
X125726987Y-100038889D01*
X125698315Y-100330000D01*
X125726987Y-100621111D01*
X125811901Y-100901034D01*
X125949794Y-101159014D01*
X126135366Y-101385134D01*
X126242431Y-101473000D01*
X123317000Y-101473000D01*
X123317000Y-88925061D01*
X128124000Y-88925061D01*
X128124000Y-89128939D01*
X128163774Y-89328898D01*
X128241795Y-89517256D01*
X128355063Y-89686774D01*
X128499226Y-89830937D01*
X128668744Y-89944205D01*
X128857102Y-90022226D01*
X129057061Y-90062000D01*
X129260939Y-90062000D01*
X129460898Y-90022226D01*
X129649256Y-89944205D01*
X129697454Y-89912000D01*
X130633922Y-89912000D01*
X137042465Y-96320544D01*
X137053774Y-96377398D01*
X137131795Y-96565756D01*
X137245063Y-96735274D01*
X137389226Y-96879437D01*
X137558744Y-96992705D01*
X137747102Y-97070726D01*
X137947061Y-97110500D01*
X138150939Y-97110500D01*
X138350898Y-97070726D01*
X138539256Y-96992705D01*
X138708774Y-96879437D01*
X138852937Y-96735274D01*
X138966205Y-96565756D01*
X139044226Y-96377398D01*
X139084000Y-96177439D01*
X139084000Y-95973561D01*
X139044226Y-95773602D01*
X138966205Y-95585244D01*
X138852937Y-95415726D01*
X138708774Y-95271563D01*
X138539256Y-95158295D01*
X138350898Y-95080274D01*
X138294044Y-95068965D01*
X137420640Y-94195561D01*
X145904000Y-94195561D01*
X145904000Y-94399439D01*
X145943774Y-94599398D01*
X146021795Y-94787756D01*
X146135063Y-94957274D01*
X146279226Y-95101437D01*
X146448744Y-95214705D01*
X146637102Y-95292726D01*
X146837061Y-95332500D01*
X147040939Y-95332500D01*
X147240898Y-95292726D01*
X147429256Y-95214705D01*
X147598774Y-95101437D01*
X147742937Y-94957274D01*
X147856205Y-94787756D01*
X147934226Y-94599398D01*
X147974000Y-94399439D01*
X147974000Y-94195561D01*
X147934226Y-93995602D01*
X147856205Y-93807244D01*
X147824000Y-93759046D01*
X147824000Y-88530210D01*
X147928205Y-88374256D01*
X148006226Y-88185898D01*
X148046000Y-87985939D01*
X148046000Y-87782061D01*
X148006226Y-87582102D01*
X147928205Y-87393744D01*
X147814937Y-87224226D01*
X147670774Y-87080063D01*
X147501256Y-86966795D01*
X147312898Y-86888774D01*
X147112939Y-86849000D01*
X146909061Y-86849000D01*
X146709102Y-86888774D01*
X146520744Y-86966795D01*
X146351226Y-87080063D01*
X146207063Y-87224226D01*
X146093795Y-87393744D01*
X146015774Y-87582102D01*
X145976000Y-87782061D01*
X145976000Y-87985939D01*
X146015774Y-88185898D01*
X146054001Y-88278185D01*
X146054000Y-93759046D01*
X146021795Y-93807244D01*
X145943774Y-93995602D01*
X145904000Y-94195561D01*
X137420640Y-94195561D01*
X131657034Y-88431956D01*
X131629317Y-88398183D01*
X131494559Y-88287589D01*
X131340813Y-88205411D01*
X131173990Y-88154805D01*
X131043977Y-88142000D01*
X131043969Y-88142000D01*
X131000500Y-88137719D01*
X130957031Y-88142000D01*
X129697454Y-88142000D01*
X129649256Y-88109795D01*
X129460898Y-88031774D01*
X129260939Y-87992000D01*
X129057061Y-87992000D01*
X128857102Y-88031774D01*
X128668744Y-88109795D01*
X128499226Y-88223063D01*
X128355063Y-88367226D01*
X128241795Y-88536744D01*
X128163774Y-88725102D01*
X128124000Y-88925061D01*
X123317000Y-88925061D01*
X123317000Y-85877061D01*
X138347500Y-85877061D01*
X138347500Y-86080939D01*
X138387274Y-86280898D01*
X138465295Y-86469256D01*
X138578563Y-86638774D01*
X138722726Y-86782937D01*
X138892244Y-86896205D01*
X139080602Y-86974226D01*
X139280561Y-87014000D01*
X139484439Y-87014000D01*
X139684398Y-86974226D01*
X139872756Y-86896205D01*
X139920954Y-86864000D01*
X142396796Y-86864000D01*
X142509602Y-86910726D01*
X142709561Y-86950500D01*
X142913439Y-86950500D01*
X143113398Y-86910726D01*
X143301756Y-86832705D01*
X143471274Y-86719437D01*
X143615437Y-86575274D01*
X143728705Y-86405756D01*
X143806726Y-86217398D01*
X143846500Y-86017439D01*
X143846500Y-85813561D01*
X143806726Y-85613602D01*
X143728705Y-85425244D01*
X143615437Y-85255726D01*
X143471274Y-85111563D01*
X143301756Y-84998295D01*
X143113398Y-84920274D01*
X142913439Y-84880500D01*
X142709561Y-84880500D01*
X142509602Y-84920274D01*
X142321244Y-84998295D01*
X142178011Y-85094000D01*
X139920954Y-85094000D01*
X139872756Y-85061795D01*
X139684398Y-84983774D01*
X139484439Y-84944000D01*
X139280561Y-84944000D01*
X139080602Y-84983774D01*
X138892244Y-85061795D01*
X138722726Y-85175063D01*
X138578563Y-85319226D01*
X138465295Y-85488744D01*
X138387274Y-85677102D01*
X138347500Y-85877061D01*
X123317000Y-85877061D01*
X123317000Y-84748390D01*
X150958524Y-84748390D01*
X151003175Y-84895599D01*
X151128359Y-85158420D01*
X151302412Y-85391769D01*
X151518645Y-85586678D01*
X151768748Y-85735657D01*
X152043109Y-85832981D01*
X152273000Y-85712314D01*
X152273000Y-84518500D01*
X151079845Y-84518500D01*
X150958524Y-84748390D01*
X123317000Y-84748390D01*
X123317000Y-80137000D01*
X124694614Y-80137000D01*
X124540004Y-80167754D01*
M02*
